<svg xmlns="http://www.w3.org/2000/svg" xmlns:xlink="http://www.w3.org/1999/xlink" width="500" zoomAndPan="magnify" viewBox="0 0 375 374.999991" height="500" preserveAspectRatio="xMidYMid meet" version="1.0"><defs><clipPath id="024f56ae37"><path d="M 194 189 L 215 189 L 215 264.46875 L 194 264.46875 Z M 194 189 " clip-rule="nonzero"/></clipPath><clipPath id="d15291c3ae"><path d="M 195 227 L 226 227 L 226 337.691406 L 195 337.691406 Z M 195 227 " clip-rule="nonzero"/></clipPath><clipPath id="2ff3419a2c"><path d="M 144 134 L 232 134 L 232 159.917969 L 144 159.917969 Z M 144 134 " clip-rule="nonzero"/></clipPath><clipPath id="49186f1443"><path d="M 139.628906 79 L 227 79 L 227 105 L 139.628906 105 Z M 139.628906 79 " clip-rule="nonzero"/></clipPath><clipPath id="f10a470f94"><path d="M 139.628906 63 L 227 63 L 227 95 L 139.628906 95 Z M 139.628906 63 " clip-rule="nonzero"/></clipPath><clipPath id="e9fcf6a365"><path d="M 148 37.5 L 236 37.5 L 236 69 L 148 69 Z M 148 37.5 " clip-rule="nonzero"/></clipPath></defs><path fill="#000000" d="M 133.027344 238.128906 C 132.300781 242.949219 131.785156 246.363281 131.582031 247.351562 C 130.757812 251.324219 130.964844 254.585938 133.121094 255.199219 C 135.894531 255.984375 138.574219 255.261719 141.957031 245.3125 C 143.808594 239.863281 145.796875 234.058594 147.796875 228.210938 C 153.425781 211.769531 158.007812 194.730469 161.140625 184.707031 L 143.539062 187.304688 C 140.359375 200.300781 135.066406 224.605469 133.027344 238.128906 Z M 133.027344 238.128906 " fill-opacity="1" fill-rule="nonzero"/><g clip-path="url(#024f56ae37)"><path fill="#000000" d="M 203.628906 248.832031 C 204.617188 253.601562 205.316406 256.984375 205.464844 257.984375 C 206.070312 261.996094 208.527344 265.089844 210.765625 264.914062 C 213.636719 264.691406 214.765625 262.980469 214.492188 252.480469 C 214.34375 246.722656 213.359375 234.332031 213.359375 234.332031 C 213.359375 234.332031 211.296875 199.523438 210.765625 189.035156 L 194.316406 197.804688 C 195.832031 211.097656 200.859375 235.4375 203.628906 248.832031 Z M 203.628906 248.832031 " fill-opacity="1" fill-rule="nonzero"/></g><path fill="#000000" d="M 177.101562 224.558594 C 175.953125 228.808594 175.140625 231.820312 174.949219 232.710938 C 174.1875 236.292969 172.832031 238.917969 170.824219 238.640625 C 168.242188 238.285156 166.285156 236.714844 167.097656 227.261719 C 167.539062 222.082031 168.003906 216.558594 168.46875 210.996094 C 169.777344 195.355469 171.109375 179.421875 172.152344 169.992188 L 188.261719 179.054688 C 186.175781 190.957031 180.320312 212.632812 177.101562 224.558594 Z M 177.101562 224.558594 " fill-opacity="1" fill-rule="nonzero"/><path fill="#000000" d="M 244.648438 232.359375 C 245.375 237.179688 245.890625 240.59375 246.09375 241.582031 C 246.917969 245.554688 246.710938 248.816406 244.554688 249.425781 C 241.78125 250.214844 239.101562 249.492188 235.71875 239.542969 C 233.867188 234.09375 231.878906 228.285156 229.878906 222.441406 C 224.25 206 220.246094 189.078125 217.113281 179.054688 L 235.71875 181.265625 C 238.902344 194.257812 242.609375 218.835938 244.648438 232.359375 Z M 244.648438 232.359375 " fill-opacity="1" fill-rule="nonzero"/><path fill="#000000" d="M 128.257812 131.4375 C 128.351562 130.960938 128.496094 130.5 128.71875 130.058594 C 128.820312 129.855469 128.925781 129.65625 129.039062 129.453125 C 135.945312 117.203125 202.792969 123.65625 242.167969 124.964844 C 248.480469 125.535156 248.980469 133.21875 249.238281 136.65625 C 250.160156 148.941406 250.515625 166.019531 248.757812 173.84375 C 248.613281 174.476562 248.546875 175.117188 248.480469 175.761719 C 247.878906 181.863281 240.09375 189.238281 218.441406 195.625 C 189.429688 204.183594 131.816406 194.390625 129.011719 181.414062 C 126.003906 167.503906 125.675781 144.878906 128.257812 131.4375 Z M 128.257812 131.4375 " fill-opacity="1" fill-rule="nonzero"/><path fill="#000000" d="M 216.699219 143.691406 C 189.027344 150.722656 134.070312 142.675781 131.394531 132.007812 C 128.714844 121.34375 147.097656 114.800781 173.085938 112.320312 C 198.164062 109.925781 228.386719 115.050781 239.101562 120.152344 C 248.777344 124.761719 251.289062 134.898438 216.699219 143.691406 Z M 216.699219 143.691406 " fill-opacity="1" fill-rule="nonzero"/><path fill="#ffffff" d="M 130.304688 136.585938 C 130.59375 136.445312 130.9375 136.5625 131.078125 136.851562 C 131.324219 137.359375 131.972656 138.125 133.230469 139.039062 C 134.472656 139.941406 136.265625 140.960938 138.738281 141.992188 C 143.6875 144.054688 151.316406 146.152344 162.589844 147.496094 C 176.699219 149.183594 192.636719 149.882812 207.179688 148.445312 C 221.742188 147.007812 234.820312 143.4375 243.292969 136.652344 L 244.015625 137.554688 C 235.277344 144.550781 221.925781 148.148438 207.292969 149.59375 C 192.640625 151.039062 176.617188 150.335938 162.453125 148.644531 C 151.105469 147.289062 143.367188 145.171875 138.296875 143.054688 C 135.757812 142 133.882812 140.941406 132.550781 139.972656 C 131.230469 139.011719 130.40625 138.113281 130.039062 137.355469 C 129.898438 137.070312 130.019531 136.722656 130.304688 136.585938 Z M 130.304688 136.585938 " fill-opacity="1" fill-rule="evenodd"/><path fill="#5271ff" d="M 107.160156 298.460938 C 106.105469 305.441406 105.359375 310.390625 105.0625 311.820312 C 103.875 317.574219 104.171875 322.296875 107.296875 323.183594 C 111.3125 324.320312 115.195312 323.277344 120.09375 308.867188 C 122.777344 300.972656 125.65625 292.5625 128.554688 284.097656 C 136.707031 260.277344 143.34375 235.601562 147.878906 221.082031 L 122.386719 224.84375 C 117.78125 243.667969 110.113281 278.875 107.160156 298.460938 Z M 107.160156 298.460938 " fill-opacity="1" fill-rule="nonzero"/><g clip-path="url(#d15291c3ae)"><path fill="#5271ff" d="M 209.425781 313.960938 C 210.851562 320.875 211.863281 325.773438 212.082031 327.21875 C 212.957031 333.027344 216.519531 337.511719 219.757812 337.257812 C 223.921875 336.9375 225.554688 334.457031 225.160156 319.246094 C 224.941406 310.90625 223.519531 292.960938 223.519531 292.960938 C 223.519531 292.960938 220.527344 242.542969 219.757812 227.351562 L 195.933594 240.050781 C 198.128906 259.304688 205.414062 294.5625 209.425781 313.960938 Z M 209.425781 313.960938 " fill-opacity="1" fill-rule="nonzero"/></g><path fill="#5271ff" d="M 171 278.800781 C 169.335938 284.957031 168.15625 289.320312 167.882812 290.609375 C 166.777344 295.804688 164.816406 299.601562 161.90625 299.199219 C 158.167969 298.6875 155.332031 296.414062 156.507812 282.71875 C 157.152344 275.214844 157.820312 267.214844 158.492188 259.164062 C 160.386719 236.503906 162.316406 213.421875 163.832031 199.769531 L 187.164062 212.894531 C 184.144531 230.136719 175.664062 261.527344 171 278.800781 Z M 171 278.800781 " fill-opacity="1" fill-rule="nonzero"/><path fill="#5271ff" d="M 268.835938 290.105469 C 269.890625 297.085938 270.636719 302.03125 270.933594 303.460938 C 272.121094 309.214844 271.824219 313.9375 268.699219 314.824219 C 264.683594 315.964844 260.800781 314.917969 255.90625 300.507812 C 253.222656 292.613281 250.34375 284.203125 247.445312 275.738281 C 239.289062 251.921875 233.488281 227.410156 228.953125 212.894531 L 255.90625 216.09375 C 260.511719 234.917969 265.882812 270.515625 268.835938 290.105469 Z M 268.835938 290.105469 " fill-opacity="1" fill-rule="nonzero"/><path fill="#5271ff" d="M 100.253906 143.925781 C 100.386719 143.234375 100.597656 142.566406 100.917969 141.929688 C 101.066406 141.632812 101.21875 141.339844 101.382812 141.050781 C 111.386719 123.308594 208.214844 132.65625 265.246094 134.550781 C 274.390625 135.375 275.113281 146.5 275.484375 151.480469 C 276.820312 169.277344 277.335938 194.011719 274.789062 205.347656 C 274.582031 206.261719 274.484375 207.191406 274.390625 208.125 C 273.519531 216.960938 262.238281 227.648438 230.878906 236.894531 C 188.859375 249.289062 105.40625 235.109375 101.339844 216.308594 C 96.984375 196.164062 96.511719 163.390625 100.253906 143.925781 Z M 100.253906 143.925781 " fill-opacity="1" fill-rule="nonzero"/><path fill="#5271ff" d="M 228.351562 161.667969 C 188.269531 171.855469 108.671875 160.199219 104.792969 144.75 C 100.917969 129.300781 127.542969 119.824219 165.183594 116.230469 C 201.507812 112.765625 245.28125 120.1875 260.804688 127.578125 C 274.820312 134.253906 278.453125 148.9375 228.351562 161.667969 Z M 228.351562 161.667969 " fill-opacity="1" fill-rule="nonzero"/><path fill="#000000" d="M 103.21875 151.378906 C 103.632812 151.175781 104.132812 151.347656 104.335938 151.765625 C 104.691406 152.5 105.632812 153.609375 107.453125 154.933594 C 109.25 156.242188 111.851562 157.714844 115.433594 159.210938 C 122.601562 162.195312 133.648438 165.238281 149.976562 167.183594 C 170.414062 169.625 193.5 170.636719 214.566406 168.558594 C 235.660156 166.476562 254.605469 161.304688 266.878906 151.476562 L 267.921875 152.78125 C 255.265625 162.914062 235.925781 168.128906 214.730469 170.222656 C 193.507812 172.316406 170.296875 171.292969 149.78125 168.84375 C 133.34375 166.882812 122.136719 163.8125 114.789062 160.75 C 111.117188 159.222656 108.398438 157.6875 106.46875 156.285156 C 104.558594 154.894531 103.363281 153.589844 102.832031 152.496094 C 102.628906 152.078125 102.800781 151.578125 103.21875 151.378906 Z M 103.21875 151.378906 " fill-opacity="1" fill-rule="evenodd"/><g clip-path="url(#2ff3419a2c)"><path fill="#e98b1b" d="M 231.902344 144.035156 L 231.902344 134.886719 L 144.6875 134.886719 L 144.6875 144.035156 C 144.6875 152.515625 164.210938 159.382812 188.292969 159.382812 C 212.375 159.382812 231.902344 152.515625 231.902344 144.035156 " fill-opacity="1" fill-rule="nonzero"/></g><path fill="#f5c116" d="M 188.292969 149.558594 C 164.210938 149.558594 144.6875 142.6875 144.6875 134.210938 C 144.6875 125.734375 164.210938 118.863281 188.292969 118.863281 C 212.375 118.863281 231.902344 125.734375 231.902344 134.210938 C 231.902344 142.6875 212.375 149.558594 188.292969 149.558594 " fill-opacity="1" fill-rule="nonzero"/><path fill="#e98b1b" d="M 190.917969 140.203125 C 192.667969 140.085938 194.089844 139.800781 195.1875 139.34375 C 196.285156 138.890625 196.832031 138.351562 196.832031 137.738281 C 196.832031 137.1875 196.375 136.714844 195.449219 136.316406 C 194.527344 135.917969 193.019531 135.609375 190.917969 135.398438 L 190.917969 140.203125 M 185.84375 127.101562 C 184.46875 127.261719 183.371094 127.542969 182.554688 127.933594 C 181.738281 128.332031 181.328125 128.765625 181.328125 129.242188 C 181.328125 129.679688 181.703125 130.082031 182.449219 130.457031 C 183.199219 130.828125 184.324219 131.128906 185.84375 131.359375 L 185.84375 127.101562 M 185.84375 140.027344 L 185.84375 134.867188 C 181.273438 134.410156 177.921875 133.714844 175.785156 132.78125 C 173.648438 131.851562 172.582031 130.71875 172.582031 129.390625 C 172.582031 128.042969 173.789062 126.910156 176.203125 125.996094 C 178.617188 125.078125 181.832031 124.554688 185.84375 124.414062 L 185.84375 123.195312 L 190.917969 123.195312 L 190.917969 124.414062 C 194.625 124.570312 197.574219 125.015625 199.769531 125.75 C 201.96875 126.488281 203.363281 127.464844 203.96875 128.699219 L 195.117188 129.105469 C 194.582031 128.136719 193.179688 127.480469 190.917969 127.136719 L 190.917969 131.953125 C 196.519531 132.480469 200.335938 133.175781 202.359375 134.027344 C 204.390625 134.875 205.402344 135.964844 205.402344 137.296875 C 205.402344 138.785156 204.128906 140.035156 201.578125 141.050781 C 199.019531 142.070312 195.46875 142.691406 190.917969 142.925781 L 190.917969 145.226562 L 185.84375 145.226562 L 185.84375 142.984375 C 181.808594 142.8125 178.527344 142.28125 176.011719 141.394531 C 173.492188 140.507812 171.882812 139.257812 171.183594 137.640625 L 180.316406 137.296875 C 180.691406 137.949219 181.390625 138.519531 182.417969 138.996094 C 183.441406 139.46875 184.585938 139.816406 185.84375 140.027344 " fill-opacity="1" fill-rule="nonzero"/><path fill="#e98b1b" d="M 226.976562 150.183594 L 226.964844 150.164062 L 226.964844 141.882812 C 227.484375 141.53125 227.96875 141.175781 228.410156 140.816406 L 228.410156 149.015625 C 227.972656 149.414062 227.5 149.804688 226.976562 150.183594 " fill-opacity="1" fill-rule="nonzero"/><path fill="#e98b1b" d="M 224.804688 151.558594 C 224.625 151.515625 224.503906 151.441406 224.503906 151.359375 L 224.503906 143.34375 C 225.011719 143.078125 225.488281 142.800781 225.949219 142.527344 L 225.949219 150.875 C 225.585938 151.109375 225.203125 151.335938 224.804688 151.558594 " fill-opacity="1" fill-rule="nonzero"/><path fill="#e98b1b" d="M 229.425781 147.988281 L 229.425781 139.890625 C 230.003906 139.3125 230.488281 138.714844 230.871094 138.101562 L 230.871094 145.667969 C 230.554688 146.460938 230.074219 147.238281 229.425781 147.988281 " fill-opacity="1" fill-rule="nonzero"/><path fill="#e98b1b" d="M 222.414062 152.773438 C 222.199219 152.730469 222.039062 152.652344 222.039062 152.558594 L 222.039062 144.507812 C 222.542969 144.292969 223.023438 144.070312 223.488281 143.847656 L 223.488281 152.257812 C 223.140625 152.433594 222.78125 152.605469 222.414062 152.773438 " fill-opacity="1" fill-rule="nonzero"/><path fill="#e98b1b" d="M 219.71875 153.898438 C 219.640625 153.855469 219.582031 153.804688 219.582031 153.753906 L 219.582031 145.472656 C 220.078125 145.296875 220.558594 145.109375 221.027344 144.925781 L 221.027344 153.375 C 220.601562 153.550781 220.167969 153.726562 219.71875 153.898438 " fill-opacity="1" fill-rule="nonzero"/><path fill="#e98b1b" d="M 217.125 154.796875 L 217.125 146.296875 C 217.617188 146.148438 218.097656 145.988281 218.570312 145.828125 L 218.570312 154.316406 C 218.097656 154.480469 217.617188 154.640625 217.125 154.796875 " fill-opacity="1" fill-rule="nonzero"/><path fill="#e98b1b" d="M 214.664062 155.515625 L 214.664062 147.011719 C 215.152344 146.878906 215.636719 146.746094 216.109375 146.609375 L 216.109375 155.105469 C 215.636719 155.25 215.152344 155.386719 214.664062 155.515625 " fill-opacity="1" fill-rule="nonzero"/><path fill="#e98b1b" d="M 212.203125 156.152344 L 212.203125 147.621094 C 212.695312 147.511719 213.171875 147.390625 213.652344 147.269531 L 213.652344 155.789062 C 213.171875 155.914062 212.695312 156.03125 212.203125 156.152344 " fill-opacity="1" fill-rule="nonzero"/><path fill="#e98b1b" d="M 209.742188 156.683594 L 209.742188 148.152344 C 210.230469 148.054688 210.710938 147.953125 211.1875 147.851562 L 211.1875 156.375 C 210.710938 156.484375 210.230469 156.585938 209.742188 156.683594 " fill-opacity="1" fill-rule="nonzero"/><path fill="#e98b1b" d="M 207.285156 157.148438 L 207.285156 148.605469 C 207.773438 148.523438 208.25 148.4375 208.730469 148.347656 L 208.730469 156.886719 C 208.253906 156.976562 207.765625 157.066406 207.285156 157.148438 " fill-opacity="1" fill-rule="nonzero"/><path fill="#e98b1b" d="M 204.824219 157.542969 L 204.824219 148.992188 C 205.308594 148.921875 205.792969 148.851562 206.265625 148.769531 L 206.265625 157.316406 C 205.792969 157.394531 205.308594 157.472656 204.824219 157.542969 " fill-opacity="1" fill-rule="nonzero"/><path fill="#e98b1b" d="M 171.765625 157.542969 C 171.277344 157.472656 170.796875 157.394531 170.320312 157.316406 L 170.320312 148.769531 C 170.796875 148.851562 171.277344 148.921875 171.765625 148.992188 L 171.765625 157.542969 " fill-opacity="1" fill-rule="nonzero"/><path fill="#e98b1b" d="M 169.304688 157.148438 C 168.820312 157.066406 168.335938 156.976562 167.859375 156.886719 L 167.859375 148.347656 C 168.339844 148.4375 168.816406 148.523438 169.304688 148.605469 L 169.304688 157.148438 " fill-opacity="1" fill-rule="nonzero"/><path fill="#e98b1b" d="M 166.84375 156.683594 C 166.355469 156.585938 165.875 156.484375 165.398438 156.375 L 165.398438 147.851562 C 165.875 147.953125 166.355469 148.054688 166.84375 148.152344 L 166.84375 156.683594 " fill-opacity="1" fill-rule="nonzero"/><path fill="#e98b1b" d="M 164.386719 156.152344 C 163.894531 156.03125 163.414062 155.914062 162.9375 155.789062 L 162.9375 147.269531 C 163.414062 147.390625 163.894531 147.511719 164.386719 147.621094 L 164.386719 156.152344 " fill-opacity="1" fill-rule="nonzero"/><path fill="#e98b1b" d="M 161.925781 155.515625 C 161.433594 155.386719 160.953125 155.25 160.480469 155.105469 L 160.480469 146.609375 C 160.949219 146.746094 161.433594 146.878906 161.925781 147.011719 L 161.925781 155.515625 " fill-opacity="1" fill-rule="nonzero"/><path fill="#e98b1b" d="M 184.0625 158.628906 C 183.578125 158.613281 183.101562 158.589844 182.621094 158.570312 L 182.621094 150.003906 C 183.101562 150.023438 183.578125 150.046875 184.0625 150.0625 L 184.0625 158.628906 " fill-opacity="1" fill-rule="nonzero"/><path fill="#e98b1b" d="M 181.605469 158.519531 C 181.121094 158.496094 180.640625 158.460938 180.160156 158.429688 L 180.160156 149.867188 C 180.640625 149.898438 181.121094 149.933594 181.605469 149.957031 L 181.605469 158.519531 " fill-opacity="1" fill-rule="nonzero"/><path fill="#e98b1b" d="M 186.527344 158.691406 C 186.042969 158.679688 185.558594 158.667969 185.082031 158.65625 L 185.082031 150.089844 C 185.558594 150.101562 186.042969 150.113281 186.527344 150.121094 L 186.527344 158.691406 " fill-opacity="1" fill-rule="nonzero"/><path fill="#e98b1b" d="M 188.292969 158.707031 C 188.042969 158.707031 187.789062 158.699219 187.539062 158.695312 L 187.539062 150.128906 C 187.789062 150.132812 188.042969 150.136719 188.292969 150.136719 C 188.523438 150.136719 188.753906 150.132812 188.984375 150.132812 L 188.984375 158.695312 C 188.753906 158.699219 188.523438 158.707031 188.292969 158.707031 " fill-opacity="1" fill-rule="nonzero"/><path fill="#e98b1b" d="M 190.003906 158.691406 L 190.003906 150.121094 C 190.484375 150.113281 190.964844 150.105469 191.449219 150.09375 L 191.449219 158.660156 C 190.964844 158.671875 190.484375 158.679688 190.003906 158.691406 " fill-opacity="1" fill-rule="nonzero"/><path fill="#e98b1b" d="M 192.460938 158.628906 L 192.460938 150.066406 C 192.945312 150.046875 193.425781 150.027344 193.90625 150.003906 L 193.90625 158.574219 C 193.425781 158.59375 192.945312 158.617188 192.460938 158.628906 " fill-opacity="1" fill-rule="nonzero"/><path fill="#e98b1b" d="M 194.921875 158.523438 L 194.921875 149.960938 C 195.40625 149.933594 195.882812 149.902344 196.367188 149.871094 L 196.367188 158.433594 C 195.882812 158.464844 195.40625 158.496094 194.921875 158.523438 " fill-opacity="1" fill-rule="nonzero"/><path fill="#e98b1b" d="M 197.378906 158.359375 L 197.378906 149.800781 C 197.863281 149.765625 198.347656 149.726562 198.824219 149.683594 L 198.824219 158.246094 C 198.351562 158.285156 197.863281 158.324219 197.378906 158.359375 " fill-opacity="1" fill-rule="nonzero"/><path fill="#e98b1b" d="M 199.839844 158.148438 L 199.839844 149.589844 C 200.324219 149.542969 200.808594 149.496094 201.285156 149.445312 L 201.285156 157.996094 C 200.808594 158.050781 200.324219 158.097656 199.839844 158.148438 " fill-opacity="1" fill-rule="nonzero"/><path fill="#e98b1b" d="M 202.300781 157.875 L 202.300781 149.324219 C 202.785156 149.265625 203.269531 149.207031 203.746094 149.140625 L 203.746094 157.695312 C 203.269531 157.757812 202.785156 157.816406 202.300781 157.875 " fill-opacity="1" fill-rule="nonzero"/><path fill="#e98b1b" d="M 179.144531 158.355469 C 178.660156 158.320312 178.179688 158.28125 177.699219 158.238281 L 177.699219 149.679688 C 178.179688 149.71875 178.660156 149.757812 179.144531 149.792969 L 179.144531 158.355469 " fill-opacity="1" fill-rule="nonzero"/><path fill="#e98b1b" d="M 176.6875 158.140625 C 176.199219 158.09375 175.714844 158.042969 175.238281 157.992188 L 175.238281 149.433594 C 175.714844 149.488281 176.199219 149.535156 176.6875 149.582031 L 176.6875 158.140625 " fill-opacity="1" fill-rule="nonzero"/><path fill="#e98b1b" d="M 174.226562 157.867188 C 173.742188 157.8125 173.257812 157.75 172.777344 157.683594 L 172.777344 149.132812 C 173.257812 149.195312 173.742188 149.257812 174.226562 149.316406 L 174.226562 157.867188 " fill-opacity="1" fill-rule="nonzero"/><path fill="#e98b1b" d="M 159.464844 154.796875 C 158.972656 154.640625 158.488281 154.480469 158.015625 154.316406 L 158.015625 145.828125 C 158.488281 145.988281 158.972656 146.148438 159.464844 146.296875 L 159.464844 154.796875 " fill-opacity="1" fill-rule="nonzero"/><path fill="#e98b1b" d="M 156.867188 153.898438 C 156.421875 153.726562 155.984375 153.550781 155.558594 153.375 L 155.558594 144.925781 C 156.027344 145.109375 156.507812 145.296875 157.003906 145.472656 L 157.003906 153.753906 C 157.003906 153.804688 156.949219 153.855469 156.867188 153.898438 " fill-opacity="1" fill-rule="nonzero"/><path fill="#e98b1b" d="M 154.175781 152.773438 C 153.804688 152.605469 153.449219 152.433594 153.097656 152.257812 L 153.097656 143.847656 C 153.566406 144.070312 154.042969 144.292969 154.546875 144.507812 L 154.546875 152.558594 C 154.546875 152.652344 154.386719 152.730469 154.175781 152.773438 " fill-opacity="1" fill-rule="nonzero"/><path fill="#e98b1b" d="M 151.78125 151.558594 C 151.390625 151.335938 151.003906 151.109375 150.640625 150.875 L 150.640625 142.527344 C 151.097656 142.800781 151.574219 143.078125 152.085938 143.34375 L 152.085938 151.359375 C 152.085938 151.441406 151.960938 151.515625 151.78125 151.558594 " fill-opacity="1" fill-rule="nonzero"/><path fill="#e98b1b" d="M 149.613281 150.183594 C 149.085938 149.804688 148.613281 149.414062 148.179688 149.015625 L 148.179688 140.816406 C 148.621094 141.175781 149.109375 141.53125 149.625 141.882812 L 149.625 150.164062 L 149.613281 150.183594 " fill-opacity="1" fill-rule="nonzero"/><path fill="#e98b1b" d="M 147.164062 147.988281 C 146.511719 147.238281 146.03125 146.464844 145.71875 145.667969 L 145.71875 138.101562 C 146.101562 138.714844 146.582031 139.3125 147.164062 139.890625 L 147.164062 147.988281 " fill-opacity="1" fill-rule="nonzero"/><path fill="#e98b1b" d="M 233.609375 131.261719 L 233.609375 122.109375 L 146.394531 122.109375 L 146.394531 131.261719 C 146.394531 139.738281 165.917969 146.609375 190.003906 146.609375 C 214.082031 146.609375 233.609375 139.738281 233.609375 131.261719 " fill-opacity="1" fill-rule="nonzero"/><path fill="#f5c116" d="M 190.003906 136.78125 C 165.917969 136.78125 146.394531 129.914062 146.394531 121.433594 C 146.394531 112.960938 165.917969 106.089844 190.003906 106.089844 C 214.082031 106.089844 233.609375 112.960938 233.609375 121.433594 C 233.609375 129.914062 214.082031 136.78125 190.003906 136.78125 " fill-opacity="1" fill-rule="nonzero"/><path fill="#e98b1b" d="M 192.628906 127.425781 C 194.371094 127.3125 195.796875 127.023438 196.894531 126.570312 C 197.988281 126.117188 198.539062 125.582031 198.539062 124.964844 C 198.539062 124.414062 198.078125 123.941406 197.15625 123.542969 C 196.234375 123.144531 194.730469 122.835938 192.628906 122.621094 L 192.628906 127.425781 M 187.554688 114.324219 C 186.175781 114.488281 185.078125 114.765625 184.261719 115.160156 C 183.445312 115.554688 183.039062 115.988281 183.039062 116.46875 C 183.039062 116.902344 183.410156 117.308594 184.15625 117.679688 C 184.90625 118.050781 186.03125 118.355469 187.554688 118.585938 L 187.554688 114.324219 M 187.554688 127.253906 L 187.554688 122.097656 C 182.980469 121.632812 179.628906 120.9375 177.488281 120.003906 C 175.359375 119.074219 174.289062 117.945312 174.289062 116.613281 C 174.289062 115.265625 175.5 114.132812 177.910156 113.21875 C 180.324219 112.304688 183.539062 111.777344 187.554688 111.640625 L 187.554688 110.421875 L 192.628906 110.421875 L 192.628906 111.640625 C 196.335938 111.792969 199.28125 112.242188 201.476562 112.976562 C 203.671875 113.707031 205.074219 114.691406 205.675781 115.925781 L 196.824219 116.332031 C 196.289062 115.363281 194.886719 114.707031 192.628906 114.363281 L 192.628906 119.175781 C 198.226562 119.710938 202.042969 120.402344 204.066406 121.25 C 206.097656 122.101562 207.109375 123.191406 207.109375 124.519531 C 207.109375 126.007812 205.832031 127.257812 203.285156 128.273438 C 200.722656 129.292969 197.175781 129.917969 192.628906 130.148438 L 192.628906 132.453125 L 187.554688 132.453125 L 187.554688 130.207031 C 183.515625 130.039062 180.238281 129.511719 177.714844 128.621094 C 175.199219 127.730469 173.59375 126.480469 172.890625 124.867188 L 182.023438 124.519531 C 182.398438 125.175781 183.09375 125.742188 184.121094 126.222656 C 185.148438 126.695312 186.289062 127.039062 187.554688 127.253906 " fill-opacity="1" fill-rule="nonzero"/><path fill="#e98b1b" d="M 228.679688 137.410156 L 228.671875 137.390625 L 228.671875 129.105469 C 229.1875 128.757812 229.675781 128.402344 230.117188 128.039062 L 230.117188 136.242188 C 229.679688 136.636719 229.207031 137.027344 228.679688 137.410156 " fill-opacity="1" fill-rule="nonzero"/><path fill="#e98b1b" d="M 226.511719 138.785156 C 226.332031 138.738281 226.207031 138.667969 226.207031 138.585938 L 226.207031 130.570312 C 226.71875 130.300781 227.195312 130.03125 227.65625 129.75 L 227.65625 138.101562 C 227.292969 138.332031 226.90625 138.5625 226.511719 138.785156 " fill-opacity="1" fill-rule="nonzero"/><path fill="#e98b1b" d="M 231.132812 135.214844 L 231.132812 127.117188 C 231.710938 126.535156 232.195312 125.9375 232.574219 125.328125 L 232.574219 132.890625 C 232.265625 133.683594 231.78125 134.464844 231.132812 135.214844 " fill-opacity="1" fill-rule="nonzero"/><path fill="#e98b1b" d="M 224.121094 140 C 223.902344 139.953125 223.75 139.875 223.75 139.78125 L 223.75 131.730469 C 224.253906 131.515625 224.730469 131.296875 225.195312 131.074219 L 225.195312 139.484375 C 224.847656 139.660156 224.492188 139.832031 224.121094 140 " fill-opacity="1" fill-rule="nonzero"/><path fill="#e98b1b" d="M 221.425781 141.121094 C 221.347656 141.078125 221.292969 141.03125 221.292969 140.976562 L 221.292969 132.699219 C 221.785156 132.519531 222.265625 132.335938 222.738281 132.148438 L 222.738281 140.601562 C 222.308594 140.777344 221.875 140.949219 221.425781 141.121094 " fill-opacity="1" fill-rule="nonzero"/><path fill="#e98b1b" d="M 218.828125 142.023438 L 218.828125 133.523438 C 219.320312 133.371094 219.808594 133.214844 220.277344 133.054688 L 220.277344 141.539062 C 219.808594 141.703125 219.324219 141.867188 218.828125 142.023438 " fill-opacity="1" fill-rule="nonzero"/><path fill="#e98b1b" d="M 216.371094 142.746094 L 216.371094 134.234375 C 216.859375 134.105469 217.34375 133.972656 217.816406 133.835938 L 217.816406 142.332031 C 217.34375 142.472656 216.863281 142.609375 216.371094 142.746094 " fill-opacity="1" fill-rule="nonzero"/><path fill="#e98b1b" d="M 213.910156 143.375 L 213.910156 134.847656 C 214.402344 134.734375 214.878906 134.617188 215.359375 134.496094 L 215.359375 143.015625 C 214.878906 143.136719 214.402344 143.257812 213.910156 143.375 " fill-opacity="1" fill-rule="nonzero"/><path fill="#e98b1b" d="M 211.449219 143.910156 L 211.449219 135.378906 C 211.933594 135.277344 212.421875 135.179688 212.894531 135.074219 L 212.894531 143.601562 C 212.421875 143.707031 211.933594 143.808594 211.449219 143.910156 " fill-opacity="1" fill-rule="nonzero"/><path fill="#e98b1b" d="M 208.992188 144.375 L 208.992188 135.832031 C 209.476562 135.75 209.957031 135.664062 210.4375 135.574219 L 210.4375 144.113281 C 209.960938 144.203125 209.476562 144.289062 208.992188 144.375 " fill-opacity="1" fill-rule="nonzero"/><path fill="#e98b1b" d="M 206.53125 144.769531 L 206.53125 136.21875 C 207.015625 136.148438 207.5 136.074219 207.976562 135.996094 L 207.976562 144.542969 C 207.5 144.621094 207.015625 144.699219 206.53125 144.769531 " fill-opacity="1" fill-rule="nonzero"/><path fill="#e98b1b" d="M 173.472656 144.769531 C 172.988281 144.699219 172.503906 144.621094 172.027344 144.542969 L 172.027344 135.996094 C 172.503906 136.074219 172.988281 136.148438 173.472656 136.21875 L 173.472656 144.769531 " fill-opacity="1" fill-rule="nonzero"/><path fill="#e98b1b" d="M 171.011719 144.375 C 170.523438 144.289062 170.042969 144.203125 169.566406 144.113281 L 169.566406 135.574219 C 170.046875 135.664062 170.523438 135.75 171.011719 135.832031 L 171.011719 144.375 " fill-opacity="1" fill-rule="nonzero"/><path fill="#e98b1b" d="M 168.550781 143.910156 C 168.066406 143.808594 167.582031 143.707031 167.105469 143.601562 L 167.105469 135.074219 C 167.582031 135.179688 168.066406 135.277344 168.550781 135.378906 L 168.550781 143.910156 " fill-opacity="1" fill-rule="nonzero"/><path fill="#e98b1b" d="M 166.09375 143.375 C 165.601562 143.257812 165.121094 143.136719 164.644531 143.015625 L 164.644531 134.496094 C 165.121094 134.617188 165.601562 134.734375 166.09375 134.847656 L 166.09375 143.375 " fill-opacity="1" fill-rule="nonzero"/><path fill="#e98b1b" d="M 163.632812 142.746094 C 163.140625 142.609375 162.65625 142.472656 162.1875 142.332031 L 162.1875 133.835938 C 162.65625 133.972656 163.144531 134.105469 163.632812 134.234375 L 163.632812 142.746094 " fill-opacity="1" fill-rule="nonzero"/><path fill="#e98b1b" d="M 185.773438 145.855469 C 185.285156 145.835938 184.808594 145.816406 184.324219 145.792969 L 184.324219 137.230469 C 184.808594 137.25 185.285156 137.269531 185.773438 137.289062 L 185.773438 145.855469 " fill-opacity="1" fill-rule="nonzero"/><path fill="#e98b1b" d="M 183.3125 145.746094 C 182.828125 145.71875 182.347656 145.6875 181.867188 145.652344 L 181.867188 137.089844 C 182.347656 137.125 182.828125 137.15625 183.3125 137.183594 L 183.3125 145.746094 " fill-opacity="1" fill-rule="nonzero"/><path fill="#e98b1b" d="M 188.230469 145.914062 C 187.746094 145.90625 187.265625 145.894531 186.789062 145.882812 L 186.789062 137.316406 C 187.265625 137.328125 187.746094 137.339844 188.230469 137.347656 L 188.230469 145.914062 " fill-opacity="1" fill-rule="nonzero"/><path fill="#e98b1b" d="M 190.003906 145.929688 C 189.746094 145.929688 189.5 145.921875 189.246094 145.921875 L 189.246094 137.355469 C 189.5 137.355469 189.746094 137.363281 190.003906 137.363281 C 190.234375 137.363281 190.460938 137.359375 190.695312 137.355469 L 190.695312 145.921875 C 190.460938 145.921875 190.234375 145.929688 190.003906 145.929688 " fill-opacity="1" fill-rule="nonzero"/><path fill="#e98b1b" d="M 191.707031 145.914062 L 191.707031 137.347656 C 192.1875 137.339844 192.671875 137.332031 193.152344 137.316406 L 193.152344 145.882812 C 192.671875 145.898438 192.1875 145.90625 191.707031 145.914062 " fill-opacity="1" fill-rule="nonzero"/><path fill="#e98b1b" d="M 194.167969 145.855469 L 194.167969 137.292969 C 194.652344 137.273438 195.132812 137.25 195.613281 137.230469 L 195.613281 145.792969 C 195.132812 145.820312 194.652344 145.84375 194.167969 145.855469 " fill-opacity="1" fill-rule="nonzero"/><path fill="#e98b1b" d="M 196.628906 145.75 L 196.628906 137.1875 C 197.117188 137.160156 197.589844 137.125 198.074219 137.09375 L 198.074219 145.660156 C 197.589844 145.6875 197.117188 145.722656 196.628906 145.75 " fill-opacity="1" fill-rule="nonzero"/><path fill="#e98b1b" d="M 199.085938 145.585938 L 199.085938 137.027344 C 199.574219 136.988281 200.054688 136.949219 200.53125 136.910156 L 200.53125 145.472656 C 200.054688 145.511719 199.574219 145.550781 199.085938 145.585938 " fill-opacity="1" fill-rule="nonzero"/><path fill="#e98b1b" d="M 201.546875 145.371094 L 201.546875 136.8125 C 202.03125 136.765625 202.519531 136.722656 202.992188 136.667969 L 202.992188 145.222656 C 202.519531 145.277344 202.03125 145.324219 201.546875 145.371094 " fill-opacity="1" fill-rule="nonzero"/><path fill="#e98b1b" d="M 204.003906 145.101562 L 204.003906 136.546875 C 204.492188 136.488281 204.976562 136.429688 205.453125 136.367188 L 205.453125 144.917969 C 204.976562 144.984375 204.492188 145.042969 204.003906 145.101562 " fill-opacity="1" fill-rule="nonzero"/><path fill="#e98b1b" d="M 180.851562 145.582031 C 180.367188 145.546875 179.882812 145.507812 179.40625 145.464844 L 179.40625 136.90625 C 179.882812 136.945312 180.367188 136.984375 180.851562 137.019531 L 180.851562 145.582031 " fill-opacity="1" fill-rule="nonzero"/><path fill="#e98b1b" d="M 178.394531 145.363281 C 177.90625 145.320312 177.425781 145.269531 176.945312 145.21875 L 176.945312 136.660156 C 177.425781 136.714844 177.90625 136.761719 178.394531 136.808594 L 178.394531 145.363281 " fill-opacity="1" fill-rule="nonzero"/><path fill="#e98b1b" d="M 175.933594 145.09375 C 175.445312 145.035156 174.964844 144.972656 174.488281 144.90625 L 174.488281 136.359375 C 174.964844 136.425781 175.445312 136.484375 175.933594 136.539062 L 175.933594 145.09375 " fill-opacity="1" fill-rule="nonzero"/><path fill="#e98b1b" d="M 161.171875 142.023438 C 160.679688 141.867188 160.195312 141.703125 159.726562 141.539062 L 159.726562 133.054688 C 160.195312 133.214844 160.679688 133.371094 161.171875 133.523438 L 161.171875 142.023438 " fill-opacity="1" fill-rule="nonzero"/><path fill="#e98b1b" d="M 158.578125 141.121094 C 158.128906 140.949219 157.691406 140.777344 157.265625 140.601562 L 157.265625 132.148438 C 157.734375 132.335938 158.21875 132.519531 158.710938 132.699219 L 158.710938 140.976562 C 158.710938 141.03125 158.652344 141.078125 158.578125 141.121094 " fill-opacity="1" fill-rule="nonzero"/><path fill="#e98b1b" d="M 155.878906 140 C 155.507812 139.832031 155.152344 139.660156 154.804688 139.484375 L 154.804688 131.074219 C 155.273438 131.296875 155.753906 131.515625 156.253906 131.730469 L 156.253906 139.78125 C 156.253906 139.875 156.097656 139.953125 155.878906 140 " fill-opacity="1" fill-rule="nonzero"/><path fill="#e98b1b" d="M 153.492188 138.785156 C 153.09375 138.5625 152.710938 138.332031 152.347656 138.101562 L 152.347656 129.75 C 152.804688 130.03125 153.28125 130.300781 153.789062 130.570312 L 153.789062 138.585938 C 153.789062 138.667969 153.667969 138.738281 153.492188 138.785156 " fill-opacity="1" fill-rule="nonzero"/><path fill="#e98b1b" d="M 151.320312 137.410156 C 150.792969 137.027344 150.320312 136.636719 149.882812 136.242188 L 149.882812 128.039062 C 150.328125 128.402344 150.8125 128.757812 151.332031 129.105469 L 151.332031 137.390625 L 151.320312 137.410156 " fill-opacity="1" fill-rule="nonzero"/><path fill="#e98b1b" d="M 148.871094 135.214844 C 148.21875 134.464844 147.738281 133.6875 147.425781 132.890625 L 147.425781 125.800781 C 147.621094 125.929688 147.824219 126.054688 148.027344 126.179688 C 148.28125 126.496094 148.5625 126.808594 148.871094 127.117188 L 148.871094 135.214844 " fill-opacity="1" fill-rule="nonzero"/><path fill="#e98b1b" d="M 229.378906 118.488281 L 229.378906 109.335938 L 142.164062 109.335938 L 142.164062 118.488281 C 142.164062 126.964844 161.691406 133.835938 185.773438 133.835938 C 209.855469 133.835938 229.378906 126.964844 229.378906 118.488281 " fill-opacity="1" fill-rule="nonzero"/><path fill="#f5c116" d="M 185.773438 124.007812 C 161.691406 124.007812 142.164062 117.136719 142.164062 108.660156 C 142.164062 100.183594 161.691406 93.3125 185.773438 93.3125 C 209.855469 93.3125 229.378906 100.183594 229.378906 108.660156 C 229.378906 117.136719 209.855469 124.007812 185.773438 124.007812 " fill-opacity="1" fill-rule="nonzero"/><path fill="#e98b1b" d="M 188.398438 114.652344 C 190.144531 114.535156 191.566406 114.253906 192.667969 113.796875 C 193.761719 113.339844 194.308594 112.804688 194.308594 112.1875 C 194.308594 111.640625 193.847656 111.164062 192.929688 110.769531 C 192.003906 110.371094 190.5 110.058594 188.398438 109.847656 L 188.398438 114.652344 M 183.324219 101.550781 C 181.945312 101.714844 180.847656 101.992188 180.035156 102.386719 C 179.21875 102.78125 178.808594 103.214844 178.808594 103.691406 C 178.808594 104.128906 179.183594 104.53125 179.929688 104.902344 C 180.675781 105.277344 181.804688 105.582031 183.324219 105.808594 L 183.324219 101.550781 M 183.324219 114.480469 L 183.324219 109.320312 C 178.75 108.859375 175.398438 108.164062 173.261719 107.230469 C 171.128906 106.300781 170.0625 105.171875 170.0625 103.839844 C 170.0625 102.492188 171.269531 101.359375 173.683594 100.445312 C 176.09375 99.53125 179.308594 99.003906 183.324219 98.863281 L 183.324219 97.644531 L 188.398438 97.644531 L 188.398438 98.863281 C 192.105469 99.019531 195.050781 99.464844 197.25 100.199219 C 199.445312 100.933594 200.84375 101.917969 201.445312 103.148438 L 192.59375 103.558594 C 192.058594 102.585938 190.65625 101.929688 188.398438 101.585938 L 188.398438 106.402344 C 193.996094 106.933594 197.8125 107.625 199.839844 108.472656 C 201.867188 109.324219 202.882812 110.414062 202.882812 111.746094 C 202.882812 113.234375 201.605469 114.480469 199.054688 115.5 C 196.496094 116.519531 192.945312 117.140625 188.398438 117.375 L 188.398438 119.675781 L 183.324219 119.675781 L 183.324219 117.4375 C 179.289062 117.261719 176.007812 116.734375 173.488281 115.847656 C 170.96875 114.960938 169.363281 113.707031 168.660156 112.089844 L 177.792969 111.746094 C 178.167969 112.402344 178.867188 112.964844 179.894531 113.445312 C 180.917969 113.917969 182.0625 114.265625 183.324219 114.480469 " fill-opacity="1" fill-rule="nonzero"/><path fill="#e98b1b" d="M 224.453125 124.632812 L 224.441406 124.617188 L 224.441406 116.332031 C 224.957031 115.980469 225.445312 115.625 225.886719 115.261719 L 225.886719 123.464844 C 225.453125 123.863281 224.980469 124.253906 224.453125 124.632812 " fill-opacity="1" fill-rule="nonzero"/><path fill="#e98b1b" d="M 222.28125 126.011719 C 222.105469 125.964844 221.980469 125.894531 221.980469 125.8125 L 221.980469 117.792969 C 222.492188 117.527344 222.96875 117.253906 223.429688 116.976562 L 223.429688 125.324219 C 223.0625 125.558594 222.675781 125.789062 222.28125 126.011719 " fill-opacity="1" fill-rule="nonzero"/><path fill="#e98b1b" d="M 226.902344 122.4375 L 226.902344 114.34375 C 227.484375 113.757812 227.964844 113.164062 228.347656 112.554688 L 228.347656 120.117188 C 228.035156 120.910156 227.554688 121.6875 226.902344 122.4375 " fill-opacity="1" fill-rule="nonzero"/><path fill="#e98b1b" d="M 219.890625 127.222656 C 219.675781 127.179688 219.519531 127.101562 219.519531 127.007812 L 219.519531 118.957031 C 220.019531 118.742188 220.5 118.523438 220.964844 118.296875 L 220.964844 126.710938 C 220.617188 126.882812 220.261719 127.054688 219.890625 127.222656 " fill-opacity="1" fill-rule="nonzero"/><path fill="#e98b1b" d="M 217.195312 128.34375 C 217.117188 128.300781 217.058594 128.253906 217.058594 128.203125 L 217.058594 119.925781 C 217.558594 119.746094 218.039062 119.5625 218.507812 119.375 L 218.507812 127.828125 C 218.082031 128.003906 217.644531 128.175781 217.195312 128.34375 " fill-opacity="1" fill-rule="nonzero"/><path fill="#e98b1b" d="M 214.601562 129.246094 L 214.601562 120.75 C 215.09375 120.597656 215.574219 120.441406 216.046875 120.277344 L 216.046875 128.765625 C 215.574219 128.929688 215.09375 129.089844 214.601562 129.246094 " fill-opacity="1" fill-rule="nonzero"/><path fill="#e98b1b" d="M 212.140625 129.96875 L 212.140625 121.460938 C 212.628906 121.332031 213.117188 121.199219 213.589844 121.058594 L 213.589844 129.554688 C 213.113281 129.699219 212.632812 129.832031 212.140625 129.96875 " fill-opacity="1" fill-rule="nonzero"/><path fill="#e98b1b" d="M 209.679688 130.597656 L 209.679688 122.074219 C 210.171875 121.960938 210.648438 121.839844 211.125 121.722656 L 211.125 130.238281 C 210.648438 130.363281 210.171875 130.484375 209.679688 130.597656 " fill-opacity="1" fill-rule="nonzero"/><path fill="#e98b1b" d="M 207.222656 131.132812 L 207.222656 122.601562 C 207.707031 122.503906 208.191406 122.40625 208.667969 122.300781 L 208.667969 130.828125 C 208.191406 130.933594 207.707031 131.039062 207.222656 131.132812 " fill-opacity="1" fill-rule="nonzero"/><path fill="#e98b1b" d="M 204.761719 131.601562 L 204.761719 123.058594 C 205.25 122.976562 205.730469 122.886719 206.207031 122.796875 L 206.207031 131.339844 C 205.734375 131.429688 205.246094 131.515625 204.761719 131.601562 " fill-opacity="1" fill-rule="nonzero"/><path fill="#e98b1b" d="M 202.300781 131.992188 L 202.300781 123.441406 C 202.785156 123.375 203.269531 123.296875 203.746094 123.222656 L 203.746094 131.769531 C 203.269531 131.847656 202.785156 131.921875 202.300781 131.992188 " fill-opacity="1" fill-rule="nonzero"/><path fill="#e98b1b" d="M 169.246094 131.992188 C 168.757812 131.921875 168.273438 131.847656 167.800781 131.769531 L 167.800781 123.222656 C 168.273438 123.296875 168.757812 123.375 169.246094 123.441406 L 169.246094 131.992188 " fill-opacity="1" fill-rule="nonzero"/><path fill="#e98b1b" d="M 166.78125 131.601562 C 166.296875 131.515625 165.8125 131.429688 165.335938 131.339844 L 165.335938 122.796875 C 165.8125 122.886719 166.296875 122.976562 166.78125 123.058594 L 166.78125 131.601562 " fill-opacity="1" fill-rule="nonzero"/><path fill="#e98b1b" d="M 164.324219 131.132812 C 163.835938 131.039062 163.355469 130.933594 162.878906 130.828125 L 162.878906 122.300781 C 163.355469 122.40625 163.835938 122.503906 164.324219 122.601562 L 164.324219 131.132812 " fill-opacity="1" fill-rule="nonzero"/><path fill="#e98b1b" d="M 161.863281 130.597656 C 161.371094 130.484375 160.890625 130.363281 160.417969 130.238281 L 160.417969 121.722656 C 160.890625 121.839844 161.371094 121.960938 161.863281 122.074219 L 161.863281 130.597656 " fill-opacity="1" fill-rule="nonzero"/><path fill="#e98b1b" d="M 159.40625 129.96875 C 158.914062 129.832031 158.429688 129.699219 157.957031 129.554688 L 157.957031 121.058594 C 158.429688 121.199219 158.914062 121.332031 159.40625 121.460938 L 159.40625 129.96875 " fill-opacity="1" fill-rule="nonzero"/><path fill="#e98b1b" d="M 181.542969 133.082031 C 181.058594 133.0625 180.578125 133.042969 180.097656 133.019531 L 180.097656 124.453125 C 180.578125 124.476562 181.058594 124.496094 181.542969 124.515625 L 181.542969 133.082031 " fill-opacity="1" fill-rule="nonzero"/><path fill="#e98b1b" d="M 179.085938 132.972656 C 178.597656 132.945312 178.117188 132.914062 177.636719 132.882812 L 177.636719 124.316406 C 178.117188 124.347656 178.597656 124.378906 179.085938 124.40625 L 179.085938 132.972656 " fill-opacity="1" fill-rule="nonzero"/><path fill="#e98b1b" d="M 184.003906 133.140625 C 183.519531 133.132812 183.039062 133.117188 182.558594 133.109375 L 182.558594 124.539062 C 183.039062 124.554688 183.519531 124.5625 184.003906 124.570312 L 184.003906 133.140625 " fill-opacity="1" fill-rule="nonzero"/><path fill="#e98b1b" d="M 185.773438 133.152344 C 185.519531 133.152344 185.269531 133.148438 185.019531 133.148438 L 185.019531 124.578125 C 185.269531 124.582031 185.519531 124.589844 185.773438 124.589844 C 186.003906 124.589844 186.234375 124.582031 186.464844 124.582031 L 186.464844 133.148438 C 186.234375 133.148438 186.003906 133.152344 185.773438 133.152344 " fill-opacity="1" fill-rule="nonzero"/><path fill="#e98b1b" d="M 187.480469 133.140625 L 187.480469 124.570312 C 187.960938 124.566406 188.441406 124.558594 188.925781 124.542969 L 188.925781 133.109375 C 188.441406 133.121094 187.960938 133.132812 187.480469 133.140625 " fill-opacity="1" fill-rule="nonzero"/><path fill="#e98b1b" d="M 189.9375 133.082031 L 189.9375 124.515625 C 190.421875 124.5 190.902344 124.476562 191.386719 124.457031 L 191.386719 133.019531 C 190.902344 133.042969 190.421875 133.066406 189.9375 133.082031 " fill-opacity="1" fill-rule="nonzero"/><path fill="#e98b1b" d="M 192.398438 132.972656 L 192.398438 124.410156 C 192.882812 124.386719 193.363281 124.351562 193.84375 124.320312 L 193.84375 132.882812 C 193.363281 132.914062 192.882812 132.949219 192.398438 132.972656 " fill-opacity="1" fill-rule="nonzero"/><path fill="#e98b1b" d="M 194.855469 132.8125 L 194.855469 124.25 C 195.34375 124.214844 195.824219 124.175781 196.304688 124.132812 L 196.304688 132.695312 C 195.828125 132.738281 195.34375 132.777344 194.855469 132.8125 " fill-opacity="1" fill-rule="nonzero"/><path fill="#e98b1b" d="M 197.316406 132.597656 L 197.316406 124.039062 C 197.800781 123.992188 198.289062 123.945312 198.761719 123.894531 L 198.761719 132.449219 C 198.289062 132.503906 197.800781 132.550781 197.316406 132.597656 " fill-opacity="1" fill-rule="nonzero"/><path fill="#e98b1b" d="M 199.777344 132.328125 L 199.777344 123.773438 C 200.265625 123.714844 200.746094 123.65625 201.222656 123.589844 L 201.222656 132.144531 C 200.746094 132.210938 200.265625 132.269531 199.777344 132.328125 " fill-opacity="1" fill-rule="nonzero"/><path fill="#e98b1b" d="M 176.625 132.808594 C 176.140625 132.769531 175.65625 132.734375 175.175781 132.6875 L 175.175781 124.128906 C 175.65625 124.171875 176.140625 124.210938 176.625 124.246094 L 176.625 132.808594 " fill-opacity="1" fill-rule="nonzero"/><path fill="#e98b1b" d="M 174.164062 132.589844 C 173.679688 132.546875 173.195312 132.496094 172.71875 132.441406 L 172.71875 123.886719 C 173.195312 123.941406 173.679688 123.984375 174.164062 124.03125 L 174.164062 132.589844 " fill-opacity="1" fill-rule="nonzero"/><path fill="#e98b1b" d="M 171.703125 132.320312 C 171.21875 132.261719 170.734375 132.195312 170.257812 132.132812 L 170.257812 123.582031 C 170.734375 123.648438 171.21875 123.710938 171.703125 123.765625 L 171.703125 132.320312 " fill-opacity="1" fill-rule="nonzero"/><path fill="#e98b1b" d="M 156.941406 129.246094 C 156.449219 129.089844 155.96875 128.929688 155.496094 128.765625 L 155.496094 120.277344 C 155.96875 120.441406 156.453125 120.597656 156.941406 120.75 L 156.941406 129.246094 " fill-opacity="1" fill-rule="nonzero"/><path fill="#e98b1b" d="M 154.347656 128.34375 C 153.898438 128.175781 153.460938 128.003906 153.039062 127.828125 L 153.039062 119.375 C 153.507812 119.5625 153.988281 119.746094 154.484375 119.925781 L 154.484375 128.203125 C 154.484375 128.253906 154.425781 128.300781 154.347656 128.34375 " fill-opacity="1" fill-rule="nonzero"/><path fill="#e98b1b" d="M 151.652344 127.222656 C 151.28125 127.054688 150.925781 126.882812 150.578125 126.710938 L 150.578125 118.296875 C 151.042969 118.523438 151.523438 118.742188 152.023438 118.957031 L 152.023438 127.007812 C 152.023438 127.101562 151.867188 127.179688 151.652344 127.222656 " fill-opacity="1" fill-rule="nonzero"/><path fill="#e98b1b" d="M 149.261719 126.011719 C 148.863281 125.789062 148.480469 125.558594 148.117188 125.324219 L 148.117188 116.976562 C 148.578125 117.253906 149.050781 117.527344 149.5625 117.792969 L 149.5625 125.8125 C 149.5625 125.894531 149.4375 125.964844 149.261719 126.011719 " fill-opacity="1" fill-rule="nonzero"/><path fill="#e98b1b" d="M 147.09375 124.632812 C 146.566406 124.253906 146.089844 123.863281 145.65625 123.464844 L 145.65625 115.261719 C 146.097656 115.625 146.585938 115.980469 147.101562 116.332031 L 147.101562 124.617188 L 147.09375 124.632812 " fill-opacity="1" fill-rule="nonzero"/><path fill="#e98b1b" d="M 144.640625 122.4375 C 143.992188 121.6875 143.511719 120.910156 143.199219 120.117188 L 143.199219 112.554688 C 143.578125 113.164062 144.0625 113.757812 144.640625 114.34375 L 144.640625 122.4375 " fill-opacity="1" fill-rule="nonzero"/><path fill="#e98b1b" d="M 235.316406 102.554688 L 235.316406 93.40625 L 148.101562 93.40625 L 148.101562 102.554688 C 148.101562 111.035156 167.625 117.90625 191.707031 117.90625 C 215.789062 117.90625 235.316406 111.035156 235.316406 102.554688 " fill-opacity="1" fill-rule="nonzero"/><path fill="#f5c116" d="M 191.707031 108.078125 C 167.625 108.078125 148.101562 101.207031 148.101562 92.734375 C 148.101562 84.253906 167.625 77.386719 191.707031 77.386719 C 215.789062 77.386719 235.316406 84.253906 235.316406 92.734375 C 235.316406 101.207031 215.789062 108.078125 191.707031 108.078125 " fill-opacity="1" fill-rule="nonzero"/><path fill="#e98b1b" d="M 194.332031 98.722656 C 196.078125 98.605469 197.503906 98.324219 198.601562 97.867188 C 199.699219 97.410156 200.246094 96.871094 200.246094 96.257812 C 200.246094 95.710938 199.789062 95.234375 198.863281 94.835938 C 197.941406 94.441406 196.4375 94.128906 194.332031 93.917969 L 194.332031 98.722656 M 189.257812 85.621094 C 187.882812 85.78125 186.785156 86.0625 185.96875 86.453125 C 185.152344 86.851562 184.746094 87.289062 184.746094 87.761719 C 184.746094 88.199219 185.117188 88.601562 185.863281 88.976562 C 186.613281 89.347656 187.742188 89.652344 189.257812 89.878906 L 189.257812 85.621094 M 189.257812 98.550781 L 189.257812 93.390625 C 184.683594 92.929688 181.335938 92.234375 179.195312 91.300781 C 177.066406 90.371094 175.996094 89.242188 175.996094 87.910156 C 175.996094 86.5625 177.207031 85.433594 179.617188 84.515625 C 182.03125 83.601562 185.246094 83.074219 189.257812 82.933594 L 189.257812 81.714844 L 194.332031 81.714844 L 194.332031 82.933594 C 198.042969 83.089844 200.988281 83.539062 203.183594 84.273438 C 205.378906 85.003906 206.78125 85.988281 207.382812 87.222656 L 198.53125 87.625 C 197.996094 86.65625 196.59375 86.003906 194.332031 85.65625 L 194.332031 90.472656 C 199.933594 91.003906 203.746094 91.699219 205.777344 92.546875 C 207.804688 93.398438 208.820312 94.488281 208.820312 95.816406 C 208.820312 97.304688 207.539062 98.550781 204.992188 99.570312 C 202.433594 100.59375 198.882812 101.214844 194.332031 101.445312 L 194.332031 103.746094 L 189.257812 103.746094 L 189.257812 101.507812 C 185.222656 101.332031 181.945312 100.804688 179.421875 99.917969 C 176.90625 99.03125 175.296875 97.78125 174.597656 96.160156 L 183.730469 95.816406 C 184.105469 96.472656 184.800781 97.039062 185.828125 97.515625 C 186.855469 97.988281 188 98.339844 189.257812 98.550781 " fill-opacity="1" fill-rule="nonzero"/><path fill="#e98b1b" d="M 230.386719 108.703125 L 230.375 108.683594 L 230.375 100.402344 C 230.894531 100.050781 231.382812 99.699219 231.824219 99.335938 L 231.824219 107.535156 C 231.386719 107.933594 230.914062 108.324219 230.386719 108.703125 " fill-opacity="1" fill-rule="nonzero"/><path fill="#e98b1b" d="M 228.21875 110.082031 C 228.042969 110.035156 227.917969 109.964844 227.917969 109.882812 L 227.917969 101.863281 C 228.425781 101.597656 228.902344 101.324219 229.363281 101.046875 L 229.363281 109.394531 C 229 109.628906 228.617188 109.859375 228.21875 110.082031 " fill-opacity="1" fill-rule="nonzero"/><path fill="#e98b1b" d="M 232.839844 106.507812 L 232.839844 98.410156 C 233.417969 97.828125 233.902344 97.234375 234.28125 96.625 L 234.28125 104.1875 C 233.96875 104.984375 233.488281 105.757812 232.839844 106.507812 " fill-opacity="1" fill-rule="nonzero"/><path fill="#e98b1b" d="M 225.828125 111.296875 C 225.613281 111.25 225.457031 111.171875 225.457031 111.078125 L 225.457031 103.03125 C 225.957031 102.8125 226.4375 102.589844 226.90625 102.367188 L 226.90625 110.78125 C 226.554688 110.953125 226.195312 111.125 225.828125 111.296875 " fill-opacity="1" fill-rule="nonzero"/><path fill="#e98b1b" d="M 223.132812 112.414062 C 223.050781 112.375 222.996094 112.328125 222.996094 112.273438 L 222.996094 103.996094 C 223.492188 103.816406 223.972656 103.632812 224.441406 103.445312 L 224.441406 111.898438 C 224.015625 112.074219 223.582031 112.246094 223.132812 112.414062 " fill-opacity="1" fill-rule="nonzero"/><path fill="#e98b1b" d="M 220.539062 113.316406 L 220.539062 104.820312 C 221.027344 104.667969 221.511719 104.507812 221.984375 104.347656 L 221.984375 112.835938 C 221.511719 113 221.027344 113.160156 220.539062 113.316406 " fill-opacity="1" fill-rule="nonzero"/><path fill="#e98b1b" d="M 218.074219 114.039062 L 218.074219 105.535156 C 218.566406 105.402344 219.050781 105.269531 219.519531 105.128906 L 219.519531 113.628906 C 219.046875 113.769531 218.570312 113.902344 218.074219 114.039062 " fill-opacity="1" fill-rule="nonzero"/><path fill="#e98b1b" d="M 215.613281 114.671875 L 215.613281 106.144531 C 216.105469 106.03125 216.585938 105.910156 217.0625 105.792969 L 217.0625 114.308594 C 216.585938 114.433594 216.105469 114.554688 215.613281 114.671875 " fill-opacity="1" fill-rule="nonzero"/><path fill="#e98b1b" d="M 213.15625 115.203125 L 213.15625 106.671875 C 213.644531 106.574219 214.125 106.476562 214.601562 106.371094 L 214.601562 114.898438 C 214.125 115.007812 213.644531 115.105469 213.15625 115.203125 " fill-opacity="1" fill-rule="nonzero"/><path fill="#e98b1b" d="M 210.699219 115.667969 L 210.699219 107.132812 C 211.183594 107.042969 211.664062 106.957031 212.144531 106.867188 L 212.144531 115.410156 C 211.667969 115.5 211.179688 115.585938 210.699219 115.667969 " fill-opacity="1" fill-rule="nonzero"/><path fill="#e98b1b" d="M 208.234375 116.066406 L 208.234375 107.511719 C 208.722656 107.441406 209.203125 107.371094 209.683594 107.292969 L 209.683594 115.839844 C 209.203125 115.914062 208.722656 115.988281 208.234375 116.066406 " fill-opacity="1" fill-rule="nonzero"/><path fill="#e98b1b" d="M 175.179688 116.066406 C 174.691406 115.988281 174.210938 115.914062 173.730469 115.839844 L 173.730469 107.292969 C 174.210938 107.371094 174.691406 107.441406 175.179688 107.511719 L 175.179688 116.066406 " fill-opacity="1" fill-rule="nonzero"/><path fill="#e98b1b" d="M 172.71875 115.667969 C 172.234375 115.585938 171.75 115.5 171.273438 115.410156 L 171.273438 106.867188 C 171.753906 106.957031 172.230469 107.042969 172.71875 107.132812 L 172.71875 115.667969 " fill-opacity="1" fill-rule="nonzero"/><path fill="#e98b1b" d="M 170.257812 115.203125 C 169.769531 115.105469 169.289062 115.007812 168.8125 114.898438 L 168.8125 106.371094 C 169.289062 106.476562 169.769531 106.574219 170.257812 106.671875 L 170.257812 115.203125 " fill-opacity="1" fill-rule="nonzero"/><path fill="#e98b1b" d="M 167.800781 114.671875 C 167.308594 114.554688 166.828125 114.433594 166.351562 114.308594 L 166.351562 105.792969 C 166.828125 105.910156 167.308594 106.03125 167.800781 106.144531 L 167.800781 114.671875 " fill-opacity="1" fill-rule="nonzero"/><path fill="#e98b1b" d="M 165.339844 114.039062 C 164.847656 113.902344 164.367188 113.769531 163.894531 113.628906 L 163.894531 105.128906 C 164.363281 105.269531 164.847656 105.402344 165.339844 105.535156 L 165.339844 114.039062 " fill-opacity="1" fill-rule="nonzero"/><path fill="#e98b1b" d="M 187.480469 117.152344 C 186.992188 117.132812 186.515625 117.113281 186.03125 117.089844 L 186.03125 108.527344 C 186.515625 108.546875 186.992188 108.566406 187.480469 108.585938 L 187.480469 117.152344 " fill-opacity="1" fill-rule="nonzero"/><path fill="#e98b1b" d="M 185.019531 117.039062 C 184.535156 117.015625 184.050781 116.984375 183.574219 116.949219 L 183.574219 108.390625 C 184.050781 108.417969 184.535156 108.453125 185.019531 108.480469 L 185.019531 117.039062 " fill-opacity="1" fill-rule="nonzero"/><path fill="#e98b1b" d="M 189.941406 117.210938 C 189.453125 117.203125 188.972656 117.191406 188.496094 117.175781 L 188.496094 108.613281 C 188.972656 108.625 189.453125 108.632812 189.941406 108.640625 L 189.941406 117.210938 " fill-opacity="1" fill-rule="nonzero"/><path fill="#e98b1b" d="M 191.707031 117.226562 C 191.457031 117.226562 191.207031 117.21875 190.953125 117.21875 L 190.953125 108.648438 C 191.207031 108.652344 191.457031 108.65625 191.707031 108.65625 C 191.941406 108.65625 192.167969 108.65625 192.398438 108.652344 L 192.398438 117.21875 C 192.167969 117.21875 191.941406 117.226562 191.707031 117.226562 " fill-opacity="1" fill-rule="nonzero"/><path fill="#e98b1b" d="M 193.417969 117.210938 L 193.417969 108.640625 C 193.898438 108.636719 194.378906 108.625 194.863281 108.617188 L 194.863281 117.179688 C 194.378906 117.191406 193.898438 117.203125 193.417969 117.210938 " fill-opacity="1" fill-rule="nonzero"/><path fill="#e98b1b" d="M 195.875 117.152344 L 195.875 108.585938 C 196.359375 108.570312 196.839844 108.550781 197.316406 108.527344 L 197.316406 117.09375 C 196.839844 117.113281 196.359375 117.136719 195.875 117.152344 " fill-opacity="1" fill-rule="nonzero"/><path fill="#e98b1b" d="M 198.335938 117.042969 L 198.335938 108.480469 C 198.820312 108.457031 199.300781 108.421875 199.78125 108.390625 L 199.78125 116.953125 C 199.300781 116.988281 198.820312 117.019531 198.335938 117.042969 " fill-opacity="1" fill-rule="nonzero"/><path fill="#e98b1b" d="M 200.792969 116.882812 L 200.792969 108.320312 C 201.277344 108.285156 201.757812 108.246094 202.238281 108.203125 L 202.238281 116.765625 C 201.761719 116.808594 201.277344 116.84375 200.792969 116.882812 " fill-opacity="1" fill-rule="nonzero"/><path fill="#e98b1b" d="M 203.253906 116.667969 L 203.253906 108.109375 C 203.738281 108.0625 204.226562 108.015625 204.699219 107.964844 L 204.699219 116.519531 C 204.226562 116.570312 203.738281 116.621094 203.253906 116.667969 " fill-opacity="1" fill-rule="nonzero"/><path fill="#e98b1b" d="M 205.714844 116.398438 L 205.714844 107.84375 C 206.199219 107.785156 206.683594 107.726562 207.160156 107.664062 L 207.160156 116.214844 C 206.683594 116.277344 206.199219 116.339844 205.714844 116.398438 " fill-opacity="1" fill-rule="nonzero"/><path fill="#e98b1b" d="M 182.558594 116.878906 C 182.074219 116.839844 181.59375 116.804688 181.113281 116.761719 L 181.113281 108.199219 C 181.59375 108.242188 182.074219 108.277344 182.558594 108.316406 L 182.558594 116.878906 " fill-opacity="1" fill-rule="nonzero"/><path fill="#e98b1b" d="M 180.101562 116.660156 C 179.613281 116.613281 179.128906 116.566406 178.65625 116.511719 L 178.65625 107.957031 C 179.128906 108.011719 179.613281 108.054688 180.101562 108.101562 L 180.101562 116.660156 " fill-opacity="1" fill-rule="nonzero"/><path fill="#e98b1b" d="M 177.636719 116.390625 C 177.152344 116.332031 176.671875 116.269531 176.191406 116.203125 L 176.191406 107.65625 C 176.671875 107.71875 177.152344 107.777344 177.636719 107.835938 L 177.636719 116.390625 " fill-opacity="1" fill-rule="nonzero"/><path fill="#e98b1b" d="M 162.878906 113.316406 C 162.386719 113.160156 161.902344 113 161.433594 112.835938 L 161.433594 104.347656 C 161.902344 104.507812 162.386719 104.667969 162.878906 104.820312 L 162.878906 113.316406 " fill-opacity="1" fill-rule="nonzero"/><path fill="#e98b1b" d="M 160.285156 112.414062 C 159.835938 112.246094 159.398438 112.074219 158.972656 111.898438 L 158.972656 103.445312 C 159.441406 103.632812 159.925781 103.816406 160.417969 103.996094 L 160.417969 112.273438 C 160.417969 112.328125 160.359375 112.375 160.285156 112.414062 " fill-opacity="1" fill-rule="nonzero"/><path fill="#e98b1b" d="M 157.589844 111.296875 C 157.21875 111.125 156.863281 110.953125 156.511719 110.78125 L 156.511719 102.367188 C 156.976562 102.589844 157.460938 102.8125 157.957031 103.03125 L 157.957031 111.078125 C 157.957031 111.171875 157.804688 111.25 157.589844 111.296875 " fill-opacity="1" fill-rule="nonzero"/><path fill="#e98b1b" d="M 155.195312 110.082031 C 154.800781 109.859375 154.414062 109.628906 154.050781 109.394531 L 154.050781 101.046875 C 154.511719 101.324219 154.992188 101.597656 155.5 101.863281 L 155.5 109.882812 C 155.5 109.964844 155.375 110.035156 155.195312 110.082031 " fill-opacity="1" fill-rule="nonzero"/><path fill="#e98b1b" d="M 153.027344 108.703125 C 152.5 108.324219 152.027344 107.933594 151.589844 107.535156 L 151.589844 99.335938 C 152.03125 99.699219 152.523438 100.050781 153.039062 100.402344 L 153.039062 108.683594 L 153.027344 108.703125 " fill-opacity="1" fill-rule="nonzero"/><path fill="#e98b1b" d="M 150.578125 106.507812 C 149.925781 105.757812 149.445312 104.984375 149.128906 104.1875 L 149.128906 98.21875 C 149.597656 98.425781 150.082031 98.628906 150.578125 98.824219 L 150.578125 106.507812 " fill-opacity="1" fill-rule="nonzero"/><g clip-path="url(#49186f1443)"><path fill="#e98b1b" d="M 226.890625 88.671875 L 226.890625 79.519531 L 139.675781 79.519531 L 139.675781 88.671875 C 139.675781 97.152344 159.199219 104.019531 183.28125 104.019531 C 207.367188 104.019531 226.890625 97.152344 226.890625 88.671875 " fill-opacity="1" fill-rule="nonzero"/></g><g clip-path="url(#f10a470f94)"><path fill="#f5c116" d="M 183.28125 94.191406 C 159.199219 94.191406 139.675781 87.324219 139.675781 78.847656 C 139.675781 70.367188 159.199219 63.5 183.28125 63.5 C 207.367188 63.5 226.890625 70.367188 226.890625 78.847656 C 226.890625 87.324219 207.367188 94.191406 183.28125 94.191406 " fill-opacity="1" fill-rule="nonzero"/></g><path fill="#e98b1b" d="M 185.90625 84.839844 C 187.652344 84.722656 189.078125 84.4375 190.175781 83.980469 C 191.269531 83.527344 191.820312 82.988281 191.820312 82.375 C 191.820312 81.824219 191.359375 81.351562 190.4375 80.953125 C 189.515625 80.554688 188.011719 80.246094 185.90625 80.035156 L 185.90625 84.839844 M 180.832031 71.734375 C 179.457031 71.898438 178.359375 72.175781 177.542969 72.570312 C 176.726562 72.96875 176.320312 73.398438 176.320312 73.878906 C 176.320312 74.3125 176.691406 74.714844 177.4375 75.089844 C 178.183594 75.460938 179.3125 75.765625 180.832031 75.996094 L 180.832031 71.734375 M 180.832031 84.664062 L 180.832031 79.503906 C 176.261719 79.046875 172.910156 78.351562 170.773438 77.417969 C 168.640625 76.488281 167.570312 75.355469 167.570312 74.027344 C 167.570312 72.675781 168.777344 71.546875 171.191406 70.632812 C 173.605469 69.714844 176.820312 69.191406 180.832031 69.050781 L 180.832031 67.832031 L 185.90625 67.832031 L 185.90625 69.050781 C 189.613281 69.203125 192.5625 69.652344 194.757812 70.386719 C 196.957031 71.121094 198.351562 72.101562 198.957031 73.335938 L 190.105469 73.742188 C 189.566406 72.773438 188.164062 72.117188 185.90625 71.773438 L 185.90625 76.585938 C 191.503906 77.117188 195.324219 77.8125 197.347656 78.664062 C 199.378906 79.511719 200.394531 80.601562 200.394531 81.929688 C 200.394531 83.417969 199.113281 84.671875 196.566406 85.6875 C 194.003906 86.707031 190.453125 87.328125 185.90625 87.5625 L 185.90625 89.863281 L 180.832031 89.863281 L 180.832031 87.621094 C 176.796875 87.449219 173.515625 86.917969 170.996094 86.03125 C 168.480469 85.144531 166.871094 83.894531 166.171875 82.277344 L 175.304688 81.929688 C 175.679688 82.585938 176.375 83.152344 177.402344 83.632812 C 178.429688 84.105469 179.570312 84.453125 180.832031 84.664062 " fill-opacity="1" fill-rule="nonzero"/><path fill="#e98b1b" d="M 221.960938 94.820312 L 221.949219 94.800781 L 221.949219 86.519531 C 222.46875 86.167969 222.953125 85.8125 223.394531 85.449219 L 223.394531 93.648438 C 222.960938 94.050781 222.488281 94.441406 221.960938 94.820312 " fill-opacity="1" fill-rule="nonzero"/><path fill="#e98b1b" d="M 219.792969 96.195312 C 219.613281 96.148438 219.492188 96.078125 219.492188 95.996094 L 219.492188 87.976562 C 220 87.714844 220.476562 87.4375 220.933594 87.160156 L 220.933594 95.511719 C 220.574219 95.746094 220.1875 95.972656 219.792969 96.195312 " fill-opacity="1" fill-rule="nonzero"/><path fill="#e98b1b" d="M 224.414062 92.625 L 224.414062 84.527344 C 224.699219 84.242188 224.960938 83.953125 225.199219 83.660156 C 225.425781 83.488281 225.648438 83.316406 225.859375 83.140625 L 225.859375 90.304688 C 225.542969 91.097656 225.0625 91.875 224.414062 92.625 " fill-opacity="1" fill-rule="nonzero"/><path fill="#e98b1b" d="M 217.398438 97.410156 C 217.183594 97.363281 217.03125 97.289062 217.03125 97.195312 L 217.03125 89.144531 C 217.53125 88.929688 218.011719 88.707031 218.476562 88.484375 L 218.476562 96.894531 C 218.128906 97.070312 217.769531 97.242188 217.398438 97.410156 " fill-opacity="1" fill-rule="nonzero"/><path fill="#e98b1b" d="M 214.707031 98.53125 C 214.628906 98.488281 214.570312 98.441406 214.570312 98.390625 L 214.570312 90.109375 C 215.066406 89.933594 215.546875 89.746094 216.015625 89.5625 L 216.015625 98.011719 C 215.589844 98.191406 215.152344 98.363281 214.707031 98.53125 " fill-opacity="1" fill-rule="nonzero"/><path fill="#e98b1b" d="M 212.109375 99.433594 L 212.109375 90.933594 C 212.601562 90.785156 213.085938 90.628906 213.558594 90.464844 L 213.558594 98.953125 C 213.085938 99.117188 212.605469 99.277344 212.109375 99.433594 " fill-opacity="1" fill-rule="nonzero"/><path fill="#e98b1b" d="M 209.652344 100.152344 L 209.652344 91.648438 C 210.140625 91.515625 210.625 91.382812 211.097656 91.246094 L 211.097656 99.742188 C 210.621094 99.882812 210.140625 100.019531 209.652344 100.152344 " fill-opacity="1" fill-rule="nonzero"/><path fill="#e98b1b" d="M 207.1875 100.785156 L 207.1875 92.257812 C 207.679688 92.148438 208.160156 92.027344 208.640625 91.910156 L 208.640625 100.425781 C 208.160156 100.546875 207.679688 100.667969 207.1875 100.785156 " fill-opacity="1" fill-rule="nonzero"/><path fill="#e98b1b" d="M 204.730469 101.320312 L 204.730469 92.789062 C 205.21875 92.691406 205.699219 92.589844 206.175781 92.488281 L 206.175781 101.011719 C 205.699219 101.117188 205.21875 101.222656 204.730469 101.320312 " fill-opacity="1" fill-rule="nonzero"/><path fill="#e98b1b" d="M 202.273438 101.785156 L 202.273438 93.246094 C 202.757812 93.160156 203.238281 93.074219 203.714844 92.984375 L 203.714844 101.523438 C 203.238281 101.613281 202.753906 101.703125 202.273438 101.785156 " fill-opacity="1" fill-rule="nonzero"/><path fill="#e98b1b" d="M 199.808594 102.179688 L 199.808594 93.628906 C 200.296875 93.558594 200.78125 93.484375 201.253906 93.40625 L 201.253906 101.953125 C 200.78125 102.03125 200.296875 102.105469 199.808594 102.179688 " fill-opacity="1" fill-rule="nonzero"/><path fill="#e98b1b" d="M 166.753906 102.179688 C 166.265625 102.105469 165.785156 102.03125 165.308594 101.953125 L 165.308594 93.40625 C 165.785156 93.484375 166.265625 93.558594 166.753906 93.628906 L 166.753906 102.179688 " fill-opacity="1" fill-rule="nonzero"/><path fill="#e98b1b" d="M 164.292969 101.785156 C 163.808594 101.703125 163.320312 101.613281 162.847656 101.523438 L 162.847656 92.984375 C 163.324219 93.074219 163.804688 93.160156 164.292969 93.246094 L 164.292969 101.785156 " fill-opacity="1" fill-rule="nonzero"/><path fill="#e98b1b" d="M 161.832031 101.320312 C 161.34375 101.222656 160.863281 101.117188 160.386719 101.011719 L 160.386719 92.488281 C 160.863281 92.589844 161.34375 92.691406 161.832031 92.789062 L 161.832031 101.320312 " fill-opacity="1" fill-rule="nonzero"/><path fill="#e98b1b" d="M 159.371094 100.785156 C 158.878906 100.667969 158.402344 100.546875 157.925781 100.425781 L 157.925781 91.910156 C 158.402344 92.027344 158.878906 92.148438 159.371094 92.257812 L 159.371094 100.785156 " fill-opacity="1" fill-rule="nonzero"/><path fill="#e98b1b" d="M 156.914062 100.152344 C 156.421875 100.019531 155.941406 99.882812 155.46875 99.742188 L 155.46875 91.246094 C 155.9375 91.382812 156.425781 91.515625 156.914062 91.648438 L 156.914062 100.152344 " fill-opacity="1" fill-rule="nonzero"/><path fill="#e98b1b" d="M 179.050781 103.265625 C 178.570312 103.25 178.089844 103.226562 177.605469 103.207031 L 177.605469 94.640625 C 178.089844 94.660156 178.570312 94.679688 179.050781 94.699219 L 179.050781 103.265625 " fill-opacity="1" fill-rule="nonzero"/><path fill="#e98b1b" d="M 176.59375 103.152344 C 176.105469 103.132812 175.625 103.097656 175.144531 103.066406 L 175.144531 94.503906 C 175.625 94.535156 176.105469 94.570312 176.59375 94.59375 L 176.59375 103.152344 " fill-opacity="1" fill-rule="nonzero"/><path fill="#e98b1b" d="M 181.511719 103.328125 C 181.027344 103.316406 180.546875 103.304688 180.070312 103.292969 L 180.070312 94.726562 C 180.546875 94.738281 181.027344 94.746094 181.511719 94.757812 L 181.511719 103.328125 " fill-opacity="1" fill-rule="nonzero"/><path fill="#e98b1b" d="M 183.28125 103.34375 C 183.027344 103.34375 182.78125 103.335938 182.527344 103.332031 L 182.527344 94.765625 C 182.78125 94.765625 183.027344 94.773438 183.28125 94.773438 C 183.511719 94.773438 183.742188 94.769531 183.972656 94.765625 L 183.972656 103.332031 C 183.742188 103.335938 183.511719 103.34375 183.28125 103.34375 " fill-opacity="1" fill-rule="nonzero"/><path fill="#e98b1b" d="M 184.988281 103.328125 L 184.988281 94.757812 C 185.472656 94.75 185.953125 94.742188 186.433594 94.730469 L 186.433594 103.296875 C 185.953125 103.308594 185.472656 103.316406 184.988281 103.328125 " fill-opacity="1" fill-rule="nonzero"/><path fill="#e98b1b" d="M 187.449219 103.265625 L 187.449219 94.703125 C 187.933594 94.683594 188.414062 94.660156 188.894531 94.640625 L 188.894531 103.207031 C 188.414062 103.230469 187.933594 103.253906 187.449219 103.265625 " fill-opacity="1" fill-rule="nonzero"/><path fill="#e98b1b" d="M 189.90625 103.160156 L 189.90625 94.597656 C 190.394531 94.570312 190.871094 94.539062 191.355469 94.507812 L 191.355469 103.070312 C 190.871094 103.101562 190.394531 103.132812 189.90625 103.160156 " fill-opacity="1" fill-rule="nonzero"/><path fill="#e98b1b" d="M 192.367188 102.996094 L 192.367188 94.4375 C 192.851562 94.402344 193.332031 94.359375 193.8125 94.320312 L 193.8125 102.882812 C 193.335938 102.921875 192.851562 102.960938 192.367188 102.996094 " fill-opacity="1" fill-rule="nonzero"/><path fill="#e98b1b" d="M 194.824219 102.785156 L 194.824219 94.226562 C 195.3125 94.179688 195.796875 94.132812 196.277344 94.078125 L 196.277344 102.632812 C 195.796875 102.6875 195.3125 102.734375 194.824219 102.785156 " fill-opacity="1" fill-rule="nonzero"/><path fill="#e98b1b" d="M 197.289062 102.511719 L 197.289062 93.960938 C 197.773438 93.902344 198.253906 93.84375 198.734375 93.777344 L 198.734375 102.328125 C 198.253906 102.394531 197.773438 102.453125 197.289062 102.511719 " fill-opacity="1" fill-rule="nonzero"/><path fill="#e98b1b" d="M 174.132812 102.992188 C 173.648438 102.957031 173.167969 102.917969 172.6875 102.875 L 172.6875 94.316406 C 173.167969 94.355469 173.648438 94.394531 174.132812 94.429688 L 174.132812 102.992188 " fill-opacity="1" fill-rule="nonzero"/><path fill="#e98b1b" d="M 171.671875 102.777344 C 171.1875 102.730469 170.703125 102.679688 170.226562 102.628906 L 170.226562 94.070312 C 170.703125 94.125 171.1875 94.171875 171.671875 94.21875 L 171.671875 102.777344 " fill-opacity="1" fill-rule="nonzero"/><path fill="#e98b1b" d="M 169.210938 102.503906 C 168.726562 102.449219 168.246094 102.386719 167.765625 102.320312 L 167.765625 93.769531 C 168.246094 93.832031 168.726562 93.894531 169.210938 93.953125 L 169.210938 102.503906 " fill-opacity="1" fill-rule="nonzero"/><path fill="#e98b1b" d="M 154.453125 99.433594 C 153.957031 99.277344 153.476562 99.117188 153.003906 98.953125 L 153.003906 90.464844 C 153.476562 90.628906 153.960938 90.785156 154.453125 90.933594 L 154.453125 99.433594 " fill-opacity="1" fill-rule="nonzero"/><path fill="#e98b1b" d="M 151.859375 98.53125 C 151.410156 98.363281 150.972656 98.191406 150.546875 98.011719 L 150.546875 89.5625 C 151.015625 89.746094 151.496094 89.933594 151.992188 90.109375 L 151.992188 98.390625 C 151.992188 98.441406 151.9375 98.488281 151.859375 98.53125 " fill-opacity="1" fill-rule="nonzero"/><path fill="#e98b1b" d="M 149.160156 97.410156 C 148.792969 97.242188 148.433594 97.070312 148.085938 96.894531 L 148.085938 88.484375 C 148.554688 88.707031 149.03125 88.929688 149.535156 89.144531 L 149.535156 97.195312 C 149.535156 97.289062 149.378906 97.363281 149.160156 97.410156 " fill-opacity="1" fill-rule="nonzero"/><path fill="#e98b1b" d="M 146.773438 96.195312 C 146.375 95.972656 145.988281 95.746094 145.625 95.511719 L 145.625 87.160156 C 146.085938 87.4375 146.5625 87.714844 147.070312 87.976562 L 147.070312 95.996094 C 147.070312 96.078125 146.945312 96.148438 146.773438 96.195312 " fill-opacity="1" fill-rule="nonzero"/><path fill="#e98b1b" d="M 144.601562 94.820312 C 144.074219 94.441406 143.601562 94.050781 143.164062 93.648438 L 143.164062 85.449219 C 143.609375 85.8125 144.09375 86.167969 144.613281 86.519531 L 144.613281 94.800781 L 144.601562 94.820312 " fill-opacity="1" fill-rule="nonzero"/><path fill="#e98b1b" d="M 142.152344 92.625 C 141.5 91.875 141.019531 91.097656 140.707031 90.304688 L 140.707031 82.742188 C 141.085938 83.351562 141.570312 83.945312 142.152344 84.527344 L 142.152344 92.625 " fill-opacity="1" fill-rule="nonzero"/><path fill="#e98b1b" d="M 229.316406 77.140625 L 229.316406 67.988281 L 142.105469 67.988281 L 142.105469 77.140625 C 142.105469 85.613281 161.628906 92.488281 185.710938 92.488281 C 209.792969 92.488281 229.316406 85.613281 229.316406 77.140625 " fill-opacity="1" fill-rule="nonzero"/><path fill="#f5c116" d="M 185.710938 82.660156 C 161.628906 82.660156 142.105469 75.789062 142.105469 67.3125 C 142.105469 58.835938 161.628906 51.964844 185.710938 51.964844 C 209.792969 51.964844 229.316406 58.835938 229.316406 67.3125 C 229.316406 75.789062 209.792969 82.660156 185.710938 82.660156 " fill-opacity="1" fill-rule="nonzero"/><path fill="#e98b1b" d="M 188.339844 73.304688 C 190.085938 73.1875 191.507812 72.90625 192.605469 72.449219 C 193.699219 71.996094 194.25 71.457031 194.25 70.84375 C 194.25 70.289062 193.789062 69.816406 192.867188 69.421875 C 191.941406 69.023438 190.441406 68.714844 188.339844 68.5 L 188.339844 73.304688 M 183.261719 60.199219 C 181.886719 60.367188 180.789062 60.644531 179.972656 61.035156 C 179.15625 61.433594 178.746094 61.867188 178.746094 62.34375 C 178.746094 62.78125 179.121094 63.183594 179.867188 63.558594 C 180.613281 63.929688 181.742188 64.234375 183.261719 64.460938 L 183.261719 60.199219 M 183.261719 73.132812 L 183.261719 67.972656 C 178.6875 67.511719 175.339844 66.816406 173.203125 65.882812 C 171.070312 64.953125 170 63.824219 170 62.492188 C 170 61.144531 171.207031 60.011719 173.621094 59.097656 C 176.035156 58.183594 179.246094 57.65625 183.261719 57.515625 L 183.261719 56.296875 L 188.339844 56.296875 L 188.339844 57.515625 C 192.042969 57.671875 194.992188 58.117188 197.1875 58.851562 C 199.382812 59.585938 200.78125 60.570312 201.386719 61.800781 L 192.535156 62.210938 C 192 61.238281 190.597656 60.585938 188.339844 60.238281 L 188.339844 65.050781 C 193.933594 65.585938 197.75 66.28125 199.777344 67.128906 C 201.804688 67.980469 202.820312 69.066406 202.820312 70.398438 C 202.820312 71.886719 201.542969 73.136719 198.996094 74.152344 C 196.4375 75.171875 192.882812 75.796875 188.339844 76.027344 L 188.339844 78.328125 L 183.261719 78.328125 L 183.261719 76.085938 C 179.222656 75.914062 175.949219 75.386719 173.425781 74.5 C 170.910156 73.609375 169.300781 72.359375 168.601562 70.742188 L 177.734375 70.398438 C 178.105469 71.054688 178.804688 71.621094 179.832031 72.097656 C 180.855469 72.574219 182 72.917969 183.261719 73.132812 " fill-opacity="1" fill-rule="nonzero"/><path fill="#e98b1b" d="M 224.390625 83.285156 L 224.378906 83.269531 L 224.378906 74.984375 C 224.898438 74.636719 225.386719 74.277344 225.828125 73.917969 L 225.828125 82.121094 C 225.390625 82.515625 224.917969 82.90625 224.390625 83.285156 " fill-opacity="1" fill-rule="nonzero"/><path fill="#e98b1b" d="M 222.21875 84.664062 C 222.046875 84.617188 221.921875 84.546875 221.921875 84.464844 L 221.921875 76.445312 C 222.429688 76.179688 222.90625 75.90625 223.367188 75.625 L 223.367188 83.980469 C 223.003906 84.210938 222.621094 84.441406 222.21875 84.664062 " fill-opacity="1" fill-rule="nonzero"/><path fill="#e98b1b" d="M 226.839844 81.089844 L 226.839844 72.996094 C 227.421875 72.414062 227.902344 71.816406 228.289062 71.207031 L 228.289062 78.769531 C 227.972656 79.5625 227.492188 80.339844 226.839844 81.089844 " fill-opacity="1" fill-rule="nonzero"/><path fill="#e98b1b" d="M 219.832031 85.878906 C 219.613281 85.832031 219.457031 85.753906 219.457031 85.660156 L 219.457031 77.609375 C 219.960938 77.394531 220.441406 77.175781 220.90625 76.949219 L 220.90625 85.359375 C 220.558594 85.539062 220.199219 85.707031 219.832031 85.878906 " fill-opacity="1" fill-rule="nonzero"/><path fill="#e98b1b" d="M 217.136719 86.996094 C 217.058594 86.957031 217 86.90625 217 86.855469 L 217 78.578125 C 217.496094 78.398438 217.976562 78.214844 218.445312 78.027344 L 218.445312 86.480469 C 218.019531 86.65625 217.582031 86.828125 217.136719 86.996094 " fill-opacity="1" fill-rule="nonzero"/><path fill="#e98b1b" d="M 214.542969 87.898438 L 214.542969 79.402344 C 215.03125 79.25 215.515625 79.09375 215.988281 78.929688 L 215.988281 87.417969 C 215.515625 87.582031 215.035156 87.742188 214.542969 87.898438 " fill-opacity="1" fill-rule="nonzero"/><path fill="#e98b1b" d="M 212.078125 88.621094 L 212.078125 80.113281 C 212.570312 79.980469 213.054688 79.851562 213.523438 79.710938 L 213.523438 88.210938 C 213.050781 88.351562 212.570312 88.488281 212.078125 88.621094 " fill-opacity="1" fill-rule="nonzero"/><path fill="#e98b1b" d="M 209.617188 89.25 L 209.617188 80.726562 C 210.109375 80.613281 210.589844 80.492188 211.066406 80.375 L 211.066406 88.890625 C 210.589844 89.011719 210.109375 89.132812 209.617188 89.25 " fill-opacity="1" fill-rule="nonzero"/><path fill="#e98b1b" d="M 207.160156 89.785156 L 207.160156 81.253906 C 207.648438 81.15625 208.128906 81.058594 208.605469 80.953125 L 208.605469 89.480469 C 208.128906 89.585938 207.648438 89.6875 207.160156 89.785156 " fill-opacity="1" fill-rule="nonzero"/><path fill="#e98b1b" d="M 204.699219 90.25 L 204.699219 81.710938 C 205.191406 81.628906 205.667969 81.539062 206.148438 81.449219 L 206.148438 89.992188 C 205.671875 90.082031 205.1875 90.167969 204.699219 90.25 " fill-opacity="1" fill-rule="nonzero"/><path fill="#e98b1b" d="M 202.238281 90.648438 L 202.238281 82.097656 C 202.726562 82.027344 203.207031 81.953125 203.6875 81.875 L 203.6875 90.421875 C 203.207031 90.496094 202.726562 90.574219 202.238281 90.648438 " fill-opacity="1" fill-rule="nonzero"/><path fill="#e98b1b" d="M 169.183594 90.648438 C 168.695312 90.574219 168.214844 90.496094 167.738281 90.421875 L 167.738281 81.875 C 168.214844 81.953125 168.695312 82.027344 169.183594 82.097656 L 169.183594 90.648438 " fill-opacity="1" fill-rule="nonzero"/><path fill="#e98b1b" d="M 166.722656 90.25 C 166.238281 90.167969 165.75 90.082031 165.273438 89.992188 L 165.273438 81.449219 C 165.753906 81.539062 166.234375 81.628906 166.722656 81.710938 L 166.722656 90.25 " fill-opacity="1" fill-rule="nonzero"/><path fill="#e98b1b" d="M 164.261719 89.785156 C 163.773438 89.6875 163.292969 89.585938 162.816406 89.480469 L 162.816406 80.953125 C 163.292969 81.058594 163.773438 81.15625 164.261719 81.253906 L 164.261719 89.785156 " fill-opacity="1" fill-rule="nonzero"/><path fill="#e98b1b" d="M 161.804688 89.25 C 161.308594 89.132812 160.832031 89.011719 160.355469 88.890625 L 160.355469 80.375 C 160.832031 80.492188 161.308594 80.613281 161.804688 80.726562 L 161.804688 89.25 " fill-opacity="1" fill-rule="nonzero"/><path fill="#e98b1b" d="M 159.34375 88.621094 C 158.851562 88.488281 158.371094 88.351562 157.898438 88.210938 L 157.898438 79.710938 C 158.367188 79.851562 158.851562 79.980469 159.34375 80.113281 L 159.34375 88.621094 " fill-opacity="1" fill-rule="nonzero"/><path fill="#e98b1b" d="M 181.480469 91.730469 C 181 91.714844 180.519531 91.691406 180.035156 91.671875 L 180.035156 83.105469 C 180.519531 83.125 181 83.148438 181.480469 83.164062 L 181.480469 91.730469 " fill-opacity="1" fill-rule="nonzero"/><path fill="#e98b1b" d="M 179.023438 91.625 C 178.539062 91.597656 178.054688 91.566406 177.578125 91.53125 L 177.578125 82.96875 C 178.054688 82.996094 178.539062 83.035156 179.023438 83.058594 L 179.023438 91.625 " fill-opacity="1" fill-rule="nonzero"/><path fill="#e98b1b" d="M 183.945312 91.792969 C 183.457031 91.78125 182.976562 91.769531 182.5 91.761719 L 182.5 83.195312 C 182.976562 83.207031 183.457031 83.21875 183.945312 83.222656 L 183.945312 91.792969 " fill-opacity="1" fill-rule="nonzero"/><path fill="#e98b1b" d="M 185.710938 91.808594 C 185.460938 91.808594 185.210938 91.800781 184.957031 91.800781 L 184.957031 83.230469 C 185.210938 83.234375 185.460938 83.242188 185.710938 83.242188 C 185.941406 83.242188 186.171875 83.234375 186.402344 83.234375 L 186.402344 91.800781 C 186.171875 91.800781 185.941406 91.808594 185.710938 91.808594 " fill-opacity="1" fill-rule="nonzero"/><path fill="#e98b1b" d="M 187.417969 91.792969 L 187.417969 83.222656 C 187.902344 83.21875 188.382812 83.207031 188.863281 83.195312 L 188.863281 91.761719 C 188.382812 91.773438 187.902344 91.78125 187.417969 91.792969 " fill-opacity="1" fill-rule="nonzero"/><path fill="#e98b1b" d="M 189.878906 91.734375 L 189.878906 83.167969 C 190.359375 83.148438 190.84375 83.128906 191.324219 83.109375 L 191.324219 91.671875 C 190.84375 91.695312 190.359375 91.71875 189.878906 91.734375 " fill-opacity="1" fill-rule="nonzero"/><path fill="#e98b1b" d="M 192.335938 91.625 L 192.335938 83.0625 C 192.824219 83.035156 193.304688 83.003906 193.785156 82.972656 L 193.785156 91.535156 C 193.304688 91.566406 192.824219 91.601562 192.335938 91.625 " fill-opacity="1" fill-rule="nonzero"/><path fill="#e98b1b" d="M 194.796875 91.464844 L 194.796875 82.90625 C 195.28125 82.867188 195.765625 82.828125 196.242188 82.789062 L 196.242188 91.347656 C 195.765625 91.390625 195.28125 91.429688 194.796875 91.464844 " fill-opacity="1" fill-rule="nonzero"/><path fill="#e98b1b" d="M 197.253906 91.25 L 197.253906 82.691406 C 197.742188 82.644531 198.226562 82.597656 198.707031 82.542969 L 198.707031 91.097656 C 198.226562 91.15625 197.742188 91.203125 197.253906 91.25 " fill-opacity="1" fill-rule="nonzero"/><path fill="#e98b1b" d="M 199.71875 90.980469 L 199.71875 82.425781 C 200.203125 82.367188 200.6875 82.304688 201.164062 82.242188 L 201.164062 90.796875 C 200.6875 90.863281 200.203125 90.921875 199.71875 90.980469 " fill-opacity="1" fill-rule="nonzero"/><path fill="#e98b1b" d="M 176.5625 91.457031 C 176.078125 91.421875 175.59375 91.386719 175.117188 91.34375 L 175.117188 82.78125 C 175.59375 82.824219 176.078125 82.863281 176.5625 82.898438 L 176.5625 91.457031 " fill-opacity="1" fill-rule="nonzero"/><path fill="#e98b1b" d="M 174.101562 91.242188 C 173.617188 91.195312 173.132812 91.148438 172.660156 91.09375 L 172.660156 82.539062 C 173.132812 82.59375 173.617188 82.636719 174.101562 82.683594 L 174.101562 91.242188 " fill-opacity="1" fill-rule="nonzero"/><path fill="#e98b1b" d="M 171.640625 90.972656 C 171.15625 90.914062 170.675781 90.847656 170.195312 90.785156 L 170.195312 82.234375 C 170.671875 82.300781 171.15625 82.359375 171.640625 82.417969 L 171.640625 90.972656 " fill-opacity="1" fill-rule="nonzero"/><path fill="#e98b1b" d="M 156.878906 87.898438 C 156.386719 87.742188 155.90625 87.582031 155.433594 87.417969 L 155.433594 78.929688 C 155.90625 79.09375 156.390625 79.25 156.878906 79.402344 L 156.878906 87.898438 " fill-opacity="1" fill-rule="nonzero"/><path fill="#e98b1b" d="M 154.285156 86.996094 C 153.835938 86.828125 153.398438 86.65625 152.976562 86.480469 L 152.976562 78.027344 C 153.445312 78.214844 153.925781 78.398438 154.421875 78.578125 L 154.421875 86.855469 C 154.421875 86.90625 154.363281 86.957031 154.285156 86.996094 " fill-opacity="1" fill-rule="nonzero"/><path fill="#e98b1b" d="M 151.589844 85.878906 C 151.21875 85.707031 150.863281 85.539062 150.515625 85.359375 L 150.515625 76.949219 C 150.980469 77.175781 151.460938 77.394531 151.960938 77.609375 L 151.960938 85.660156 C 151.960938 85.753906 151.808594 85.832031 151.589844 85.878906 " fill-opacity="1" fill-rule="nonzero"/><path fill="#e98b1b" d="M 149.199219 84.664062 C 148.800781 84.441406 148.417969 84.210938 148.054688 83.980469 L 148.054688 75.625 C 148.515625 75.90625 148.992188 76.179688 149.5 76.445312 L 149.5 84.464844 C 149.5 84.546875 149.378906 84.617188 149.199219 84.664062 " fill-opacity="1" fill-rule="nonzero"/><path fill="#e98b1b" d="M 147.03125 83.285156 C 146.503906 82.90625 146.03125 82.515625 145.59375 82.121094 L 145.59375 73.917969 C 146.035156 74.277344 146.523438 74.636719 147.042969 74.984375 L 147.042969 83.269531 L 147.03125 83.285156 " fill-opacity="1" fill-rule="nonzero"/><path fill="#e98b1b" d="M 144.582031 81.089844 C 143.929688 80.339844 143.449219 79.5625 143.136719 78.769531 L 143.136719 71.207031 C 143.515625 71.816406 144 72.414062 144.582031 72.996094 L 144.582031 81.089844 " fill-opacity="1" fill-rule="nonzero"/><path fill="#e98b1b" d="M 235.316406 62.679688 L 235.316406 53.527344 L 148.101562 53.527344 L 148.101562 62.679688 C 148.101562 71.15625 167.625 78.027344 191.707031 78.027344 C 215.789062 78.027344 235.316406 71.15625 235.316406 62.679688 " fill-opacity="1" fill-rule="nonzero"/><g clip-path="url(#e9fcf6a365)"><path fill="#f5c116" d="M 191.707031 68.199219 C 167.625 68.199219 148.101562 61.328125 148.101562 52.851562 C 148.101562 44.375 167.625 37.507812 191.707031 37.507812 C 215.789062 37.507812 235.316406 44.375 235.316406 52.851562 C 235.316406 61.328125 215.789062 68.199219 191.707031 68.199219 " fill-opacity="1" fill-rule="nonzero"/></g><path fill="#e98b1b" d="M 194.332031 58.84375 C 196.078125 58.730469 197.503906 58.445312 198.601562 57.988281 C 199.699219 57.535156 200.246094 56.996094 200.246094 56.382812 C 200.246094 55.832031 199.789062 55.355469 198.863281 54.960938 C 197.941406 54.5625 196.4375 54.253906 194.332031 54.039062 Z M 189.257812 45.742188 C 187.882812 45.90625 186.785156 46.183594 185.96875 46.578125 C 185.152344 46.972656 184.746094 47.40625 184.746094 47.882812 C 184.746094 48.320312 185.117188 48.722656 185.863281 49.097656 C 186.613281 49.472656 187.742188 49.773438 189.257812 50 Z M 189.257812 58.671875 L 189.257812 53.511719 C 184.683594 53.050781 181.335938 52.355469 179.195312 51.421875 C 177.066406 50.492188 175.996094 49.363281 175.996094 48.03125 C 175.996094 46.683594 177.207031 45.550781 179.617188 44.636719 C 182.03125 43.722656 185.246094 43.195312 189.257812 43.054688 L 189.257812 41.835938 L 194.332031 41.835938 L 194.332031 43.054688 C 198.042969 43.210938 200.988281 43.65625 203.183594 44.390625 C 205.378906 45.125 206.78125 46.109375 207.382812 47.339844 L 198.53125 47.75 C 197.996094 46.777344 196.59375 46.121094 194.332031 45.78125 L 194.332031 50.589844 C 199.933594 51.125 203.746094 51.816406 205.777344 52.667969 C 207.804688 53.519531 208.820312 54.605469 208.820312 55.9375 C 208.820312 57.425781 207.539062 58.675781 204.992188 59.691406 C 202.433594 60.710938 198.882812 61.335938 194.332031 61.566406 L 194.332031 63.867188 L 189.257812 63.867188 L 189.257812 61.628906 C 185.222656 61.457031 181.945312 60.925781 179.421875 60.039062 C 176.90625 59.152344 175.296875 57.898438 174.597656 56.285156 L 183.730469 55.9375 C 184.105469 56.59375 184.800781 57.160156 185.828125 57.640625 C 186.855469 58.113281 188 58.457031 189.257812 58.671875 " fill-opacity="1" fill-rule="nonzero"/><path fill="#e98b1b" d="M 230.386719 68.828125 L 230.375 68.808594 L 230.375 60.527344 C 230.894531 60.171875 231.382812 59.820312 231.824219 59.453125 L 231.824219 67.65625 C 231.386719 68.054688 230.914062 68.445312 230.386719 68.828125 " fill-opacity="1" fill-rule="nonzero"/><path fill="#e98b1b" d="M 228.21875 70.203125 C 228.042969 70.15625 227.917969 70.085938 227.917969 70 L 227.917969 61.988281 C 228.425781 61.722656 228.902344 61.445312 229.363281 61.167969 L 229.363281 69.519531 C 229 69.75 228.617188 69.980469 228.21875 70.203125 " fill-opacity="1" fill-rule="nonzero"/><path fill="#e98b1b" d="M 232.839844 66.628906 L 232.839844 58.535156 C 233.417969 57.953125 233.902344 57.355469 234.28125 56.746094 L 234.28125 64.308594 C 233.96875 65.101562 233.488281 65.878906 232.839844 66.628906 " fill-opacity="1" fill-rule="nonzero"/><path fill="#e98b1b" d="M 225.828125 71.417969 C 225.613281 71.375 225.457031 71.292969 225.457031 71.199219 L 225.457031 63.152344 C 225.957031 62.933594 226.4375 62.714844 226.90625 62.488281 L 226.90625 70.898438 C 226.554688 71.074219 226.195312 71.246094 225.828125 71.417969 " fill-opacity="1" fill-rule="nonzero"/><path fill="#e98b1b" d="M 223.132812 72.535156 C 223.050781 72.496094 222.996094 72.449219 222.996094 72.394531 L 222.996094 64.117188 C 223.492188 63.9375 223.972656 63.753906 224.441406 63.566406 L 224.441406 72.019531 C 224.015625 72.195312 223.582031 72.367188 223.132812 72.535156 " fill-opacity="1" fill-rule="nonzero"/><path fill="#e98b1b" d="M 220.539062 73.441406 L 220.539062 64.941406 C 221.027344 64.789062 221.511719 64.632812 221.984375 64.472656 L 221.984375 72.957031 C 221.511719 73.121094 221.027344 73.28125 220.539062 73.441406 " fill-opacity="1" fill-rule="nonzero"/><path fill="#e98b1b" d="M 218.074219 74.160156 L 218.074219 65.652344 C 218.566406 65.523438 219.050781 65.386719 219.519531 65.25 L 219.519531 73.75 C 219.046875 73.890625 218.570312 74.027344 218.074219 74.160156 " fill-opacity="1" fill-rule="nonzero"/><path fill="#e98b1b" d="M 215.613281 74.792969 L 215.613281 66.265625 C 216.105469 66.148438 216.585938 66.03125 217.0625 65.914062 L 217.0625 74.429688 C 216.585938 74.554688 216.105469 74.675781 215.613281 74.792969 " fill-opacity="1" fill-rule="nonzero"/><path fill="#e98b1b" d="M 213.15625 75.324219 L 213.15625 66.792969 C 213.644531 66.695312 214.125 66.597656 214.601562 66.492188 L 214.601562 75.019531 C 214.125 75.125 213.644531 75.226562 213.15625 75.324219 " fill-opacity="1" fill-rule="nonzero"/><path fill="#e98b1b" d="M 210.699219 75.792969 L 210.699219 67.25 C 211.183594 67.167969 211.664062 67.078125 212.144531 66.992188 L 212.144531 75.527344 C 211.667969 75.621094 211.179688 75.707031 210.699219 75.792969 " fill-opacity="1" fill-rule="nonzero"/><path fill="#e98b1b" d="M 208.234375 76.183594 L 208.234375 67.632812 C 208.722656 67.566406 209.203125 67.488281 209.683594 67.417969 L 209.683594 75.960938 C 209.203125 76.035156 208.722656 76.113281 208.234375 76.183594 " fill-opacity="1" fill-rule="nonzero"/><path fill="#e98b1b" d="M 175.179688 76.183594 C 174.691406 76.113281 174.210938 76.035156 173.730469 75.960938 L 173.730469 67.417969 C 174.210938 67.488281 174.691406 67.566406 175.179688 67.632812 L 175.179688 76.183594 " fill-opacity="1" fill-rule="nonzero"/><path fill="#e98b1b" d="M 172.71875 75.792969 C 172.234375 75.707031 171.75 75.621094 171.273438 75.527344 L 171.273438 66.992188 C 171.753906 67.078125 172.230469 67.167969 172.71875 67.25 L 172.71875 75.792969 " fill-opacity="1" fill-rule="nonzero"/><path fill="#e98b1b" d="M 170.257812 75.324219 C 169.769531 75.226562 169.289062 75.125 168.8125 75.019531 L 168.8125 66.492188 C 169.289062 66.597656 169.769531 66.695312 170.257812 66.792969 L 170.257812 75.324219 " fill-opacity="1" fill-rule="nonzero"/><path fill="#e98b1b" d="M 167.800781 74.792969 C 167.308594 74.675781 166.828125 74.554688 166.351562 74.429688 L 166.351562 65.914062 C 166.828125 66.03125 167.308594 66.148438 167.800781 66.265625 L 167.800781 74.792969 " fill-opacity="1" fill-rule="nonzero"/><path fill="#e98b1b" d="M 165.339844 74.160156 C 164.847656 74.027344 164.367188 73.890625 163.894531 73.75 L 163.894531 65.25 C 164.363281 65.386719 164.847656 65.523438 165.339844 65.652344 L 165.339844 74.160156 " fill-opacity="1" fill-rule="nonzero"/><path fill="#e98b1b" d="M 187.480469 77.269531 C 186.992188 77.253906 186.515625 77.230469 186.03125 77.210938 L 186.03125 68.644531 C 186.515625 68.667969 186.992188 68.691406 187.480469 68.707031 L 187.480469 77.269531 " fill-opacity="1" fill-rule="nonzero"/><path fill="#e98b1b" d="M 185.019531 77.164062 C 184.535156 77.136719 184.050781 77.105469 183.574219 77.074219 L 183.574219 68.507812 C 184.050781 68.539062 184.535156 68.574219 185.019531 68.601562 L 185.019531 77.164062 " fill-opacity="1" fill-rule="nonzero"/><path fill="#e98b1b" d="M 189.941406 77.332031 C 189.453125 77.324219 188.972656 77.3125 188.496094 77.300781 L 188.496094 68.734375 C 188.972656 68.746094 189.453125 68.753906 189.941406 68.765625 L 189.941406 77.332031 " fill-opacity="1" fill-rule="nonzero"/><path fill="#e98b1b" d="M 191.707031 77.347656 C 191.457031 77.347656 191.207031 77.339844 190.953125 77.339844 L 190.953125 68.773438 C 191.207031 68.773438 191.457031 68.777344 191.707031 68.777344 C 191.941406 68.777344 192.167969 68.773438 192.398438 68.773438 L 192.398438 77.339844 C 192.167969 77.339844 191.941406 77.347656 191.707031 77.347656 " fill-opacity="1" fill-rule="nonzero"/><path fill="#e98b1b" d="M 193.417969 77.332031 L 193.417969 68.765625 C 193.898438 68.757812 194.378906 68.746094 194.863281 68.738281 L 194.863281 77.300781 C 194.378906 77.3125 193.898438 77.324219 193.417969 77.332031 " fill-opacity="1" fill-rule="nonzero"/><path fill="#e98b1b" d="M 195.875 77.273438 L 195.875 68.710938 C 196.359375 68.691406 196.839844 68.667969 197.316406 68.644531 L 197.316406 77.214844 C 196.839844 77.234375 196.359375 77.257812 195.875 77.273438 " fill-opacity="1" fill-rule="nonzero"/><path fill="#e98b1b" d="M 198.335938 77.164062 L 198.335938 68.605469 C 198.820312 68.578125 199.300781 68.542969 199.78125 68.511719 L 199.78125 77.078125 C 199.300781 77.105469 198.820312 77.140625 198.335938 77.164062 " fill-opacity="1" fill-rule="nonzero"/><path fill="#e98b1b" d="M 200.792969 77.003906 L 200.792969 68.445312 C 201.277344 68.40625 201.757812 68.367188 202.238281 68.324219 L 202.238281 76.886719 C 201.761719 76.929688 201.277344 76.96875 200.792969 77.003906 " fill-opacity="1" fill-rule="nonzero"/><path fill="#e98b1b" d="M 203.253906 76.789062 L 203.253906 68.230469 C 203.738281 68.183594 204.226562 68.136719 204.699219 68.085938 L 204.699219 76.640625 C 204.226562 76.695312 203.738281 76.742188 203.253906 76.789062 " fill-opacity="1" fill-rule="nonzero"/><path fill="#e98b1b" d="M 205.714844 76.519531 L 205.714844 67.96875 C 206.199219 67.90625 206.683594 67.847656 207.160156 67.785156 L 207.160156 76.335938 C 206.683594 76.402344 206.199219 76.460938 205.714844 76.519531 " fill-opacity="1" fill-rule="nonzero"/><path fill="#e98b1b" d="M 182.558594 77 C 182.074219 76.960938 181.59375 76.925781 181.113281 76.882812 L 181.113281 68.320312 C 181.59375 68.363281 182.074219 68.402344 182.558594 68.4375 L 182.558594 77 " fill-opacity="1" fill-rule="nonzero"/><path fill="#e98b1b" d="M 180.101562 76.78125 C 179.613281 76.738281 179.128906 76.683594 178.65625 76.632812 L 178.65625 68.078125 C 179.128906 68.132812 179.613281 68.179688 180.101562 68.226562 L 180.101562 76.78125 " fill-opacity="1" fill-rule="nonzero"/><path fill="#e98b1b" d="M 177.636719 76.511719 C 177.152344 76.453125 176.671875 76.390625 176.191406 76.328125 L 176.191406 67.777344 C 176.671875 67.84375 177.152344 67.898438 177.636719 67.957031 L 177.636719 76.511719 " fill-opacity="1" fill-rule="nonzero"/><path fill="#e98b1b" d="M 162.878906 73.441406 C 162.386719 73.28125 161.902344 73.121094 161.433594 72.957031 L 161.433594 64.472656 C 161.902344 64.632812 162.386719 64.789062 162.878906 64.941406 L 162.878906 73.441406 " fill-opacity="1" fill-rule="nonzero"/><path fill="#e98b1b" d="M 160.285156 72.535156 C 159.835938 72.367188 159.398438 72.195312 158.972656 72.019531 L 158.972656 63.566406 C 159.441406 63.753906 159.925781 63.9375 160.417969 64.117188 L 160.417969 72.394531 C 160.417969 72.449219 160.359375 72.496094 160.285156 72.535156 " fill-opacity="1" fill-rule="nonzero"/><path fill="#e98b1b" d="M 157.589844 71.417969 C 157.21875 71.246094 156.863281 71.074219 156.511719 70.898438 L 156.511719 62.488281 C 156.976562 62.714844 157.460938 62.933594 157.957031 63.152344 L 157.957031 71.199219 C 157.957031 71.292969 157.804688 71.375 157.589844 71.417969 " fill-opacity="1" fill-rule="nonzero"/><path fill="#e98b1b" d="M 155.195312 70.203125 C 154.800781 69.980469 154.414062 69.75 154.050781 69.519531 L 154.050781 61.167969 C 154.511719 61.445312 154.992188 61.722656 155.5 61.988281 L 155.5 70 C 155.5 70.085938 155.375 70.15625 155.195312 70.203125 " fill-opacity="1" fill-rule="nonzero"/><path fill="#e98b1b" d="M 153.027344 68.828125 C 152.5 68.445312 152.027344 68.054688 151.589844 67.65625 L 151.589844 59.453125 C 152.03125 59.820312 152.523438 60.171875 153.039062 60.527344 L 153.039062 68.808594 L 153.027344 68.828125 " fill-opacity="1" fill-rule="nonzero"/><path fill="#e98b1b" d="M 150.578125 66.628906 C 149.925781 65.878906 149.445312 65.101562 149.128906 64.308594 L 149.128906 56.746094 C 149.515625 57.355469 149.996094 57.953125 150.578125 58.535156 L 150.578125 66.628906 " fill-opacity="1" fill-rule="nonzero"/></svg>