<svg xmlns="http://www.w3.org/2000/svg" xmlns:xlink="http://www.w3.org/1999/xlink" width="470" zoomAndPan="magnify" viewBox="0 0 352.5 525.000007" height="700" preserveAspectRatio="xMidYMid meet" version="1.0"><defs><clipPath id="c2ea682fd6"><path d="M 0.0859375 0 L 351.914062 0 L 351.914062 524 L 0.0859375 524 Z M 0.0859375 0 " clip-rule="nonzero"/></clipPath><clipPath id="3a9965bce2"><path d="M 190 331 L 242 331 L 242 523.691406 L 190 523.691406 Z M 190 331 " clip-rule="nonzero"/></clipPath><clipPath id="3ee4a4989e"><path d="M 101 170 L 254 170 L 254 212.59375 L 101 212.59375 Z M 101 170 " clip-rule="nonzero"/></clipPath><clipPath id="8e576a2c64"><path d="M 107 97 L 259.3125 97 L 259.3125 141 L 107 141 Z M 107 97 " clip-rule="nonzero"/></clipPath><clipPath id="ca7f2bf3fe"><path d="M 107 69 L 259.3125 69 L 259.3125 124 L 107 124 Z M 107 69 " clip-rule="nonzero"/></clipPath><clipPath id="18d709d306"><path d="M 92.382812 73 L 245 73 L 245 117 L 92.382812 117 Z M 92.382812 73 " clip-rule="nonzero"/></clipPath><clipPath id="baa2cb853b"><path d="M 92.382812 45 L 245 45 L 245 100 L 92.382812 100 Z M 92.382812 45 " clip-rule="nonzero"/></clipPath><clipPath id="4fc4457c15"><path d="M 107 27 L 259.3125 27 L 259.3125 71 L 107 71 Z M 107 27 " clip-rule="nonzero"/></clipPath><clipPath id="592a7e99e9"><path d="M 107 0 L 259.3125 0 L 259.3125 54 L 107 54 Z M 107 0 " clip-rule="nonzero"/></clipPath></defs><g clip-path="url(#c2ea682fd6)"><path fill="#ffffff" d="M 0.0859375 0 L 351.914062 0 L 351.914062 524 L 0.0859375 524 Z M 0.0859375 0 " fill-opacity="1" fill-rule="nonzero"/><path fill="#ffffff" d="M 0.0859375 0 L 351.914062 0 L 351.914062 524 L 0.0859375 524 Z M 0.0859375 0 " fill-opacity="1" fill-rule="nonzero"/></g><path fill="#5271ff" d="M 35.675781 455.84375 C 33.835938 468.035156 32.53125 476.675781 32.015625 479.175781 C 29.9375 489.230469 30.457031 497.480469 35.914062 499.023438 C 42.933594 501.011719 49.710938 499.1875 58.265625 474.019531 C 62.957031 460.226562 67.984375 445.535156 73.046875 430.75 C 87.292969 389.140625 98.882812 346.035156 106.808594 320.675781 L 62.277344 327.246094 C 54.230469 360.125 40.835938 421.625 35.675781 455.84375 Z M 35.675781 455.84375 " fill-opacity="1" fill-rule="nonzero"/><g clip-path="url(#3a9965bce2)"><path fill="#5271ff" d="M 214.3125 482.917969 C 216.808594 494.992188 218.578125 503.550781 218.957031 506.074219 C 220.488281 516.222656 226.710938 524.050781 232.367188 523.613281 C 239.640625 523.050781 242.488281 518.71875 241.800781 492.148438 C 241.421875 477.582031 238.9375 446.234375 238.9375 446.234375 C 238.9375 446.234375 233.710938 358.160156 232.367188 331.625 L 190.746094 353.808594 C 194.582031 387.441406 207.308594 449.027344 214.3125 482.917969 Z M 214.3125 482.917969 " fill-opacity="1" fill-rule="nonzero"/></g><path fill="#5271ff" d="M 147.191406 421.5 C 144.285156 432.253906 142.230469 439.875 141.75 442.125 C 139.820312 451.199219 136.394531 457.832031 131.3125 457.132812 C 124.777344 456.234375 119.824219 452.261719 121.878906 428.34375 C 123.003906 415.234375 124.171875 401.257812 125.347656 387.191406 C 128.65625 347.609375 132.027344 307.296875 134.671875 283.445312 L 175.425781 306.371094 C 170.152344 336.488281 155.339844 391.328125 147.191406 421.5 Z M 147.191406 421.5 " fill-opacity="1" fill-rule="nonzero"/><path fill="#5271ff" d="M 318.097656 441.242188 C 319.9375 453.4375 321.242188 462.078125 321.757812 464.574219 C 323.835938 474.628906 323.316406 482.878906 317.859375 484.425781 C 310.84375 486.414062 304.0625 484.585938 295.507812 459.417969 C 290.820312 445.625 285.789062 430.9375 280.726562 416.148438 C 266.480469 374.542969 256.351562 331.730469 248.425781 306.371094 L 295.507812 311.960938 C 303.554688 344.839844 312.9375 407.027344 318.097656 441.242188 Z M 318.097656 441.242188 " fill-opacity="1" fill-rule="nonzero"/><path fill="#5271ff" d="M 23.609375 185.894531 C 23.84375 184.683594 24.214844 183.519531 24.773438 182.40625 C 25.03125 181.890625 25.300781 181.378906 25.585938 180.871094 C 43.0625 149.878906 212.203125 166.207031 311.820312 169.515625 C 327.796875 170.957031 329.058594 190.394531 329.710938 199.09375 C 332.042969 230.175781 332.941406 273.382812 328.496094 293.1875 C 328.132812 294.789062 327.957031 296.410156 327.796875 298.039062 C 326.277344 313.476562 306.570312 332.140625 251.792969 348.296875 C 178.390625 369.949219 32.613281 345.175781 25.511719 312.335938 C 17.902344 277.144531 17.074219 219.898438 23.609375 185.894531 Z M 23.609375 185.894531 " fill-opacity="1" fill-rule="nonzero"/><path fill="#5271ff" d="M 247.378906 216.890625 C 177.363281 234.683594 38.316406 214.324219 31.542969 187.335938 C 24.769531 160.347656 71.28125 143.792969 137.03125 137.519531 C 200.488281 131.464844 276.949219 144.433594 304.0625 157.339844 C 328.550781 169 334.898438 194.648438 247.378906 216.890625 Z M 247.378906 216.890625 " fill-opacity="1" fill-rule="nonzero"/><path fill="#000000" d="M 28.789062 198.914062 C 29.515625 198.558594 30.390625 198.863281 30.742188 199.585938 C 31.367188 200.875 33.011719 202.8125 36.1875 205.121094 C 39.332031 207.40625 43.871094 209.984375 50.128906 212.59375 C 62.648438 217.808594 81.949219 223.121094 110.472656 226.527344 C 146.171875 230.785156 186.496094 232.558594 223.296875 228.925781 C 260.144531 225.285156 293.234375 216.25 314.675781 199.085938 L 316.5 201.363281 C 294.390625 219.066406 260.609375 228.175781 223.582031 231.832031 C 186.511719 235.488281 145.964844 233.703125 110.125 229.425781 C 81.417969 226 61.839844 220.636719 49.007812 215.289062 C 42.589844 212.613281 37.839844 209.933594 34.46875 207.484375 C 31.132812 205.054688 29.042969 202.777344 28.113281 200.863281 C 27.761719 200.136719 28.066406 199.265625 28.789062 198.914062 Z M 28.789062 198.914062 " fill-opacity="1" fill-rule="evenodd"/><g clip-path="url(#3ee4a4989e)"><path fill="#e98b1b" d="M 253.566406 186.089844 L 253.566406 170.105469 L 101.226562 170.105469 L 101.226562 186.089844 C 101.226562 200.898438 135.332031 212.898438 177.398438 212.898438 C 219.460938 212.898438 253.566406 200.898438 253.566406 186.089844 " fill-opacity="1" fill-rule="nonzero"/></g><path fill="#f5c116" d="M 177.398438 195.734375 C 135.332031 195.734375 101.226562 183.734375 101.226562 168.929688 C 101.226562 154.121094 135.332031 142.121094 177.398438 142.121094 C 219.460938 142.121094 253.566406 154.121094 253.566406 168.929688 C 253.566406 183.734375 219.460938 195.734375 177.398438 195.734375 " fill-opacity="1" fill-rule="nonzero"/><path fill="#e98b1b" d="M 181.984375 179.394531 C 185.035156 179.191406 187.523438 178.691406 189.4375 177.894531 C 191.355469 177.101562 192.3125 176.164062 192.3125 175.089844 C 192.3125 174.128906 191.511719 173.296875 189.898438 172.605469 C 188.285156 171.910156 185.652344 171.371094 181.984375 171 L 181.984375 179.394531 M 173.121094 156.507812 C 170.71875 156.789062 168.800781 157.277344 167.375 157.960938 C 165.945312 158.660156 165.230469 159.414062 165.230469 160.246094 C 165.230469 161.011719 165.886719 161.710938 167.1875 162.367188 C 168.496094 163.015625 170.464844 163.546875 173.121094 163.945312 L 173.121094 156.507812 M 173.121094 179.085938 L 173.121094 170.074219 C 165.132812 169.273438 159.28125 168.058594 155.546875 166.429688 C 151.820312 164.804688 149.957031 162.828125 149.957031 160.507812 C 149.957031 158.152344 152.0625 156.175781 156.28125 154.578125 C 160.492188 152.976562 166.109375 152.058594 173.121094 151.816406 L 173.121094 149.683594 L 181.984375 149.683594 L 181.984375 151.816406 C 188.457031 152.085938 193.605469 152.867188 197.441406 154.148438 C 201.28125 155.433594 203.722656 157.148438 204.773438 159.304688 L 189.3125 160.011719 C 188.378906 158.320312 185.929688 157.171875 181.984375 156.570312 L 181.984375 164.980469 C 191.761719 165.90625 198.429688 167.121094 201.96875 168.605469 C 205.515625 170.089844 207.28125 171.996094 207.28125 174.316406 C 207.28125 176.914062 205.058594 179.097656 200.601562 180.875 C 196.128906 182.65625 189.925781 183.742188 181.984375 184.148438 L 181.984375 188.167969 L 173.121094 188.167969 L 173.121094 184.253906 C 166.066406 183.953125 160.339844 183.027344 155.941406 181.480469 C 151.542969 179.925781 148.734375 177.742188 147.507812 174.921875 L 163.460938 174.316406 C 164.117188 175.460938 165.335938 176.453125 167.132812 177.289062 C 168.917969 178.113281 170.917969 178.71875 173.121094 179.085938 " fill-opacity="1" fill-rule="nonzero"/><path fill="#e98b1b" d="M 244.960938 196.828125 L 244.941406 196.792969 L 244.941406 182.328125 C 245.847656 181.714844 246.695312 181.09375 247.46875 180.464844 L 247.46875 194.785156 C 246.707031 195.480469 245.882812 196.164062 244.960938 196.828125 " fill-opacity="1" fill-rule="nonzero"/><path fill="#e98b1b" d="M 241.167969 199.230469 C 240.859375 199.152344 240.644531 199.027344 240.644531 198.882812 L 240.644531 184.878906 C 241.535156 184.417969 242.367188 183.933594 243.171875 183.453125 L 243.171875 198.039062 C 242.535156 198.445312 241.863281 198.84375 241.167969 199.230469 " fill-opacity="1" fill-rule="nonzero"/><path fill="#e98b1b" d="M 249.242188 192.996094 L 249.242188 178.847656 C 250.257812 177.835938 251.097656 176.792969 251.765625 175.726562 L 251.765625 188.9375 C 251.21875 190.324219 250.378906 191.683594 249.242188 192.996094 " fill-opacity="1" fill-rule="nonzero"/><path fill="#e98b1b" d="M 236.996094 201.351562 C 236.617188 201.277344 236.34375 201.136719 236.34375 200.972656 L 236.34375 186.917969 C 237.222656 186.539062 238.058594 186.152344 238.875 185.761719 L 238.875 200.453125 C 238.265625 200.757812 237.640625 201.058594 236.996094 201.351562 " fill-opacity="1" fill-rule="nonzero"/><path fill="#e98b1b" d="M 232.285156 203.3125 C 232.152344 203.238281 232.050781 203.15625 232.050781 203.0625 L 232.050781 188.601562 C 232.914062 188.292969 233.753906 187.96875 234.578125 187.644531 L 234.578125 202.402344 C 233.832031 202.710938 233.070312 203.015625 232.285156 203.3125 " fill-opacity="1" fill-rule="nonzero"/><path fill="#e98b1b" d="M 227.753906 204.882812 L 227.753906 190.039062 C 228.613281 189.78125 229.457031 189.5 230.28125 189.222656 L 230.28125 204.042969 C 229.457031 204.332031 228.617188 204.613281 227.753906 204.882812 " fill-opacity="1" fill-rule="nonzero"/><path fill="#e98b1b" d="M 223.457031 206.144531 L 223.457031 191.289062 C 224.3125 191.054688 225.160156 190.824219 225.984375 190.585938 L 225.984375 205.425781 C 225.15625 205.675781 224.3125 205.914062 223.457031 206.144531 " fill-opacity="1" fill-rule="nonzero"/><path fill="#e98b1b" d="M 219.160156 207.25 L 219.160156 192.355469 C 220.015625 192.15625 220.855469 191.949219 221.6875 191.738281 L 221.6875 206.617188 C 220.855469 206.835938 220.015625 207.042969 219.160156 207.25 " fill-opacity="1" fill-rule="nonzero"/><path fill="#e98b1b" d="M 214.863281 208.183594 L 214.863281 193.277344 C 215.714844 193.105469 216.558594 192.933594 217.386719 192.75 L 217.386719 207.644531 C 216.558594 207.832031 215.714844 208.011719 214.863281 208.183594 " fill-opacity="1" fill-rule="nonzero"/><path fill="#e98b1b" d="M 210.570312 208.992188 L 210.570312 194.074219 C 211.421875 193.925781 212.257812 193.78125 213.089844 193.617188 L 213.089844 208.539062 C 212.257812 208.695312 211.410156 208.847656 210.570312 208.992188 " fill-opacity="1" fill-rule="nonzero"/><path fill="#e98b1b" d="M 206.269531 209.683594 L 206.269531 194.746094 C 207.117188 194.625 207.960938 194.496094 208.792969 194.359375 L 208.792969 209.285156 C 207.960938 209.421875 207.117188 209.558594 206.269531 209.683594 " fill-opacity="1" fill-rule="nonzero"/><path fill="#e98b1b" d="M 148.527344 209.683594 C 147.675781 209.558594 146.832031 209.421875 146.003906 209.285156 L 146.003906 194.359375 C 146.832031 194.496094 147.675781 194.625 148.527344 194.746094 L 148.527344 209.683594 " fill-opacity="1" fill-rule="nonzero"/><path fill="#e98b1b" d="M 144.226562 208.992188 C 143.378906 208.847656 142.535156 208.695312 141.707031 208.539062 L 141.707031 193.617188 C 142.539062 193.78125 143.375 193.925781 144.226562 194.074219 L 144.226562 208.992188 " fill-opacity="1" fill-rule="nonzero"/><path fill="#e98b1b" d="M 139.929688 208.183594 C 139.078125 208.011719 138.238281 207.832031 137.40625 207.644531 L 137.40625 192.75 C 138.238281 192.933594 139.078125 193.105469 139.929688 193.277344 L 139.929688 208.183594 " fill-opacity="1" fill-rule="nonzero"/><path fill="#e98b1b" d="M 135.636719 207.25 C 134.78125 207.042969 133.9375 206.835938 133.109375 206.617188 L 133.109375 191.738281 C 133.9375 191.949219 134.78125 192.15625 135.636719 192.355469 L 135.636719 207.25 " fill-opacity="1" fill-rule="nonzero"/><path fill="#e98b1b" d="M 131.339844 206.144531 C 130.480469 205.914062 129.636719 205.675781 128.8125 205.425781 L 128.8125 190.585938 C 129.636719 190.824219 130.484375 191.054688 131.339844 191.289062 L 131.339844 206.144531 " fill-opacity="1" fill-rule="nonzero"/><path fill="#e98b1b" d="M 170.007812 211.578125 C 169.160156 211.550781 168.328125 211.511719 167.488281 211.476562 L 167.488281 196.511719 C 168.328125 196.550781 169.160156 196.585938 170.007812 196.617188 L 170.007812 211.578125 " fill-opacity="1" fill-rule="nonzero"/><path fill="#e98b1b" d="M 165.714844 211.386719 C 164.867188 211.34375 164.027344 211.285156 163.1875 211.230469 L 163.1875 196.273438 C 164.027344 196.328125 164.867188 196.386719 165.714844 196.433594 L 165.714844 211.386719 " fill-opacity="1" fill-rule="nonzero"/><path fill="#e98b1b" d="M 174.308594 211.6875 C 173.464844 211.667969 172.617188 211.648438 171.785156 211.628906 L 171.785156 196.664062 C 172.617188 196.6875 173.464844 196.703125 174.308594 196.71875 L 174.308594 211.6875 " fill-opacity="1" fill-rule="nonzero"/><path fill="#e98b1b" d="M 177.398438 211.710938 C 176.957031 211.710938 176.515625 211.703125 176.082031 211.695312 L 176.082031 196.730469 C 176.515625 196.738281 176.957031 196.742188 177.398438 196.742188 C 177.800781 196.742188 178.203125 196.738281 178.601562 196.738281 L 178.601562 211.695312 C 178.203125 211.703125 177.800781 211.710938 177.398438 211.710938 " fill-opacity="1" fill-rule="nonzero"/><path fill="#e98b1b" d="M 180.382812 211.6875 L 180.382812 196.71875 C 181.222656 196.707031 182.0625 196.691406 182.90625 196.671875 L 182.90625 211.632812 C 182.0625 211.652344 181.222656 211.667969 180.382812 211.6875 " fill-opacity="1" fill-rule="nonzero"/><path fill="#e98b1b" d="M 184.675781 211.582031 L 184.675781 196.625 C 185.523438 196.589844 186.359375 196.554688 187.199219 196.515625 L 187.199219 211.480469 C 186.359375 211.515625 185.523438 211.558594 184.675781 211.582031 " fill-opacity="1" fill-rule="nonzero"/><path fill="#e98b1b" d="M 188.972656 211.394531 L 188.972656 196.4375 C 189.820312 196.394531 190.65625 196.335938 191.5 196.277344 L 191.5 211.238281 C 190.65625 211.292969 189.820312 211.351562 188.972656 211.394531 " fill-opacity="1" fill-rule="nonzero"/><path fill="#e98b1b" d="M 193.265625 211.109375 L 193.265625 196.15625 C 194.113281 196.09375 194.957031 196.027344 195.792969 195.953125 L 195.792969 210.90625 C 194.960938 210.980469 194.113281 211.046875 193.265625 211.109375 " fill-opacity="1" fill-rule="nonzero"/><path fill="#e98b1b" d="M 197.5625 210.738281 L 197.5625 195.789062 C 198.410156 195.707031 199.257812 195.628906 200.089844 195.535156 L 200.089844 210.476562 C 199.257812 210.570312 198.410156 210.652344 197.5625 210.738281 " fill-opacity="1" fill-rule="nonzero"/><path fill="#e98b1b" d="M 201.859375 210.265625 L 201.859375 195.328125 C 202.707031 195.222656 203.554688 195.117188 204.386719 195.003906 L 204.386719 209.949219 C 203.554688 210.058594 202.707031 210.160156 201.859375 210.265625 " fill-opacity="1" fill-rule="nonzero"/><path fill="#e98b1b" d="M 161.417969 211.105469 C 160.574219 211.039062 159.730469 210.972656 158.886719 210.898438 L 158.886719 195.949219 C 159.730469 196.015625 160.574219 196.085938 161.417969 196.148438 L 161.417969 211.105469 " fill-opacity="1" fill-rule="nonzero"/><path fill="#e98b1b" d="M 157.125 210.726562 C 156.273438 210.644531 155.429688 210.554688 154.59375 210.46875 L 154.59375 195.519531 C 155.429688 195.613281 156.273438 195.695312 157.125 195.777344 L 157.125 210.726562 " fill-opacity="1" fill-rule="nonzero"/><path fill="#e98b1b" d="M 152.824219 210.25 C 151.976562 210.148438 151.132812 210.042969 150.296875 209.925781 L 150.296875 194.992188 C 151.132812 195.101562 151.976562 195.210938 152.824219 195.3125 L 152.824219 210.25 " fill-opacity="1" fill-rule="nonzero"/><path fill="#e98b1b" d="M 127.039062 204.882812 C 126.179688 204.613281 125.335938 204.332031 124.511719 204.042969 L 124.511719 189.222656 C 125.335938 189.5 126.183594 189.78125 127.039062 190.039062 L 127.039062 204.882812 " fill-opacity="1" fill-rule="nonzero"/><path fill="#e98b1b" d="M 122.503906 203.3125 C 121.726562 203.015625 120.957031 202.710938 120.21875 202.402344 L 120.21875 187.644531 C 121.039062 187.96875 121.878906 188.292969 122.746094 188.601562 L 122.746094 203.0625 C 122.746094 203.15625 122.644531 203.238281 122.503906 203.3125 " fill-opacity="1" fill-rule="nonzero"/><path fill="#e98b1b" d="M 117.800781 201.351562 C 117.152344 201.058594 116.53125 200.757812 115.921875 200.453125 L 115.921875 185.761719 C 116.738281 186.152344 117.574219 186.539062 118.449219 186.917969 L 118.449219 200.972656 C 118.449219 201.136719 118.171875 201.277344 117.800781 201.351562 " fill-opacity="1" fill-rule="nonzero"/><path fill="#e98b1b" d="M 113.621094 199.230469 C 112.933594 198.84375 112.261719 198.445312 111.625 198.039062 L 111.625 183.453125 C 112.425781 183.933594 113.261719 184.417969 114.152344 184.878906 L 114.152344 198.882812 C 114.152344 199.027344 113.933594 199.152344 113.621094 199.230469 " fill-opacity="1" fill-rule="nonzero"/><path fill="#e98b1b" d="M 109.835938 196.828125 C 108.914062 196.164062 108.089844 195.480469 107.328125 194.785156 L 107.328125 180.464844 C 108.097656 181.09375 108.949219 181.714844 109.851562 182.328125 L 109.851562 196.792969 L 109.835938 196.828125 " fill-opacity="1" fill-rule="nonzero"/><path fill="#e98b1b" d="M 105.554688 192.996094 C 104.414062 191.683594 103.574219 190.328125 103.027344 188.9375 L 103.027344 175.726562 C 103.695312 176.792969 104.539062 177.835938 105.554688 178.847656 L 105.554688 192.996094 " fill-opacity="1" fill-rule="nonzero"/><path fill="#e98b1b" d="M 256.550781 163.777344 L 256.550781 147.789062 L 104.210938 147.789062 L 104.210938 163.777344 C 104.210938 178.582031 138.3125 190.585938 180.382812 190.585938 C 222.445312 190.585938 256.550781 178.582031 256.550781 163.777344 " fill-opacity="1" fill-rule="nonzero"/><path fill="#f5c116" d="M 180.382812 173.417969 C 138.3125 173.417969 104.210938 161.417969 104.210938 146.613281 C 104.210938 131.808594 138.3125 119.804688 180.382812 119.804688 C 222.445312 119.804688 256.550781 131.808594 256.550781 146.613281 C 256.550781 161.417969 222.445312 173.417969 180.382812 173.417969 " fill-opacity="1" fill-rule="nonzero"/><path fill="#e98b1b" d="M 184.964844 157.078125 C 188.015625 156.878906 190.5 156.375 192.417969 155.582031 C 194.332031 154.789062 195.292969 153.851562 195.292969 152.777344 C 195.292969 151.816406 194.488281 150.984375 192.875 150.289062 C 191.265625 149.59375 188.636719 149.054688 184.964844 148.6875 L 184.964844 157.078125 M 176.101562 134.191406 C 173.699219 134.476562 171.777344 134.964844 170.355469 135.652344 C 168.929688 136.339844 168.21875 137.101562 168.21875 137.933594 C 168.21875 138.695312 168.867188 139.402344 170.171875 140.050781 C 171.476562 140.699219 173.449219 141.230469 176.101562 141.632812 L 176.101562 134.191406 M 176.101562 156.777344 L 176.101562 147.765625 C 168.117188 146.957031 162.261719 145.746094 158.527344 144.113281 C 154.800781 142.492188 152.9375 140.515625 152.9375 138.191406 C 152.9375 135.835938 155.046875 133.859375 159.261719 132.261719 C 163.472656 130.664062 169.09375 129.742188 176.101562 129.5 L 176.101562 127.371094 L 184.964844 127.371094 L 184.964844 129.5 C 191.441406 129.769531 196.589844 130.550781 200.425781 131.832031 C 204.261719 133.117188 206.703125 134.835938 207.757812 136.984375 L 192.296875 137.699219 C 191.359375 136.003906 188.910156 134.855469 184.964844 134.257812 L 184.964844 142.667969 C 194.742188 143.597656 201.410156 144.808594 204.949219 146.289062 C 208.496094 147.773438 210.265625 149.675781 210.265625 152 C 210.265625 154.59375 208.03125 156.785156 203.582031 158.558594 C 199.109375 160.339844 192.910156 161.429688 184.964844 161.832031 L 184.964844 165.855469 L 176.101562 165.855469 L 176.101562 161.9375 C 169.050781 161.640625 163.324219 160.71875 158.921875 159.164062 C 154.523438 157.609375 151.71875 155.425781 150.492188 152.605469 L 166.441406 152 C 167.097656 153.148438 168.3125 154.136719 170.109375 154.972656 C 171.902344 155.800781 173.898438 156.402344 176.101562 156.777344 " fill-opacity="1" fill-rule="nonzero"/><path fill="#e98b1b" d="M 247.941406 174.515625 L 247.921875 174.480469 L 247.921875 160.011719 C 248.828125 159.402344 249.675781 158.78125 250.453125 158.144531 L 250.453125 172.472656 C 249.6875 173.164062 248.863281 173.847656 247.941406 174.515625 " fill-opacity="1" fill-rule="nonzero"/><path fill="#e98b1b" d="M 244.152344 176.921875 C 243.84375 176.835938 243.625 176.714844 243.625 176.570312 L 243.625 162.566406 C 244.515625 162.097656 245.347656 161.625 246.152344 161.136719 L 246.152344 175.722656 C 245.515625 176.128906 244.84375 176.527344 244.152344 176.921875 " fill-opacity="1" fill-rule="nonzero"/><path fill="#e98b1b" d="M 252.222656 170.679688 L 252.222656 156.539062 C 253.234375 155.523438 254.078125 154.476562 254.746094 153.414062 L 254.746094 166.621094 C 254.199219 168.007812 253.355469 169.367188 252.222656 170.679688 " fill-opacity="1" fill-rule="nonzero"/><path fill="#e98b1b" d="M 239.976562 179.039062 C 239.597656 178.960938 239.328125 178.824219 239.328125 178.660156 L 239.328125 164.597656 C 240.207031 164.222656 241.039062 163.839844 241.855469 163.445312 L 241.855469 178.136719 C 241.246094 178.441406 240.621094 178.742188 239.976562 179.039062 " fill-opacity="1" fill-rule="nonzero"/><path fill="#e98b1b" d="M 235.269531 180.996094 C 235.132812 180.925781 235.035156 180.839844 235.035156 180.746094 L 235.035156 166.285156 C 235.894531 165.976562 236.738281 165.648438 237.558594 165.324219 L 237.558594 180.09375 C 236.8125 180.398438 236.054688 180.699219 235.269531 180.996094 " fill-opacity="1" fill-rule="nonzero"/><path fill="#e98b1b" d="M 230.734375 182.570312 L 230.734375 167.726562 C 231.59375 167.460938 232.441406 167.191406 233.261719 166.90625 L 233.261719 181.730469 C 232.441406 182.015625 231.597656 182.300781 230.734375 182.570312 " fill-opacity="1" fill-rule="nonzero"/><path fill="#e98b1b" d="M 226.4375 183.835938 L 226.4375 168.972656 C 227.292969 168.746094 228.140625 168.511719 228.960938 168.269531 L 228.960938 183.113281 C 228.136719 183.359375 227.296875 183.597656 226.4375 183.835938 " fill-opacity="1" fill-rule="nonzero"/><path fill="#e98b1b" d="M 222.136719 184.933594 L 222.136719 170.039062 C 223 169.839844 223.832031 169.636719 224.671875 169.425781 L 224.671875 184.308594 C 223.832031 184.515625 223 184.730469 222.136719 184.933594 " fill-opacity="1" fill-rule="nonzero"/><path fill="#e98b1b" d="M 217.84375 185.867188 L 217.84375 170.964844 C 218.691406 170.792969 219.539062 170.621094 220.367188 170.4375 L 220.367188 185.332031 C 219.539062 185.515625 218.691406 185.691406 217.84375 185.867188 " fill-opacity="1" fill-rule="nonzero"/><path fill="#e98b1b" d="M 213.550781 186.679688 L 213.550781 171.761719 C 214.398438 171.617188 215.238281 171.464844 216.074219 171.308594 L 216.074219 186.222656 C 215.242188 186.382812 214.398438 186.53125 213.550781 186.679688 " fill-opacity="1" fill-rule="nonzero"/><path fill="#e98b1b" d="M 209.25 187.371094 L 209.25 172.429688 C 210.097656 172.3125 210.941406 172.179688 211.773438 172.042969 L 211.773438 186.976562 C 210.941406 187.109375 210.097656 187.246094 209.25 187.371094 " fill-opacity="1" fill-rule="nonzero"/><path fill="#e98b1b" d="M 151.507812 187.371094 C 150.660156 187.246094 149.816406 187.109375 148.984375 186.976562 L 148.984375 172.042969 C 149.816406 172.179688 150.660156 172.3125 151.507812 172.429688 L 151.507812 187.371094 " fill-opacity="1" fill-rule="nonzero"/><path fill="#e98b1b" d="M 147.210938 186.679688 C 146.359375 186.53125 145.515625 186.382812 144.683594 186.222656 L 144.683594 171.308594 C 145.523438 171.464844 146.359375 171.617188 147.210938 171.761719 L 147.210938 186.679688 " fill-opacity="1" fill-rule="nonzero"/><path fill="#e98b1b" d="M 142.914062 185.867188 C 142.0625 185.691406 141.21875 185.515625 140.386719 185.332031 L 140.386719 170.4375 C 141.21875 170.621094 142.0625 170.792969 142.914062 170.964844 L 142.914062 185.867188 " fill-opacity="1" fill-rule="nonzero"/><path fill="#e98b1b" d="M 138.617188 184.933594 C 137.761719 184.730469 136.921875 184.515625 136.089844 184.308594 L 136.089844 169.425781 C 136.921875 169.636719 137.761719 169.839844 138.617188 170.039062 L 138.617188 184.933594 " fill-opacity="1" fill-rule="nonzero"/><path fill="#e98b1b" d="M 134.320312 183.835938 C 133.464844 183.597656 132.617188 183.359375 131.792969 183.113281 L 131.792969 168.269531 C 132.617188 168.511719 133.464844 168.746094 134.320312 168.972656 L 134.320312 183.835938 " fill-opacity="1" fill-rule="nonzero"/><path fill="#e98b1b" d="M 172.992188 189.269531 C 172.144531 189.234375 171.308594 189.199219 170.464844 189.160156 L 170.464844 174.199219 C 171.308594 174.238281 172.144531 174.273438 172.992188 174.304688 L 172.992188 189.269531 " fill-opacity="1" fill-rule="nonzero"/><path fill="#e98b1b" d="M 168.699219 189.074219 C 167.851562 189.03125 167.011719 188.972656 166.171875 188.914062 L 166.171875 173.957031 C 167.011719 174.015625 167.851562 174.070312 168.699219 174.117188 L 168.699219 189.074219 " fill-opacity="1" fill-rule="nonzero"/><path fill="#e98b1b" d="M 177.289062 189.371094 C 176.441406 189.355469 175.601562 189.335938 174.765625 189.3125 L 174.765625 174.351562 C 175.601562 174.375 176.441406 174.394531 177.289062 174.402344 L 177.289062 189.371094 " fill-opacity="1" fill-rule="nonzero"/><path fill="#e98b1b" d="M 180.382812 189.394531 C 179.9375 189.394531 179.5 189.386719 179.0625 189.382812 L 179.0625 174.417969 C 179.5 174.421875 179.9375 174.433594 180.382812 174.433594 C 180.785156 174.433594 181.183594 174.425781 181.589844 174.421875 L 181.589844 189.382812 C 181.183594 189.386719 180.785156 189.394531 180.382812 189.394531 " fill-opacity="1" fill-rule="nonzero"/><path fill="#e98b1b" d="M 183.363281 189.371094 L 183.363281 174.402344 C 184.199219 174.394531 185.046875 174.378906 185.886719 174.351562 L 185.886719 189.316406 C 185.046875 189.339844 184.199219 189.355469 183.363281 189.371094 " fill-opacity="1" fill-rule="nonzero"/><path fill="#e98b1b" d="M 187.65625 189.269531 L 187.65625 174.308594 C 188.503906 174.277344 189.34375 174.238281 190.179688 174.203125 L 190.179688 189.160156 C 189.34375 189.203125 188.503906 189.242188 187.65625 189.269531 " fill-opacity="1" fill-rule="nonzero"/><path fill="#e98b1b" d="M 191.957031 189.082031 L 191.957031 174.125 C 192.804688 174.078125 193.636719 174.019531 194.480469 173.964844 L 194.480469 188.921875 C 193.636719 188.976562 192.804688 189.035156 191.957031 189.082031 " fill-opacity="1" fill-rule="nonzero"/><path fill="#e98b1b" d="M 196.25 188.796875 L 196.25 173.847656 C 197.101562 173.777344 197.9375 173.710938 198.773438 173.640625 L 198.773438 188.597656 C 197.941406 188.667969 197.101562 188.738281 196.25 188.796875 " fill-opacity="1" fill-rule="nonzero"/><path fill="#e98b1b" d="M 200.542969 188.421875 L 200.542969 173.472656 C 201.394531 173.390625 202.242188 173.3125 203.074219 173.21875 L 203.074219 188.160156 C 202.242188 188.257812 201.394531 188.335938 200.542969 188.421875 " fill-opacity="1" fill-rule="nonzero"/><path fill="#e98b1b" d="M 204.839844 187.949219 L 204.839844 173.011719 C 205.695312 172.910156 206.535156 172.804688 207.367188 172.691406 L 207.367188 187.632812 C 206.535156 187.742188 205.695312 187.847656 204.839844 187.949219 " fill-opacity="1" fill-rule="nonzero"/><path fill="#e98b1b" d="M 164.394531 188.789062 C 163.554688 188.726562 162.707031 188.65625 161.871094 188.585938 L 161.871094 173.632812 C 162.707031 173.703125 163.554688 173.773438 164.394531 173.835938 L 164.394531 188.789062 " fill-opacity="1" fill-rule="nonzero"/><path fill="#e98b1b" d="M 160.105469 188.410156 C 159.253906 188.328125 158.414062 188.246094 157.578125 188.152344 L 157.578125 173.207031 C 158.414062 173.296875 159.253906 173.378906 160.105469 173.464844 L 160.105469 188.410156 " fill-opacity="1" fill-rule="nonzero"/><path fill="#e98b1b" d="M 155.804688 187.9375 C 154.957031 187.832031 154.113281 187.726562 153.28125 187.609375 L 153.28125 172.679688 C 154.113281 172.792969 154.957031 172.894531 155.804688 172.996094 L 155.804688 187.9375 " fill-opacity="1" fill-rule="nonzero"/><path fill="#e98b1b" d="M 130.023438 182.570312 C 129.160156 182.300781 128.316406 182.015625 127.496094 181.730469 L 127.496094 166.90625 C 128.316406 167.191406 129.164062 167.460938 130.023438 167.726562 L 130.023438 182.570312 " fill-opacity="1" fill-rule="nonzero"/><path fill="#e98b1b" d="M 125.488281 180.996094 C 124.707031 180.699219 123.941406 180.398438 123.199219 180.09375 L 123.199219 165.324219 C 124.019531 165.648438 124.859375 165.976562 125.726562 166.285156 L 125.726562 180.746094 C 125.726562 180.839844 125.625 180.925781 125.488281 180.996094 " fill-opacity="1" fill-rule="nonzero"/><path fill="#e98b1b" d="M 120.78125 179.039062 C 120.132812 178.742188 119.511719 178.441406 118.902344 178.136719 L 118.902344 163.445312 C 119.714844 163.839844 120.554688 164.222656 121.429688 164.597656 L 121.429688 178.660156 C 121.429688 178.824219 121.160156 178.960938 120.78125 179.039062 " fill-opacity="1" fill-rule="nonzero"/><path fill="#e98b1b" d="M 116.605469 176.921875 C 115.914062 176.527344 115.242188 176.128906 114.605469 175.722656 L 114.605469 161.136719 C 115.410156 161.625 116.242188 162.097656 117.128906 162.566406 L 117.128906 176.570312 C 117.128906 176.714844 116.914062 176.835938 116.605469 176.921875 " fill-opacity="1" fill-rule="nonzero"/><path fill="#e98b1b" d="M 112.816406 174.515625 C 111.894531 173.847656 111.066406 173.164062 110.304688 172.472656 L 110.304688 158.144531 C 111.078125 158.78125 111.929688 159.402344 112.835938 160.011719 L 112.835938 174.480469 L 112.816406 174.515625 " fill-opacity="1" fill-rule="nonzero"/><path fill="#e98b1b" d="M 108.535156 170.679688 C 107.398438 169.367188 106.554688 168.015625 106.011719 166.621094 L 106.011719 154.238281 C 106.351562 154.460938 106.707031 154.679688 107.066406 154.898438 C 107.507812 155.453125 108 156 108.535156 156.539062 L 108.535156 170.679688 " fill-opacity="1" fill-rule="nonzero"/><path fill="#e98b1b" d="M 249.160156 141.460938 L 249.160156 125.476562 L 96.824219 125.476562 L 96.824219 141.460938 C 96.824219 156.273438 130.929688 168.269531 172.992188 168.269531 C 215.054688 168.269531 249.160156 156.273438 249.160156 141.460938 " fill-opacity="1" fill-rule="nonzero"/><path fill="#f5c116" d="M 172.992188 151.105469 C 130.929688 151.105469 96.824219 139.101562 96.824219 124.296875 C 96.824219 109.492188 130.929688 97.488281 172.992188 97.488281 C 215.054688 97.488281 249.160156 109.492188 249.160156 124.296875 C 249.160156 139.101562 215.054688 151.105469 172.992188 151.105469 " fill-opacity="1" fill-rule="nonzero"/><path fill="#e98b1b" d="M 177.578125 134.765625 C 180.628906 134.558594 183.117188 134.066406 185.035156 133.269531 C 186.945312 132.472656 187.902344 131.535156 187.902344 130.460938 C 187.902344 129.5 187.101562 128.671875 185.492188 127.980469 C 183.878906 127.285156 181.25 126.742188 177.578125 126.371094 L 177.578125 134.765625 M 168.714844 111.875 C 166.308594 112.164062 164.394531 112.648438 162.96875 113.335938 C 161.542969 114.027344 160.828125 114.785156 160.828125 115.617188 C 160.828125 116.382812 161.480469 117.085938 162.785156 117.734375 C 164.089844 118.390625 166.0625 118.917969 168.714844 119.316406 L 168.714844 111.875 M 168.714844 134.460938 L 168.714844 125.449219 C 160.726562 124.644531 154.875 123.433594 151.140625 121.800781 C 147.414062 120.175781 145.550781 118.203125 145.550781 115.875 C 145.550781 113.527344 147.65625 111.546875 151.878906 109.945312 C 156.089844 108.351562 161.707031 107.429688 168.714844 107.1875 L 168.714844 105.058594 L 177.578125 105.058594 L 177.578125 107.1875 C 184.054688 107.457031 189.203125 108.234375 193.039062 109.519531 C 196.875 110.800781 199.316406 112.519531 200.371094 114.671875 L 184.910156 115.382812 C 183.972656 113.6875 181.523438 112.539062 177.578125 111.941406 L 177.578125 120.351562 C 187.355469 121.28125 194.023438 122.492188 197.5625 123.972656 C 201.109375 125.460938 202.878906 127.359375 202.878906 129.683594 C 202.878906 132.285156 200.652344 134.46875 196.195312 136.246094 C 191.726562 138.023438 185.523438 139.113281 177.578125 139.519531 L 177.578125 143.539062 L 168.714844 143.539062 L 168.714844 139.628906 C 161.664062 139.324219 155.9375 138.402344 151.535156 136.851562 C 147.136719 135.300781 144.328125 133.113281 143.105469 130.289062 L 159.054688 129.683594 C 159.710938 130.832031 160.929688 131.816406 162.722656 132.65625 C 164.515625 133.484375 166.515625 134.085938 168.714844 134.460938 " fill-opacity="1" fill-rule="nonzero"/><path fill="#e98b1b" d="M 240.554688 152.199219 L 240.535156 152.167969 L 240.535156 137.699219 C 241.441406 137.085938 242.289062 136.464844 243.0625 135.828125 L 243.0625 150.160156 C 242.304688 150.851562 241.476562 151.535156 240.554688 152.199219 " fill-opacity="1" fill-rule="nonzero"/><path fill="#e98b1b" d="M 236.765625 154.605469 C 236.457031 154.519531 236.238281 154.398438 236.238281 154.257812 L 236.238281 140.25 C 237.128906 139.785156 237.960938 139.308594 238.765625 138.824219 L 238.765625 153.40625 C 238.128906 153.816406 237.457031 154.214844 236.765625 154.605469 " fill-opacity="1" fill-rule="nonzero"/><path fill="#e98b1b" d="M 244.835938 148.363281 L 244.835938 134.222656 C 245.851562 133.203125 246.695312 132.164062 247.359375 131.101562 L 247.359375 144.308594 C 246.8125 145.699219 245.972656 147.054688 244.835938 148.363281 " fill-opacity="1" fill-rule="nonzero"/><path fill="#e98b1b" d="M 232.589844 156.722656 C 232.210938 156.644531 231.941406 156.507812 231.941406 156.34375 L 231.941406 142.28125 C 232.816406 141.90625 233.652344 141.523438 234.46875 141.128906 L 234.46875 155.824219 C 233.859375 156.128906 233.234375 156.429688 232.589844 156.722656 " fill-opacity="1" fill-rule="nonzero"/><path fill="#e98b1b" d="M 227.882812 158.679688 C 227.746094 158.605469 227.644531 158.523438 227.644531 158.433594 L 227.644531 143.972656 C 228.511719 143.660156 229.351562 143.339844 230.171875 143.011719 L 230.171875 157.777344 C 229.429688 158.085938 228.660156 158.390625 227.882812 158.679688 " fill-opacity="1" fill-rule="nonzero"/><path fill="#e98b1b" d="M 223.347656 160.257812 L 223.347656 145.414062 C 224.207031 145.152344 225.050781 144.875 225.875 144.589844 L 225.875 159.414062 C 225.050781 159.707031 224.210938 159.984375 223.347656 160.257812 " fill-opacity="1" fill-rule="nonzero"/><path fill="#e98b1b" d="M 219.050781 161.519531 L 219.050781 146.660156 C 219.90625 146.429688 220.753906 146.199219 221.578125 145.957031 L 221.578125 160.796875 C 220.75 161.042969 219.90625 161.28125 219.050781 161.519531 " fill-opacity="1" fill-rule="nonzero"/><path fill="#e98b1b" d="M 214.753906 162.617188 L 214.753906 147.726562 C 215.609375 147.527344 216.449219 147.320312 217.277344 147.113281 L 217.277344 161.988281 C 216.449219 162.207031 215.609375 162.417969 214.753906 162.617188 " fill-opacity="1" fill-rule="nonzero"/><path fill="#e98b1b" d="M 210.457031 163.550781 L 210.457031 148.648438 C 211.304688 148.476562 212.152344 148.304688 212.980469 148.125 L 212.980469 163.015625 C 212.152344 163.203125 211.304688 163.382812 210.457031 163.550781 " fill-opacity="1" fill-rule="nonzero"/><path fill="#e98b1b" d="M 206.160156 164.367188 L 206.160156 149.449219 C 207.015625 149.300781 207.851562 149.148438 208.6875 148.992188 L 208.6875 163.910156 C 207.859375 164.066406 207.007812 164.222656 206.160156 164.367188 " fill-opacity="1" fill-rule="nonzero"/><path fill="#e98b1b" d="M 201.859375 165.054688 L 201.859375 150.117188 C 202.710938 149.996094 203.554688 149.863281 204.386719 149.734375 L 204.386719 164.660156 C 203.554688 164.796875 202.710938 164.925781 201.859375 165.054688 " fill-opacity="1" fill-rule="nonzero"/><path fill="#e98b1b" d="M 144.121094 165.054688 C 143.273438 164.925781 142.425781 164.796875 141.597656 164.660156 L 141.597656 149.734375 C 142.425781 149.863281 143.273438 149.996094 144.121094 150.117188 L 144.121094 165.054688 " fill-opacity="1" fill-rule="nonzero"/><path fill="#e98b1b" d="M 139.824219 164.367188 C 138.976562 164.222656 138.128906 164.066406 137.296875 163.910156 L 137.296875 148.992188 C 138.128906 149.148438 138.972656 149.300781 139.824219 149.449219 L 139.824219 164.367188 " fill-opacity="1" fill-rule="nonzero"/><path fill="#e98b1b" d="M 135.527344 163.550781 C 134.671875 163.382812 133.832031 163.203125 133 163.015625 L 133 148.125 C 133.832031 148.304688 134.671875 148.476562 135.527344 148.648438 L 135.527344 163.550781 " fill-opacity="1" fill-rule="nonzero"/><path fill="#e98b1b" d="M 131.230469 162.617188 C 130.371094 162.417969 129.53125 162.207031 128.703125 161.988281 L 128.703125 147.113281 C 129.53125 147.320312 130.371094 147.527344 131.230469 147.726562 L 131.230469 162.617188 " fill-opacity="1" fill-rule="nonzero"/><path fill="#e98b1b" d="M 126.933594 161.519531 C 126.078125 161.28125 125.234375 161.042969 124.40625 160.796875 L 124.40625 145.957031 C 125.230469 146.199219 126.078125 146.429688 126.933594 146.660156 L 126.933594 161.519531 " fill-opacity="1" fill-rule="nonzero"/><path fill="#e98b1b" d="M 165.605469 166.953125 C 164.757812 166.925781 163.921875 166.882812 163.078125 166.84375 L 163.078125 151.882812 C 163.921875 151.921875 164.757812 151.960938 165.605469 151.992188 L 165.605469 166.953125 " fill-opacity="1" fill-rule="nonzero"/><path fill="#e98b1b" d="M 161.3125 166.761719 C 160.460938 166.714844 159.625 166.660156 158.785156 166.605469 L 158.785156 151.640625 C 159.625 151.699219 160.460938 151.753906 161.3125 151.804688 L 161.3125 166.761719 " fill-opacity="1" fill-rule="nonzero"/><path fill="#e98b1b" d="M 169.902344 167.054688 C 169.058594 167.046875 168.21875 167.019531 167.378906 167 L 167.378906 152.035156 C 168.21875 152.058594 169.058594 152.078125 169.902344 152.089844 L 169.902344 167.054688 " fill-opacity="1" fill-rule="nonzero"/><path fill="#e98b1b" d="M 172.992188 167.082031 C 172.550781 167.082031 172.113281 167.070312 171.675781 167.070312 L 171.675781 152.101562 C 172.113281 152.105469 172.550781 152.117188 172.992188 152.117188 C 173.398438 152.117188 173.796875 152.109375 174.199219 152.105469 L 174.199219 167.070312 C 173.796875 167.070312 173.398438 167.082031 172.992188 167.082031 " fill-opacity="1" fill-rule="nonzero"/><path fill="#e98b1b" d="M 175.976562 167.054688 L 175.976562 152.089844 C 176.816406 152.082031 177.65625 152.066406 178.5 152.042969 L 178.5 167 C 177.65625 167.027344 176.816406 167.046875 175.976562 167.054688 " fill-opacity="1" fill-rule="nonzero"/><path fill="#e98b1b" d="M 180.269531 166.953125 L 180.269531 151.992188 C 181.113281 151.960938 181.957031 151.925781 182.796875 151.890625 L 182.796875 166.847656 C 181.957031 166.886719 181.113281 166.929688 180.269531 166.953125 " fill-opacity="1" fill-rule="nonzero"/><path fill="#e98b1b" d="M 184.566406 166.765625 L 184.566406 151.808594 C 185.414062 151.765625 186.25 151.707031 187.089844 151.652344 L 187.089844 166.609375 C 186.25 166.664062 185.414062 166.722656 184.566406 166.765625 " fill-opacity="1" fill-rule="nonzero"/><path fill="#e98b1b" d="M 188.859375 166.484375 L 188.859375 151.53125 C 189.710938 151.464844 190.554688 151.398438 191.386719 151.324219 L 191.386719 166.277344 C 190.558594 166.355469 189.710938 166.421875 188.859375 166.484375 " fill-opacity="1" fill-rule="nonzero"/><path fill="#e98b1b" d="M 193.15625 166.109375 L 193.15625 151.160156 C 194.003906 151.078125 194.851562 150.996094 195.683594 150.90625 L 195.683594 165.847656 C 194.851562 165.941406 194.003906 166.027344 193.15625 166.109375 " fill-opacity="1" fill-rule="nonzero"/><path fill="#e98b1b" d="M 197.453125 165.640625 L 197.453125 150.699219 C 198.304688 150.589844 199.148438 150.492188 199.980469 150.378906 L 199.980469 165.316406 C 199.148438 165.429688 198.304688 165.535156 197.453125 165.640625 " fill-opacity="1" fill-rule="nonzero"/><path fill="#e98b1b" d="M 157.011719 166.476562 C 156.167969 166.410156 155.324219 166.347656 154.484375 166.269531 L 154.484375 151.316406 C 155.324219 151.390625 156.167969 151.457031 157.011719 151.523438 L 157.011719 166.476562 " fill-opacity="1" fill-rule="nonzero"/><path fill="#e98b1b" d="M 152.714844 166.097656 C 151.871094 166.019531 151.023438 165.933594 150.191406 165.835938 L 150.191406 150.894531 C 151.023438 150.984375 151.871094 151.066406 152.714844 151.148438 L 152.714844 166.097656 " fill-opacity="1" fill-rule="nonzero"/><path fill="#e98b1b" d="M 148.417969 165.625 C 147.570312 165.519531 146.726562 165.410156 145.894531 165.300781 L 145.894531 150.363281 C 146.722656 150.476562 147.570312 150.582031 148.417969 150.683594 L 148.417969 165.625 " fill-opacity="1" fill-rule="nonzero"/><path fill="#e98b1b" d="M 122.636719 160.257812 C 121.773438 159.984375 120.933594 159.707031 120.109375 159.414062 L 120.109375 144.589844 C 120.933594 144.875 121.777344 145.152344 122.636719 145.414062 L 122.636719 160.257812 " fill-opacity="1" fill-rule="nonzero"/><path fill="#e98b1b" d="M 118.105469 158.679688 C 117.316406 158.390625 116.550781 158.085938 115.8125 157.777344 L 115.8125 143.011719 C 116.636719 143.339844 117.472656 143.660156 118.339844 143.972656 L 118.339844 158.433594 C 118.339844 158.523438 118.238281 158.605469 118.105469 158.679688 " fill-opacity="1" fill-rule="nonzero"/><path fill="#e98b1b" d="M 113.394531 156.722656 C 112.742188 156.429688 112.128906 156.128906 111.515625 155.824219 L 111.515625 141.128906 C 112.328125 141.523438 113.167969 141.90625 114.042969 142.28125 L 114.042969 156.34375 C 114.042969 156.507812 113.769531 156.644531 113.394531 156.722656 " fill-opacity="1" fill-rule="nonzero"/><path fill="#e98b1b" d="M 109.21875 154.605469 C 108.527344 154.214844 107.855469 153.816406 107.21875 153.40625 L 107.21875 138.824219 C 108.023438 139.308594 108.851562 139.785156 109.742188 140.25 L 109.742188 154.257812 C 109.742188 154.398438 109.527344 154.519531 109.21875 154.605469 " fill-opacity="1" fill-rule="nonzero"/><path fill="#e98b1b" d="M 105.429688 152.199219 C 104.507812 151.535156 103.679688 150.851562 102.921875 150.160156 L 102.921875 135.828125 C 103.691406 136.464844 104.542969 137.085938 105.445312 137.699219 L 105.445312 152.167969 L 105.429688 152.199219 " fill-opacity="1" fill-rule="nonzero"/><path fill="#e98b1b" d="M 101.148438 148.363281 C 100.015625 147.054688 99.171875 145.699219 98.625 144.308594 L 98.625 131.101562 C 99.289062 132.164062 100.136719 133.203125 101.148438 134.222656 L 101.148438 148.363281 " fill-opacity="1" fill-rule="nonzero"/><g clip-path="url(#8e576a2c64)"><path fill="#e98b1b" d="M 259.53125 113.636719 L 259.53125 97.65625 L 107.191406 97.65625 L 107.191406 113.636719 C 107.191406 128.445312 141.292969 140.445312 183.363281 140.445312 C 225.425781 140.445312 259.53125 128.445312 259.53125 113.636719 " fill-opacity="1" fill-rule="nonzero"/></g><g clip-path="url(#ca7f2bf3fe)"><path fill="#f5c116" d="M 183.363281 123.28125 C 141.292969 123.28125 107.191406 111.277344 107.191406 96.476562 C 107.191406 81.664062 141.292969 69.667969 183.363281 69.667969 C 225.425781 69.667969 259.53125 81.664062 259.53125 96.476562 C 259.53125 111.277344 225.425781 123.28125 183.363281 123.28125 " fill-opacity="1" fill-rule="nonzero"/></g><path fill="#e98b1b" d="M 187.945312 106.941406 C 190.996094 106.738281 193.484375 106.242188 195.40625 105.445312 C 197.316406 104.648438 198.273438 103.707031 198.273438 102.636719 C 198.273438 101.675781 197.472656 100.847656 195.859375 100.152344 C 194.246094 99.460938 191.621094 98.917969 187.945312 98.546875 L 187.945312 106.941406 M 179.082031 84.054688 C 176.679688 84.335938 174.761719 84.824219 173.339844 85.511719 C 171.914062 86.207031 171.199219 86.964844 171.199219 87.792969 C 171.199219 88.558594 171.847656 89.261719 173.152344 89.914062 C 174.457031 90.5625 176.429688 91.09375 179.082031 91.492188 L 179.082031 84.054688 M 179.082031 106.636719 L 179.082031 97.621094 C 171.09375 96.816406 165.242188 95.605469 161.503906 93.980469 C 157.785156 92.351562 155.917969 90.378906 155.917969 88.054688 C 155.917969 85.699219 158.03125 83.722656 162.242188 82.125 C 166.457031 80.523438 172.074219 79.605469 179.082031 79.363281 L 179.082031 77.230469 L 187.945312 77.230469 L 187.945312 79.363281 C 194.421875 79.632812 199.570312 80.414062 203.40625 81.699219 C 207.242188 82.976562 209.6875 84.695312 210.742188 86.851562 L 195.28125 87.558594 C 194.34375 85.863281 191.894531 84.722656 187.945312 84.117188 L 187.945312 92.527344 C 197.726562 93.453125 204.390625 94.667969 207.933594 96.152344 C 211.476562 97.636719 213.25 99.542969 213.25 101.859375 C 213.25 104.460938 211.015625 106.640625 206.5625 108.417969 C 202.09375 110.203125 195.890625 111.289062 187.945312 111.695312 L 187.945312 115.71875 L 179.082031 115.71875 L 179.082031 111.804688 C 172.03125 111.5 166.304688 110.574219 161.902344 109.027344 C 157.507812 107.476562 154.699219 105.292969 153.472656 102.464844 L 169.421875 101.859375 C 170.078125 103.007812 171.296875 104 173.09375 104.832031 C 174.882812 105.65625 176.882812 106.265625 179.082031 106.636719 " fill-opacity="1" fill-rule="nonzero"/><path fill="#e98b1b" d="M 250.925781 124.375 L 250.902344 124.339844 L 250.902344 109.875 C 251.808594 109.261719 252.660156 108.640625 253.429688 108.007812 L 253.429688 122.332031 C 252.667969 123.027344 251.84375 123.710938 250.925781 124.375 " fill-opacity="1" fill-rule="nonzero"/><path fill="#e98b1b" d="M 247.132812 126.78125 C 246.824219 126.695312 246.605469 126.574219 246.605469 126.429688 L 246.605469 112.425781 C 247.496094 111.964844 248.332031 111.480469 249.136719 111 L 249.136719 125.582031 C 248.5 125.988281 247.828125 126.390625 247.132812 126.78125 " fill-opacity="1" fill-rule="nonzero"/><path fill="#e98b1b" d="M 255.203125 120.539062 L 255.203125 106.394531 C 256.21875 105.378906 257.0625 104.335938 257.726562 103.273438 L 257.726562 116.484375 C 257.179688 117.875 256.339844 119.226562 255.203125 120.539062 " fill-opacity="1" fill-rule="nonzero"/><path fill="#e98b1b" d="M 242.960938 128.902344 C 242.582031 128.824219 242.308594 128.683594 242.308594 128.519531 L 242.308594 114.464844 C 243.183594 114.082031 244.019531 113.695312 244.839844 113.308594 L 244.839844 128 C 244.226562 128.304688 243.601562 128.605469 242.960938 128.902344 " fill-opacity="1" fill-rule="nonzero"/><path fill="#e98b1b" d="M 238.25 130.855469 C 238.109375 130.785156 238.015625 130.703125 238.015625 130.605469 L 238.015625 116.148438 C 238.878906 115.835938 239.71875 115.515625 240.539062 115.1875 L 240.539062 129.953125 C 239.792969 130.257812 239.035156 130.5625 238.25 130.855469 " fill-opacity="1" fill-rule="nonzero"/><path fill="#e98b1b" d="M 233.722656 132.429688 L 233.722656 117.589844 C 234.578125 117.328125 235.421875 117.046875 236.246094 116.765625 L 236.246094 131.589844 C 235.421875 131.878906 234.578125 132.160156 233.722656 132.429688 " fill-opacity="1" fill-rule="nonzero"/><path fill="#e98b1b" d="M 229.417969 133.691406 L 229.417969 118.835938 C 230.273438 118.605469 231.121094 118.371094 231.941406 118.132812 L 231.941406 132.972656 C 231.117188 133.222656 230.28125 133.457031 229.417969 133.691406 " fill-opacity="1" fill-rule="nonzero"/><path fill="#e98b1b" d="M 225.117188 134.796875 L 225.117188 119.902344 C 225.976562 119.703125 226.8125 119.496094 227.648438 119.285156 L 227.648438 134.164062 C 226.8125 134.378906 225.976562 134.59375 225.117188 134.796875 " fill-opacity="1" fill-rule="nonzero"/><path fill="#e98b1b" d="M 220.824219 135.726562 L 220.824219 120.828125 C 221.675781 120.652344 222.519531 120.480469 223.347656 120.300781 L 223.347656 135.195312 C 222.519531 135.382812 221.675781 135.558594 220.824219 135.726562 " fill-opacity="1" fill-rule="nonzero"/><path fill="#e98b1b" d="M 216.53125 136.542969 L 216.53125 121.625 C 217.378906 121.476562 218.21875 121.324219 219.054688 121.164062 L 219.054688 136.089844 C 218.226562 136.242188 217.375 136.394531 216.53125 136.542969 " fill-opacity="1" fill-rule="nonzero"/><path fill="#e98b1b" d="M 212.230469 137.230469 L 212.230469 122.289062 C 213.082031 122.171875 213.921875 122.046875 214.757812 121.910156 L 214.757812 136.835938 C 213.921875 136.96875 213.082031 137.101562 212.230469 137.230469 " fill-opacity="1" fill-rule="nonzero"/><path fill="#e98b1b" d="M 154.488281 137.230469 C 153.640625 137.101562 152.800781 136.96875 151.960938 136.835938 L 151.960938 121.910156 C 152.800781 122.046875 153.640625 122.171875 154.488281 122.289062 L 154.488281 137.230469 " fill-opacity="1" fill-rule="nonzero"/><path fill="#e98b1b" d="M 150.191406 136.542969 C 149.34375 136.394531 148.496094 136.242188 147.664062 136.089844 L 147.664062 121.164062 C 148.503906 121.324219 149.339844 121.476562 150.191406 121.625 L 150.191406 136.542969 " fill-opacity="1" fill-rule="nonzero"/><path fill="#e98b1b" d="M 145.894531 135.726562 C 145.039062 135.558594 144.203125 135.382812 143.367188 135.195312 L 143.367188 120.300781 C 144.203125 120.480469 145.039062 120.652344 145.894531 120.828125 L 145.894531 135.726562 " fill-opacity="1" fill-rule="nonzero"/><path fill="#e98b1b" d="M 141.597656 134.796875 C 140.742188 134.59375 139.902344 134.378906 139.070312 134.164062 L 139.070312 119.285156 C 139.902344 119.496094 140.742188 119.703125 141.597656 119.902344 L 141.597656 134.796875 " fill-opacity="1" fill-rule="nonzero"/><path fill="#e98b1b" d="M 137.300781 133.691406 C 136.441406 133.457031 135.601562 133.222656 134.777344 132.972656 L 134.777344 118.132812 C 135.597656 118.371094 136.445312 118.605469 137.300781 118.835938 L 137.300781 133.691406 " fill-opacity="1" fill-rule="nonzero"/><path fill="#e98b1b" d="M 175.976562 139.128906 C 175.125 139.097656 174.289062 139.058594 173.449219 139.023438 L 173.449219 124.0625 C 174.289062 124.097656 175.125 124.136719 175.976562 124.167969 L 175.976562 139.128906 " fill-opacity="1" fill-rule="nonzero"/><path fill="#e98b1b" d="M 171.675781 138.933594 C 170.832031 138.890625 169.988281 138.835938 169.152344 138.777344 L 169.152344 123.824219 C 169.988281 123.875 170.832031 123.933594 171.675781 123.984375 L 171.675781 138.933594 " fill-opacity="1" fill-rule="nonzero"/><path fill="#e98b1b" d="M 180.273438 139.234375 C 179.425781 139.21875 178.585938 139.199219 177.746094 139.175781 L 177.746094 124.214844 C 178.585938 124.234375 179.425781 124.25 180.273438 124.265625 L 180.273438 139.234375 " fill-opacity="1" fill-rule="nonzero"/><path fill="#e98b1b" d="M 183.363281 139.261719 C 182.917969 139.261719 182.484375 139.25 182.042969 139.242188 L 182.042969 124.277344 C 182.484375 124.285156 182.917969 124.292969 183.363281 124.292969 C 183.765625 124.292969 184.167969 124.285156 184.566406 124.285156 L 184.566406 139.242188 C 184.167969 139.25 183.765625 139.261719 183.363281 139.261719 " fill-opacity="1" fill-rule="nonzero"/><path fill="#e98b1b" d="M 186.34375 139.234375 L 186.34375 124.265625 C 187.1875 124.253906 188.023438 124.238281 188.867188 124.21875 L 188.867188 139.179688 C 188.023438 139.203125 187.1875 139.21875 186.34375 139.234375 " fill-opacity="1" fill-rule="nonzero"/><path fill="#e98b1b" d="M 190.636719 139.128906 L 190.636719 124.167969 C 191.484375 124.140625 192.324219 124.101562 193.160156 124.0625 L 193.160156 139.027344 C 192.324219 139.058594 191.484375 139.101562 190.636719 139.128906 " fill-opacity="1" fill-rule="nonzero"/><path fill="#e98b1b" d="M 194.9375 138.941406 L 194.9375 123.984375 C 195.785156 123.941406 196.621094 123.882812 197.460938 123.824219 L 197.460938 138.78125 C 196.621094 138.839844 195.785156 138.898438 194.9375 138.941406 " fill-opacity="1" fill-rule="nonzero"/><path fill="#e98b1b" d="M 199.234375 138.65625 L 199.234375 123.707031 C 200.078125 123.640625 200.917969 123.574219 201.757812 123.5 L 201.757812 138.453125 C 200.921875 138.527344 200.078125 138.59375 199.234375 138.65625 " fill-opacity="1" fill-rule="nonzero"/><path fill="#e98b1b" d="M 203.527344 138.285156 L 203.527344 123.335938 C 204.371094 123.253906 205.226562 123.171875 206.054688 123.082031 L 206.054688 138.023438 C 205.226562 138.117188 204.371094 138.203125 203.527344 138.285156 " fill-opacity="1" fill-rule="nonzero"/><path fill="#e98b1b" d="M 207.828125 137.816406 L 207.828125 122.875 C 208.675781 122.769531 209.515625 122.667969 210.347656 122.554688 L 210.347656 137.492188 C 209.515625 137.605469 208.675781 137.707031 207.828125 137.816406 " fill-opacity="1" fill-rule="nonzero"/><path fill="#e98b1b" d="M 167.378906 138.652344 C 166.535156 138.582031 165.691406 138.523438 164.855469 138.445312 L 164.855469 123.492188 C 165.691406 123.566406 166.535156 123.632812 167.378906 123.695312 L 167.378906 138.652344 " fill-opacity="1" fill-rule="nonzero"/><path fill="#e98b1b" d="M 163.085938 138.273438 C 162.234375 138.191406 161.390625 138.109375 160.558594 138.015625 L 160.558594 123.070312 C 161.390625 123.164062 162.234375 123.242188 163.085938 123.324219 L 163.085938 138.273438 " fill-opacity="1" fill-rule="nonzero"/><path fill="#e98b1b" d="M 158.785156 137.800781 C 157.9375 137.699219 157.097656 137.589844 156.257812 137.472656 L 156.257812 122.542969 C 157.097656 122.652344 157.9375 122.757812 158.785156 122.859375 L 158.785156 137.800781 " fill-opacity="1" fill-rule="nonzero"/><path fill="#e98b1b" d="M 133 132.429688 C 132.144531 132.160156 131.296875 131.878906 130.476562 131.589844 L 130.476562 116.765625 C 131.296875 117.046875 132.144531 117.328125 133 117.589844 L 133 132.429688 " fill-opacity="1" fill-rule="nonzero"/><path fill="#e98b1b" d="M 128.46875 130.855469 C 127.6875 130.5625 126.925781 130.257812 126.183594 129.953125 L 126.183594 115.1875 C 127 115.515625 127.84375 115.835938 128.703125 116.148438 L 128.703125 130.605469 C 128.703125 130.703125 128.605469 130.785156 128.46875 130.855469 " fill-opacity="1" fill-rule="nonzero"/><path fill="#e98b1b" d="M 123.761719 128.902344 C 123.113281 128.605469 122.492188 128.304688 121.882812 128 L 121.882812 113.308594 C 122.695312 113.695312 123.539062 114.082031 124.40625 114.464844 L 124.40625 128.519531 C 124.40625 128.683594 124.136719 128.824219 123.761719 128.902344 " fill-opacity="1" fill-rule="nonzero"/><path fill="#e98b1b" d="M 119.585938 126.78125 C 118.894531 126.390625 118.222656 125.988281 117.585938 125.582031 L 117.585938 111 C 118.390625 111.480469 119.226562 111.964844 120.113281 112.425781 L 120.113281 126.429688 C 120.113281 126.574219 119.898438 126.695312 119.585938 126.78125 " fill-opacity="1" fill-rule="nonzero"/><path fill="#e98b1b" d="M 115.796875 124.375 C 114.875 123.710938 114.050781 123.027344 113.285156 122.332031 L 113.285156 108.007812 C 114.058594 108.640625 114.914062 109.261719 115.820312 109.875 L 115.820312 124.339844 L 115.796875 124.375 " fill-opacity="1" fill-rule="nonzero"/><path fill="#e98b1b" d="M 111.519531 120.539062 C 110.382812 119.226562 109.539062 117.875 108.988281 116.484375 L 108.988281 106.058594 C 109.808594 106.417969 110.652344 106.773438 111.519531 107.117188 L 111.519531 120.539062 " fill-opacity="1" fill-rule="nonzero"/><g clip-path="url(#18d709d306)"><path fill="#e98b1b" d="M 244.8125 89.386719 L 244.8125 73.398438 L 92.472656 73.398438 L 92.472656 89.386719 C 92.472656 104.195312 126.574219 116.191406 168.640625 116.191406 C 210.710938 116.191406 244.8125 104.195312 244.8125 89.386719 " fill-opacity="1" fill-rule="nonzero"/></g><g clip-path="url(#baa2cb853b)"><path fill="#f5c116" d="M 168.640625 99.027344 C 126.574219 99.027344 92.472656 87.027344 92.472656 72.222656 C 92.472656 57.410156 126.574219 45.414062 168.640625 45.414062 C 210.710938 45.414062 244.8125 57.410156 244.8125 72.222656 C 244.8125 87.027344 210.710938 99.027344 168.640625 99.027344 " fill-opacity="1" fill-rule="nonzero"/></g><path fill="#e98b1b" d="M 173.230469 82.691406 C 176.277344 82.484375 178.765625 81.984375 180.683594 81.191406 C 182.59375 80.394531 183.554688 79.457031 183.554688 78.382812 C 183.554688 77.425781 182.75 76.597656 181.140625 75.898438 C 179.527344 75.203125 176.902344 74.664062 173.230469 74.296875 L 173.230469 82.691406 M 164.363281 59.800781 C 161.957031 60.085938 160.042969 60.570312 158.621094 61.253906 C 157.191406 61.949219 156.480469 62.707031 156.480469 63.542969 C 156.480469 64.304688 157.132812 65.003906 158.433594 65.660156 C 159.738281 66.308594 161.710938 66.839844 164.363281 67.238281 L 164.363281 59.800781 M 164.363281 82.382812 L 164.363281 73.371094 C 156.378906 72.566406 150.523438 71.355469 146.792969 69.726562 C 143.066406 68.101562 141.199219 66.121094 141.199219 63.804688 C 141.199219 61.445312 143.308594 59.472656 147.523438 57.871094 C 151.738281 56.269531 157.355469 55.351562 164.363281 55.109375 L 164.363281 52.980469 L 173.230469 52.980469 L 173.230469 55.109375 C 179.703125 55.378906 184.851562 56.160156 188.6875 57.441406 C 192.527344 58.726562 194.96875 60.4375 196.019531 62.597656 L 180.558594 63.300781 C 179.621094 61.613281 177.171875 60.464844 173.230469 59.863281 L 173.230469 68.273438 C 183.007812 69.203125 189.675781 70.417969 193.214844 71.898438 C 196.757812 73.382812 198.53125 75.289062 198.53125 77.605469 C 198.53125 80.207031 196.296875 82.394531 191.84375 84.171875 C 187.375 85.949219 181.171875 87.039062 173.230469 87.441406 L 173.230469 91.464844 L 164.363281 91.464844 L 164.363281 87.550781 C 157.316406 87.246094 151.585938 86.324219 147.1875 84.773438 C 142.789062 83.222656 139.980469 81.035156 138.753906 78.210938 L 154.707031 77.605469 C 155.363281 78.753906 156.578125 79.742188 158.375 80.582031 C 160.164062 81.40625 162.160156 82.011719 164.363281 82.382812 " fill-opacity="1" fill-rule="nonzero"/><path fill="#e98b1b" d="M 236.207031 100.121094 L 236.1875 100.089844 L 236.1875 85.621094 C 237.089844 85.007812 237.941406 84.390625 238.710938 83.753906 L 238.710938 98.078125 C 237.953125 98.777344 237.125 99.460938 236.207031 100.121094 " fill-opacity="1" fill-rule="nonzero"/><path fill="#e98b1b" d="M 232.414062 102.527344 C 232.105469 102.445312 231.890625 102.320312 231.890625 102.179688 L 231.890625 88.171875 C 232.777344 87.710938 233.613281 87.230469 234.410156 86.742188 L 234.410156 101.332031 C 233.78125 101.738281 233.105469 102.136719 232.414062 102.527344 " fill-opacity="1" fill-rule="nonzero"/><path fill="#e98b1b" d="M 240.484375 96.289062 L 240.484375 82.144531 C 240.984375 81.644531 241.441406 81.136719 241.859375 80.625 C 242.257812 80.328125 242.644531 80.027344 243.011719 79.722656 L 243.011719 92.234375 C 242.464844 93.617188 241.621094 94.976562 240.484375 96.289062 " fill-opacity="1" fill-rule="nonzero"/><path fill="#e98b1b" d="M 228.238281 104.648438 C 227.863281 104.566406 227.59375 104.433594 227.59375 104.269531 L 227.59375 90.210938 C 228.464844 89.832031 229.304688 89.445312 230.121094 89.054688 L 230.121094 103.746094 C 229.507812 104.050781 228.886719 104.351562 228.238281 104.648438 " fill-opacity="1" fill-rule="nonzero"/><path fill="#e98b1b" d="M 223.53125 106.605469 C 223.394531 106.53125 223.292969 106.449219 223.292969 106.359375 L 223.292969 91.894531 C 224.160156 91.585938 225 91.257812 225.820312 90.9375 L 225.820312 105.699219 C 225.078125 106.007812 224.3125 106.308594 223.53125 106.605469 " fill-opacity="1" fill-rule="nonzero"/><path fill="#e98b1b" d="M 219 108.179688 L 219 93.335938 C 219.855469 93.074219 220.699219 92.804688 221.527344 92.519531 L 221.527344 107.339844 C 220.699219 107.625 219.859375 107.90625 219 108.179688 " fill-opacity="1" fill-rule="nonzero"/><path fill="#e98b1b" d="M 214.703125 109.4375 L 214.703125 94.582031 C 215.558594 94.347656 216.402344 94.121094 217.226562 93.878906 L 217.226562 108.722656 C 216.398438 108.96875 215.558594 109.203125 214.703125 109.4375 " fill-opacity="1" fill-rule="nonzero"/><path fill="#e98b1b" d="M 210.402344 110.542969 L 210.402344 95.648438 C 211.261719 95.453125 212.097656 95.246094 212.933594 95.035156 L 212.933594 109.914062 C 212.097656 110.128906 211.261719 110.335938 210.402344 110.542969 " fill-opacity="1" fill-rule="nonzero"/><path fill="#e98b1b" d="M 206.109375 111.480469 L 206.109375 96.574219 C 206.957031 96.402344 207.796875 96.226562 208.632812 96.046875 L 208.632812 110.941406 C 207.796875 111.125 206.957031 111.300781 206.109375 111.480469 " fill-opacity="1" fill-rule="nonzero"/><path fill="#e98b1b" d="M 201.8125 112.289062 L 201.8125 97.371094 C 202.664062 97.222656 203.496094 97.074219 204.335938 96.917969 L 204.335938 111.832031 C 203.503906 111.992188 202.65625 112.140625 201.8125 112.289062 " fill-opacity="1" fill-rule="nonzero"/><path fill="#e98b1b" d="M 197.511719 112.980469 L 197.511719 98.042969 C 198.359375 97.921875 199.207031 97.789062 200.035156 97.65625 L 200.035156 112.578125 C 199.207031 112.71875 198.359375 112.851562 197.511719 112.980469 " fill-opacity="1" fill-rule="nonzero"/><path fill="#e98b1b" d="M 139.773438 112.980469 C 138.917969 112.851562 138.078125 112.71875 137.246094 112.578125 L 137.246094 97.65625 C 138.078125 97.789062 138.917969 97.921875 139.773438 98.042969 L 139.773438 112.980469 " fill-opacity="1" fill-rule="nonzero"/><path fill="#e98b1b" d="M 135.472656 112.289062 C 134.625 112.140625 133.777344 111.992188 132.949219 111.832031 L 132.949219 96.917969 C 133.78125 97.074219 134.621094 97.222656 135.472656 97.371094 L 135.472656 112.289062 " fill-opacity="1" fill-rule="nonzero"/><path fill="#e98b1b" d="M 131.175781 111.480469 C 130.324219 111.300781 129.480469 111.125 128.652344 110.941406 L 128.652344 96.046875 C 129.480469 96.226562 130.324219 96.402344 131.175781 96.574219 L 131.175781 111.480469 " fill-opacity="1" fill-rule="nonzero"/><path fill="#e98b1b" d="M 126.878906 110.542969 C 126.019531 110.335938 125.183594 110.128906 124.351562 109.914062 L 124.351562 95.035156 C 125.183594 95.246094 126.019531 95.453125 126.878906 95.648438 L 126.878906 110.542969 " fill-opacity="1" fill-rule="nonzero"/><path fill="#e98b1b" d="M 122.582031 109.4375 C 121.726562 109.203125 120.886719 108.96875 120.058594 108.722656 L 120.058594 93.878906 C 120.878906 94.121094 121.730469 94.347656 122.582031 94.582031 L 122.582031 109.4375 " fill-opacity="1" fill-rule="nonzero"/><path fill="#e98b1b" d="M 161.253906 114.878906 C 160.410156 114.84375 159.570312 114.808594 158.726562 114.769531 L 158.726562 99.808594 C 159.570312 99.84375 160.410156 99.878906 161.253906 99.914062 L 161.253906 114.878906 " fill-opacity="1" fill-rule="nonzero"/><path fill="#e98b1b" d="M 156.957031 114.679688 C 156.109375 114.640625 155.269531 114.585938 154.429688 114.527344 L 154.429688 99.570312 C 155.269531 99.621094 156.109375 99.683594 156.957031 99.726562 L 156.957031 114.679688 " fill-opacity="1" fill-rule="nonzero"/><path fill="#e98b1b" d="M 165.550781 114.980469 C 164.707031 114.960938 163.863281 114.945312 163.03125 114.925781 L 163.03125 99.960938 C 163.863281 99.980469 164.707031 99.996094 165.550781 100.011719 L 165.550781 114.980469 " fill-opacity="1" fill-rule="nonzero"/><path fill="#e98b1b" d="M 168.640625 115.007812 C 168.199219 115.007812 167.765625 114.996094 167.324219 114.992188 L 167.324219 100.027344 C 167.765625 100.027344 168.199219 100.039062 168.640625 100.039062 C 169.046875 100.039062 169.445312 100.035156 169.847656 100.027344 L 169.847656 114.992188 C 169.445312 114.996094 169.046875 115.007812 168.640625 115.007812 " fill-opacity="1" fill-rule="nonzero"/><path fill="#e98b1b" d="M 171.625 114.980469 L 171.625 100.011719 C 172.46875 100 173.304688 99.988281 174.148438 99.964844 L 174.148438 114.929688 C 173.304688 114.945312 172.46875 114.960938 171.625 114.980469 " fill-opacity="1" fill-rule="nonzero"/><path fill="#e98b1b" d="M 175.917969 114.878906 L 175.917969 99.921875 C 176.765625 99.886719 177.609375 99.847656 178.441406 99.8125 L 178.441406 114.773438 C 177.609375 114.8125 176.765625 114.851562 175.917969 114.878906 " fill-opacity="1" fill-rule="nonzero"/><path fill="#e98b1b" d="M 180.214844 114.695312 L 180.214844 99.730469 C 181.0625 99.6875 181.902344 99.628906 182.742188 99.574219 L 182.742188 114.535156 C 181.902344 114.589844 181.0625 114.644531 180.214844 114.695312 " fill-opacity="1" fill-rule="nonzero"/><path fill="#e98b1b" d="M 184.511719 114.402344 L 184.511719 99.453125 C 185.359375 99.390625 186.199219 99.320312 187.039062 99.25 L 187.039062 114.203125 C 186.207031 114.273438 185.359375 114.339844 184.511719 114.402344 " fill-opacity="1" fill-rule="nonzero"/><path fill="#e98b1b" d="M 188.804688 114.03125 L 188.804688 99.082031 C 189.65625 99 190.5 98.921875 191.339844 98.828125 L 191.339844 113.769531 C 190.5 113.867188 189.65625 113.949219 188.804688 114.03125 " fill-opacity="1" fill-rule="nonzero"/><path fill="#e98b1b" d="M 193.105469 113.558594 L 193.105469 98.621094 C 193.953125 98.519531 194.796875 98.414062 195.632812 98.300781 L 195.632812 113.238281 C 194.796875 113.351562 193.953125 113.457031 193.105469 113.558594 " fill-opacity="1" fill-rule="nonzero"/><path fill="#e98b1b" d="M 152.660156 114.398438 C 151.816406 114.332031 150.972656 114.269531 150.132812 114.195312 L 150.132812 99.242188 C 150.972656 99.3125 151.816406 99.382812 152.660156 99.441406 L 152.660156 114.398438 " fill-opacity="1" fill-rule="nonzero"/><path fill="#e98b1b" d="M 148.363281 114.023438 C 147.515625 113.9375 146.675781 113.855469 145.839844 113.761719 L 145.839844 98.8125 C 146.675781 98.90625 147.515625 98.988281 148.363281 99.074219 L 148.363281 114.023438 " fill-opacity="1" fill-rule="nonzero"/><path fill="#e98b1b" d="M 144.066406 113.546875 C 143.21875 113.445312 142.378906 113.335938 141.539062 113.222656 L 141.539062 98.285156 C 142.378906 98.398438 143.21875 98.503906 144.066406 98.609375 L 144.066406 113.546875 " fill-opacity="1" fill-rule="nonzero"/><path fill="#e98b1b" d="M 118.285156 108.179688 C 117.421875 107.90625 116.585938 107.625 115.757812 107.339844 L 115.757812 92.519531 C 116.585938 92.804688 117.425781 93.074219 118.285156 93.335938 L 118.285156 108.179688 " fill-opacity="1" fill-rule="nonzero"/><path fill="#e98b1b" d="M 113.753906 106.605469 C 112.96875 106.308594 112.203125 106.007812 111.464844 105.699219 L 111.464844 90.9375 C 112.28125 91.257812 113.125 91.585938 113.988281 91.894531 L 113.988281 106.359375 C 113.988281 106.449219 113.890625 106.53125 113.753906 106.605469 " fill-opacity="1" fill-rule="nonzero"/><path fill="#e98b1b" d="M 109.042969 104.648438 C 108.398438 104.351562 107.773438 104.050781 107.164062 103.746094 L 107.164062 89.054688 C 107.980469 89.445312 108.816406 89.832031 109.695312 90.210938 L 109.695312 104.269531 C 109.695312 104.433594 109.421875 104.566406 109.042969 104.648438 " fill-opacity="1" fill-rule="nonzero"/><path fill="#e98b1b" d="M 104.871094 102.527344 C 104.175781 102.136719 103.5 101.738281 102.871094 101.332031 L 102.871094 86.742188 C 103.671875 87.230469 104.503906 87.710938 105.394531 88.171875 L 105.394531 102.179688 C 105.394531 102.320312 105.175781 102.445312 104.871094 102.527344 " fill-opacity="1" fill-rule="nonzero"/><path fill="#e98b1b" d="M 101.078125 100.121094 C 100.160156 99.460938 99.328125 98.777344 98.570312 98.078125 L 98.570312 83.753906 C 99.34375 84.390625 100.191406 85.007812 101.097656 85.621094 L 101.097656 100.089844 L 101.078125 100.121094 " fill-opacity="1" fill-rule="nonzero"/><path fill="#e98b1b" d="M 96.800781 96.289062 C 95.660156 94.976562 94.820312 93.621094 94.273438 92.234375 L 94.273438 79.023438 C 94.9375 80.089844 95.785156 81.128906 96.800781 82.144531 L 96.800781 96.289062 " fill-opacity="1" fill-rule="nonzero"/><path fill="#e98b1b" d="M 249.054688 69.238281 L 249.054688 53.253906 L 96.71875 53.253906 L 96.71875 69.238281 C 96.71875 84.042969 130.820312 96.046875 172.886719 96.046875 C 214.953125 96.046875 249.054688 84.042969 249.054688 69.238281 " fill-opacity="1" fill-rule="nonzero"/><path fill="#f5c116" d="M 172.886719 78.878906 C 130.820312 78.878906 96.71875 66.882812 96.71875 52.078125 C 96.71875 37.269531 130.820312 25.265625 172.886719 25.265625 C 214.953125 25.265625 249.054688 37.269531 249.054688 52.078125 C 249.054688 66.882812 214.953125 78.878906 172.886719 78.878906 " fill-opacity="1" fill-rule="nonzero"/><path fill="#e98b1b" d="M 177.476562 62.539062 C 180.523438 62.335938 183.007812 61.84375 184.925781 61.046875 C 186.835938 60.253906 187.800781 59.316406 187.800781 58.238281 C 187.800781 57.273438 186.996094 56.449219 185.382812 55.753906 C 183.769531 55.058594 181.144531 54.523438 177.476562 54.148438 L 177.476562 62.539062 M 168.605469 39.652344 C 166.207031 39.941406 164.285156 40.425781 162.863281 41.109375 C 161.4375 41.804688 160.722656 42.5625 160.722656 43.398438 C 160.722656 44.15625 161.375 44.863281 162.679688 45.515625 C 163.980469 46.164062 165.953125 46.695312 168.605469 47.09375 L 168.605469 39.652344 M 168.605469 62.242188 L 168.605469 53.230469 C 160.621094 52.421875 154.765625 51.207031 151.035156 49.578125 C 147.3125 47.953125 145.441406 45.976562 145.441406 43.652344 C 145.441406 41.300781 147.554688 39.324219 151.769531 37.726562 C 155.984375 36.128906 161.597656 35.207031 168.605469 34.964844 L 168.605469 32.832031 L 177.476562 32.832031 L 177.476562 34.964844 C 183.949219 35.234375 189.09375 36.015625 192.933594 37.296875 C 196.765625 38.582031 199.210938 40.296875 200.265625 42.449219 L 184.804688 43.164062 C 183.867188 41.464844 181.421875 40.320312 177.476562 39.71875 L 177.476562 48.125 C 187.25 49.058594 193.917969 50.269531 197.453125 51.753906 C 201 53.238281 202.773438 55.140625 202.773438 57.460938 C 202.773438 60.0625 200.542969 62.246094 196.089844 64.023438 C 191.621094 65.800781 185.414062 66.894531 177.476562 67.296875 L 177.476562 71.316406 L 168.605469 71.316406 L 168.605469 67.402344 C 161.554688 67.101562 155.832031 66.175781 151.429688 64.628906 C 147.03125 63.074219 144.222656 60.890625 143 58.066406 L 158.949219 57.460938 C 159.601562 58.609375 160.820312 59.597656 162.617188 60.433594 C 164.40625 61.261719 166.40625 61.867188 168.605469 62.242188 " fill-opacity="1" fill-rule="nonzero"/><path fill="#e98b1b" d="M 240.449219 79.976562 L 240.425781 79.945312 L 240.425781 65.472656 C 241.332031 64.863281 242.1875 64.242188 242.960938 63.609375 L 242.960938 77.9375 C 242.195312 78.628906 241.367188 79.308594 240.449219 79.976562 " fill-opacity="1" fill-rule="nonzero"/><path fill="#e98b1b" d="M 236.65625 82.378906 C 236.351562 82.300781 236.136719 82.175781 236.136719 82.035156 L 236.136719 68.027344 C 237.019531 67.5625 237.859375 67.082031 238.660156 66.597656 L 238.660156 81.1875 C 238.027344 81.59375 237.355469 81.992188 236.65625 82.378906 " fill-opacity="1" fill-rule="nonzero"/><path fill="#e98b1b" d="M 244.726562 76.144531 L 244.726562 62 C 245.746094 60.984375 246.585938 59.9375 247.253906 58.878906 L 247.253906 72.085938 C 246.707031 73.472656 245.863281 74.828125 244.726562 76.144531 " fill-opacity="1" fill-rule="nonzero"/><path fill="#e98b1b" d="M 232.484375 84.503906 C 232.105469 84.417969 231.832031 84.285156 231.832031 84.125 L 231.832031 70.0625 C 232.707031 69.683594 233.546875 69.300781 234.363281 68.90625 L 234.363281 83.597656 C 233.753906 83.90625 233.128906 84.207031 232.484375 84.503906 " fill-opacity="1" fill-rule="nonzero"/><path fill="#e98b1b" d="M 227.777344 86.457031 C 227.640625 86.386719 227.542969 86.300781 227.542969 86.210938 L 227.542969 71.75 C 228.402344 71.4375 229.242188 71.117188 230.0625 70.789062 L 230.0625 85.550781 C 229.320312 85.863281 228.558594 86.164062 227.777344 86.457031 " fill-opacity="1" fill-rule="nonzero"/><path fill="#e98b1b" d="M 223.246094 88.027344 L 223.246094 73.1875 C 224.101562 72.925781 224.945312 72.652344 225.769531 72.367188 L 225.769531 87.191406 C 224.945312 87.480469 224.109375 87.761719 223.246094 88.027344 " fill-opacity="1" fill-rule="nonzero"/><path fill="#e98b1b" d="M 218.941406 89.296875 L 218.941406 74.433594 C 219.796875 74.203125 220.644531 73.976562 221.46875 73.734375 L 221.46875 88.574219 C 220.644531 88.820312 219.800781 89.058594 218.941406 89.296875 " fill-opacity="1" fill-rule="nonzero"/><path fill="#e98b1b" d="M 214.644531 90.394531 L 214.644531 75.503906 C 215.503906 75.304688 216.34375 75.097656 217.175781 74.890625 L 217.175781 89.765625 C 216.34375 89.980469 215.503906 90.191406 214.644531 90.394531 " fill-opacity="1" fill-rule="nonzero"/><path fill="#e98b1b" d="M 210.347656 91.328125 L 210.347656 76.425781 C 211.203125 76.253906 212.046875 76.085938 212.875 75.898438 L 212.875 90.792969 C 212.046875 90.984375 211.203125 91.15625 210.347656 91.328125 " fill-opacity="1" fill-rule="nonzero"/><path fill="#e98b1b" d="M 206.054688 92.140625 L 206.054688 77.226562 C 206.910156 77.078125 207.742188 76.925781 208.582031 76.769531 L 208.582031 91.6875 C 207.753906 91.84375 206.90625 91.996094 206.054688 92.140625 " fill-opacity="1" fill-rule="nonzero"/><path fill="#e98b1b" d="M 201.757812 92.832031 L 201.757812 77.898438 C 202.605469 77.773438 203.445312 77.644531 204.285156 77.511719 L 204.285156 92.441406 C 203.445312 92.570312 202.605469 92.707031 201.757812 92.832031 " fill-opacity="1" fill-rule="nonzero"/><path fill="#e98b1b" d="M 144.015625 92.832031 C 143.164062 92.707031 142.324219 92.570312 141.488281 92.441406 L 141.488281 77.511719 C 142.324219 77.644531 143.164062 77.773438 144.015625 77.898438 L 144.015625 92.832031 " fill-opacity="1" fill-rule="nonzero"/><path fill="#e98b1b" d="M 139.714844 92.140625 C 138.867188 91.996094 138.019531 91.84375 137.191406 91.6875 L 137.191406 76.769531 C 138.027344 76.925781 138.867188 77.078125 139.714844 77.226562 L 139.714844 92.140625 " fill-opacity="1" fill-rule="nonzero"/><path fill="#e98b1b" d="M 135.421875 91.328125 C 134.570312 91.15625 133.726562 90.984375 132.898438 90.792969 L 132.898438 75.898438 C 133.726562 76.085938 134.570312 76.253906 135.421875 76.425781 L 135.421875 91.328125 " fill-opacity="1" fill-rule="nonzero"/><path fill="#e98b1b" d="M 131.128906 90.394531 C 130.265625 90.191406 129.425781 89.980469 128.597656 89.765625 L 128.597656 74.890625 C 129.425781 75.097656 130.265625 75.304688 131.128906 75.503906 L 131.128906 90.394531 " fill-opacity="1" fill-rule="nonzero"/><path fill="#e98b1b" d="M 126.828125 89.296875 C 125.96875 89.058594 125.128906 88.820312 124.304688 88.574219 L 124.304688 73.734375 C 125.125 73.976562 125.972656 74.203125 126.828125 74.433594 L 126.828125 89.296875 " fill-opacity="1" fill-rule="nonzero"/><path fill="#e98b1b" d="M 165.5 94.726562 C 164.652344 94.699219 163.8125 94.660156 162.972656 94.625 L 162.972656 79.660156 C 163.8125 79.695312 164.652344 79.738281 165.5 79.765625 L 165.5 94.726562 " fill-opacity="1" fill-rule="nonzero"/><path fill="#e98b1b" d="M 161.203125 94.539062 C 160.355469 94.492188 159.515625 94.441406 158.675781 94.378906 L 158.675781 79.421875 C 159.515625 79.472656 160.355469 79.535156 161.203125 79.582031 L 161.203125 94.539062 " fill-opacity="1" fill-rule="nonzero"/><path fill="#e98b1b" d="M 169.796875 94.835938 C 168.949219 94.816406 168.109375 94.792969 167.273438 94.777344 L 167.273438 79.816406 C 168.109375 79.835938 168.949219 79.855469 169.796875 79.863281 L 169.796875 94.835938 " fill-opacity="1" fill-rule="nonzero"/><path fill="#e98b1b" d="M 172.886719 94.859375 C 172.445312 94.859375 172.011719 94.847656 171.566406 94.847656 L 171.566406 79.878906 C 172.011719 79.886719 172.445312 79.894531 172.886719 79.894531 C 173.289062 79.894531 173.691406 79.886719 174.09375 79.886719 L 174.09375 94.847656 C 173.691406 94.847656 173.289062 94.859375 172.886719 94.859375 " fill-opacity="1" fill-rule="nonzero"/><path fill="#e98b1b" d="M 175.867188 94.835938 L 175.867188 79.863281 C 176.714844 79.863281 177.554688 79.839844 178.394531 79.816406 L 178.394531 94.78125 C 177.554688 94.800781 176.714844 94.816406 175.867188 94.835938 " fill-opacity="1" fill-rule="nonzero"/><path fill="#e98b1b" d="M 180.164062 94.734375 L 180.164062 79.769531 C 181.007812 79.738281 181.851562 79.703125 182.6875 79.667969 L 182.6875 94.625 C 181.851562 94.667969 181.007812 94.707031 180.164062 94.734375 " fill-opacity="1" fill-rule="nonzero"/><path fill="#e98b1b" d="M 184.460938 94.542969 L 184.460938 79.585938 C 185.308594 79.539062 186.148438 79.484375 186.988281 79.429688 L 186.988281 94.386719 C 186.148438 94.441406 185.308594 94.5 184.460938 94.542969 " fill-opacity="1" fill-rule="nonzero"/><path fill="#e98b1b" d="M 188.757812 94.257812 L 188.757812 79.308594 C 189.605469 79.242188 190.445312 79.171875 191.28125 79.105469 L 191.28125 94.054688 C 190.449219 94.132812 189.605469 94.195312 188.757812 94.257812 " fill-opacity="1" fill-rule="nonzero"/><path fill="#e98b1b" d="M 193.050781 93.886719 L 193.050781 78.9375 C 193.898438 78.855469 194.746094 78.777344 195.582031 78.679688 L 195.582031 93.621094 C 194.746094 93.71875 193.898438 93.800781 193.050781 93.886719 " fill-opacity="1" fill-rule="nonzero"/><path fill="#e98b1b" d="M 197.351562 93.417969 L 197.351562 78.476562 C 198.199219 78.371094 199.042969 78.265625 199.875 78.152344 L 199.875 93.097656 C 199.042969 93.207031 198.199219 93.3125 197.351562 93.417969 " fill-opacity="1" fill-rule="nonzero"/><path fill="#e98b1b" d="M 156.90625 94.25 C 156.0625 94.1875 155.214844 94.121094 154.378906 94.046875 L 154.378906 79.09375 C 155.214844 79.167969 156.0625 79.234375 156.90625 79.300781 L 156.90625 94.25 " fill-opacity="1" fill-rule="nonzero"/><path fill="#e98b1b" d="M 152.605469 93.875 C 151.761719 93.792969 150.914062 93.707031 150.085938 93.617188 L 150.085938 78.667969 C 150.914062 78.761719 151.761719 78.84375 152.605469 78.925781 L 152.605469 93.875 " fill-opacity="1" fill-rule="nonzero"/><path fill="#e98b1b" d="M 148.3125 93.402344 C 147.464844 93.300781 146.625 93.1875 145.785156 93.078125 L 145.785156 78.140625 C 146.617188 78.253906 147.464844 78.359375 148.3125 78.460938 L 148.3125 93.402344 " fill-opacity="1" fill-rule="nonzero"/><path fill="#e98b1b" d="M 122.527344 88.027344 C 121.664062 87.761719 120.824219 87.480469 120 87.191406 L 120 72.367188 C 120.824219 72.652344 121.667969 72.925781 122.527344 73.1875 L 122.527344 88.027344 " fill-opacity="1" fill-rule="nonzero"/><path fill="#e98b1b" d="M 117.996094 86.457031 C 117.210938 86.164062 116.445312 85.863281 115.707031 85.550781 L 115.707031 70.789062 C 116.527344 71.117188 117.367188 71.4375 118.230469 71.75 L 118.230469 86.210938 C 118.230469 86.300781 118.132812 86.386719 117.996094 86.457031 " fill-opacity="1" fill-rule="nonzero"/><path fill="#e98b1b" d="M 113.285156 84.503906 C 112.640625 84.207031 112.019531 83.90625 111.40625 83.597656 L 111.40625 68.90625 C 112.222656 69.300781 113.0625 69.683594 113.933594 70.0625 L 113.933594 84.125 C 113.933594 84.285156 113.664062 84.417969 113.285156 84.503906 " fill-opacity="1" fill-rule="nonzero"/><path fill="#e98b1b" d="M 109.113281 82.378906 C 108.417969 81.992188 107.746094 81.59375 107.113281 81.1875 L 107.113281 66.597656 C 107.914062 67.082031 108.746094 67.5625 109.636719 68.027344 L 109.636719 82.035156 C 109.636719 82.175781 109.421875 82.300781 109.113281 82.378906 " fill-opacity="1" fill-rule="nonzero"/><path fill="#e98b1b" d="M 105.320312 79.976562 C 104.40625 79.308594 103.574219 78.628906 102.8125 77.9375 L 102.8125 63.609375 C 103.582031 64.242188 104.4375 64.863281 105.34375 65.472656 L 105.34375 79.945312 L 105.320312 79.976562 " fill-opacity="1" fill-rule="nonzero"/><path fill="#e98b1b" d="M 101.046875 76.144531 C 99.90625 74.828125 99.0625 73.472656 98.519531 72.085938 L 98.519531 58.878906 C 99.183594 59.9375 100.027344 60.984375 101.046875 62 L 101.046875 76.144531 " fill-opacity="1" fill-rule="nonzero"/><g clip-path="url(#4fc4457c15)"><path fill="#e98b1b" d="M 259.53125 43.980469 L 259.53125 27.992188 L 107.191406 27.992188 L 107.191406 43.980469 C 107.191406 58.785156 141.292969 70.789062 183.363281 70.789062 C 225.425781 70.789062 259.53125 58.785156 259.53125 43.980469 " fill-opacity="1" fill-rule="nonzero"/></g><g clip-path="url(#592a7e99e9)"><path fill="#f5c116" d="M 183.363281 53.625 C 141.292969 53.625 107.191406 41.621094 107.191406 26.816406 C 107.191406 12.011719 141.292969 0.0117188 183.363281 0.0117188 C 225.425781 0.0117188 259.53125 12.011719 259.53125 26.816406 C 259.53125 41.621094 225.425781 53.625 183.363281 53.625 " fill-opacity="1" fill-rule="nonzero"/></g><path fill="#e98b1b" d="M 187.945312 37.28125 C 190.996094 37.082031 193.484375 36.585938 195.40625 35.789062 C 197.316406 34.992188 198.273438 34.054688 198.273438 32.980469 C 198.273438 32.019531 197.472656 31.1875 195.859375 30.5 C 194.246094 29.800781 191.621094 29.261719 187.945312 28.890625 Z M 179.082031 14.398438 C 176.679688 14.679688 174.761719 15.167969 173.339844 15.855469 C 171.914062 16.546875 171.199219 17.304688 171.199219 18.136719 C 171.199219 18.902344 171.847656 19.605469 173.152344 20.253906 C 174.457031 20.910156 176.429688 21.4375 179.082031 21.835938 Z M 179.082031 36.984375 L 179.082031 27.96875 C 171.09375 27.160156 165.242188 25.953125 161.503906 24.316406 C 157.785156 22.695312 155.917969 20.71875 155.917969 18.394531 C 155.917969 16.042969 158.03125 14.066406 162.242188 12.464844 C 166.457031 10.867188 172.074219 9.945312 179.082031 9.703125 L 179.082031 7.574219 L 187.945312 7.574219 L 187.945312 9.703125 C 194.421875 9.976562 199.570312 10.753906 203.40625 12.039062 C 207.242188 13.320312 209.6875 15.039062 210.742188 17.1875 L 195.28125 17.902344 C 194.34375 16.207031 191.894531 15.0625 187.945312 14.460938 L 187.945312 22.867188 C 197.726562 23.800781 204.390625 25.007812 207.933594 26.492188 C 211.476562 27.980469 213.25 29.878906 213.25 32.203125 C 213.25 34.804688 211.015625 36.988281 206.5625 38.761719 C 202.09375 40.546875 195.890625 41.632812 187.945312 42.039062 L 187.945312 46.058594 L 179.082031 46.058594 L 179.082031 42.144531 C 172.03125 41.84375 166.304688 40.921875 161.902344 39.367188 C 157.507812 37.820312 154.699219 35.632812 153.472656 32.808594 L 169.421875 32.203125 C 170.078125 33.355469 171.296875 34.339844 173.09375 35.175781 C 174.882812 36.003906 176.882812 36.605469 179.082031 36.984375 " fill-opacity="1" fill-rule="nonzero"/><path fill="#e98b1b" d="M 250.925781 54.722656 L 250.902344 54.683594 L 250.902344 40.21875 C 251.808594 39.605469 252.660156 38.984375 253.429688 38.347656 L 253.429688 52.675781 C 252.667969 53.371094 251.84375 54.050781 250.925781 54.722656 " fill-opacity="1" fill-rule="nonzero"/><path fill="#e98b1b" d="M 247.132812 57.125 C 246.824219 57.039062 246.605469 56.917969 246.605469 56.769531 L 246.605469 42.769531 C 247.496094 42.308594 248.332031 41.824219 249.136719 41.34375 L 249.136719 55.925781 C 248.5 56.335938 247.828125 56.730469 247.132812 57.125 " fill-opacity="1" fill-rule="nonzero"/><path fill="#e98b1b" d="M 255.203125 50.882812 L 255.203125 36.742188 C 256.21875 35.726562 257.0625 34.683594 257.726562 33.621094 L 257.726562 46.828125 C 257.179688 48.210938 256.339844 49.570312 255.203125 50.882812 " fill-opacity="1" fill-rule="nonzero"/><path fill="#e98b1b" d="M 242.960938 59.246094 C 242.582031 59.167969 242.308594 59.027344 242.308594 58.863281 L 242.308594 44.804688 C 243.183594 44.425781 244.019531 44.042969 244.839844 43.648438 L 244.839844 58.339844 C 244.226562 58.648438 243.601562 58.945312 242.960938 59.246094 " fill-opacity="1" fill-rule="nonzero"/><path fill="#e98b1b" d="M 238.25 61.199219 C 238.109375 61.128906 238.015625 61.046875 238.015625 60.953125 L 238.015625 46.492188 C 238.878906 46.179688 239.71875 45.855469 240.539062 45.53125 L 240.539062 60.292969 C 239.792969 60.601562 239.035156 60.90625 238.25 61.199219 " fill-opacity="1" fill-rule="nonzero"/><path fill="#e98b1b" d="M 233.722656 62.777344 L 233.722656 47.929688 C 234.578125 47.667969 235.421875 47.394531 236.246094 47.109375 L 236.246094 61.933594 C 235.421875 62.21875 234.578125 62.503906 233.722656 62.777344 " fill-opacity="1" fill-rule="nonzero"/><path fill="#e98b1b" d="M 229.417969 64.039062 L 229.417969 49.175781 C 230.273438 48.949219 231.121094 48.714844 231.941406 48.472656 L 231.941406 63.316406 C 231.117188 63.5625 230.28125 63.804688 229.417969 64.039062 " fill-opacity="1" fill-rule="nonzero"/><path fill="#e98b1b" d="M 225.117188 65.140625 L 225.117188 50.25 C 225.976562 50.042969 226.8125 49.839844 227.648438 49.628906 L 227.648438 64.507812 C 226.8125 64.726562 225.976562 64.9375 225.117188 65.140625 " fill-opacity="1" fill-rule="nonzero"/><path fill="#e98b1b" d="M 220.824219 66.070312 L 220.824219 51.164062 C 221.675781 50.996094 222.519531 50.824219 223.347656 50.640625 L 223.347656 65.535156 C 222.519531 65.722656 221.675781 65.902344 220.824219 66.070312 " fill-opacity="1" fill-rule="nonzero"/><path fill="#e98b1b" d="M 216.53125 66.886719 L 216.53125 51.964844 C 217.378906 51.820312 218.21875 51.667969 219.054688 51.511719 L 219.054688 66.425781 C 218.226562 66.585938 217.375 66.738281 216.53125 66.886719 " fill-opacity="1" fill-rule="nonzero"/><path fill="#e98b1b" d="M 212.230469 67.574219 L 212.230469 52.636719 C 213.082031 52.515625 213.921875 52.382812 214.757812 52.253906 L 214.757812 67.179688 C 213.921875 67.308594 213.082031 67.449219 212.230469 67.574219 " fill-opacity="1" fill-rule="nonzero"/><path fill="#e98b1b" d="M 154.488281 67.574219 C 153.640625 67.449219 152.800781 67.308594 151.960938 67.179688 L 151.960938 52.253906 C 152.800781 52.382812 153.640625 52.515625 154.488281 52.636719 L 154.488281 67.574219 " fill-opacity="1" fill-rule="nonzero"/><path fill="#e98b1b" d="M 150.191406 66.886719 C 149.34375 66.738281 148.496094 66.585938 147.664062 66.425781 L 147.664062 51.511719 C 148.503906 51.667969 149.339844 51.820312 150.191406 51.964844 L 150.191406 66.886719 " fill-opacity="1" fill-rule="nonzero"/><path fill="#e98b1b" d="M 145.894531 66.070312 C 145.039062 65.902344 144.203125 65.722656 143.367188 65.535156 L 143.367188 50.640625 C 144.203125 50.824219 145.039062 50.996094 145.894531 51.164062 L 145.894531 66.070312 " fill-opacity="1" fill-rule="nonzero"/><path fill="#e98b1b" d="M 141.597656 65.140625 C 140.742188 64.9375 139.902344 64.726562 139.070312 64.507812 L 139.070312 49.628906 C 139.902344 49.839844 140.742188 50.042969 141.597656 50.25 L 141.597656 65.140625 " fill-opacity="1" fill-rule="nonzero"/><path fill="#e98b1b" d="M 137.300781 64.039062 C 136.441406 63.804688 135.601562 63.5625 134.777344 63.316406 L 134.777344 48.472656 C 135.597656 48.714844 136.445312 48.949219 137.300781 49.175781 L 137.300781 64.039062 " fill-opacity="1" fill-rule="nonzero"/><path fill="#e98b1b" d="M 175.976562 69.46875 C 175.125 69.4375 174.289062 69.398438 173.449219 69.363281 L 173.449219 54.402344 C 174.289062 54.445312 175.125 54.480469 175.976562 54.507812 L 175.976562 69.46875 " fill-opacity="1" fill-rule="nonzero"/><path fill="#e98b1b" d="M 171.675781 69.28125 C 170.832031 69.234375 169.988281 69.179688 169.152344 69.125 L 169.152344 54.160156 C 169.988281 54.21875 170.832031 54.277344 171.675781 54.328125 L 171.675781 69.28125 " fill-opacity="1" fill-rule="nonzero"/><path fill="#e98b1b" d="M 180.273438 69.574219 C 179.425781 69.5625 178.585938 69.542969 177.746094 69.519531 L 177.746094 54.558594 C 178.585938 54.578125 179.425781 54.59375 180.273438 54.613281 L 180.273438 69.574219 " fill-opacity="1" fill-rule="nonzero"/><path fill="#e98b1b" d="M 183.363281 69.601562 C 182.917969 69.601562 182.484375 69.589844 182.042969 69.589844 L 182.042969 54.621094 C 182.484375 54.625 182.917969 54.636719 183.363281 54.636719 C 183.765625 54.636719 184.167969 54.628906 184.566406 54.625 L 184.566406 69.589844 C 184.167969 69.589844 183.765625 69.601562 183.363281 69.601562 " fill-opacity="1" fill-rule="nonzero"/><path fill="#e98b1b" d="M 186.34375 69.574219 L 186.34375 54.613281 C 187.1875 54.597656 188.023438 54.582031 188.867188 54.5625 L 188.867188 69.519531 C 188.023438 69.542969 187.1875 69.5625 186.34375 69.574219 " fill-opacity="1" fill-rule="nonzero"/><path fill="#e98b1b" d="M 190.636719 69.472656 L 190.636719 54.511719 C 191.484375 54.484375 192.324219 54.445312 193.160156 54.40625 L 193.160156 69.371094 C 192.324219 69.40625 191.484375 69.449219 190.636719 69.472656 " fill-opacity="1" fill-rule="nonzero"/><path fill="#e98b1b" d="M 194.9375 69.285156 L 194.9375 54.328125 C 195.785156 54.28125 196.621094 54.222656 197.460938 54.167969 L 197.460938 69.128906 C 196.621094 69.183594 195.785156 69.242188 194.9375 69.285156 " fill-opacity="1" fill-rule="nonzero"/><path fill="#e98b1b" d="M 199.234375 69.003906 L 199.234375 54.050781 C 200.078125 53.984375 200.917969 53.917969 201.757812 53.84375 L 201.757812 68.800781 C 200.921875 68.875 200.078125 68.941406 199.234375 69.003906 " fill-opacity="1" fill-rule="nonzero"/><path fill="#e98b1b" d="M 203.527344 68.625 L 203.527344 53.675781 C 204.371094 53.59375 205.226562 53.515625 206.054688 53.425781 L 206.054688 68.371094 C 205.226562 68.464844 204.371094 68.542969 203.527344 68.625 " fill-opacity="1" fill-rule="nonzero"/><path fill="#e98b1b" d="M 207.828125 68.15625 L 207.828125 53.21875 C 208.675781 53.113281 209.515625 53.011719 210.347656 52.898438 L 210.347656 67.835938 C 209.515625 67.949219 208.675781 68.050781 207.828125 68.15625 " fill-opacity="1" fill-rule="nonzero"/><path fill="#e98b1b" d="M 167.378906 68.992188 C 166.535156 68.929688 165.691406 68.863281 164.855469 68.789062 L 164.855469 53.835938 C 165.691406 53.910156 166.535156 53.976562 167.378906 54.039062 L 167.378906 68.992188 " fill-opacity="1" fill-rule="nonzero"/><path fill="#e98b1b" d="M 163.085938 68.613281 C 162.234375 68.539062 161.390625 68.445312 160.558594 68.355469 L 160.558594 53.410156 C 161.390625 53.507812 162.234375 53.585938 163.085938 53.667969 L 163.085938 68.613281 " fill-opacity="1" fill-rule="nonzero"/><path fill="#e98b1b" d="M 158.785156 68.144531 C 157.9375 68.039062 157.097656 67.933594 156.257812 67.820312 L 156.257812 52.886719 C 157.097656 53 157.9375 53.101562 158.785156 53.203125 L 158.785156 68.144531 " fill-opacity="1" fill-rule="nonzero"/><path fill="#e98b1b" d="M 133 62.777344 C 132.144531 62.503906 131.296875 62.21875 130.476562 61.933594 L 130.476562 47.109375 C 131.296875 47.394531 132.144531 47.667969 133 47.929688 L 133 62.777344 " fill-opacity="1" fill-rule="nonzero"/><path fill="#e98b1b" d="M 128.46875 61.199219 C 127.6875 60.90625 126.925781 60.601562 126.183594 60.292969 L 126.183594 45.53125 C 127 45.855469 127.84375 46.179688 128.703125 46.492188 L 128.703125 60.953125 C 128.703125 61.046875 128.605469 61.128906 128.46875 61.199219 " fill-opacity="1" fill-rule="nonzero"/><path fill="#e98b1b" d="M 123.761719 59.246094 C 123.113281 58.945312 122.492188 58.648438 121.882812 58.339844 L 121.882812 43.648438 C 122.695312 44.042969 123.539062 44.425781 124.40625 44.804688 L 124.40625 58.863281 C 124.40625 59.027344 124.136719 59.167969 123.761719 59.246094 " fill-opacity="1" fill-rule="nonzero"/><path fill="#e98b1b" d="M 119.585938 57.125 C 118.894531 56.730469 118.222656 56.335938 117.585938 55.925781 L 117.585938 41.34375 C 118.390625 41.824219 119.226562 42.308594 120.113281 42.769531 L 120.113281 56.769531 C 120.113281 56.917969 119.898438 57.039062 119.585938 57.125 " fill-opacity="1" fill-rule="nonzero"/><path fill="#e98b1b" d="M 115.796875 54.722656 C 114.875 54.050781 114.050781 53.371094 113.285156 52.675781 L 113.285156 38.347656 C 114.058594 38.984375 114.914062 39.605469 115.820312 40.21875 L 115.820312 54.683594 L 115.796875 54.722656 " fill-opacity="1" fill-rule="nonzero"/><path fill="#e98b1b" d="M 111.519531 50.882812 C 110.382812 49.570312 109.539062 48.214844 108.988281 46.828125 L 108.988281 33.621094 C 109.660156 34.683594 110.5 35.726562 111.519531 36.742188 L 111.519531 50.882812 " fill-opacity="1" fill-rule="nonzero"/></svg>